<svg width="60" height="60" viewBox="0 0 60 60" fill="none" xmlns="http://www.w3.org/2000/svg">
<path d="M7.47992 22.5C6.81688 22.5 6.18099 22.7634 5.71215 23.2322C5.24331 23.7011 4.97992 24.3369 4.97992 25V35C4.97992 35.663 5.24331 36.2989 5.71215 36.7678C6.18099 37.2366 6.81688 37.5 7.47992 37.5C8.14296 37.5 8.77884 37.2366 9.24769 36.7678C9.71653 36.2989 9.97992 35.663 9.97992 35V25C9.97992 24.3369 9.71653 23.7011 9.24769 23.2322C8.77884 22.7634 8.14296 22.5 7.47992 22.5ZM52.4799 22.5C51.8169 22.5 51.181 22.7634 50.7121 23.2322C50.2433 23.7011 49.9799 24.3369 49.9799 25V35C49.9799 35.663 50.2433 36.2989 50.7121 36.7678C51.181 37.2366 51.8169 37.5 52.4799 37.5C53.143 37.5 53.7788 37.2366 54.2477 36.7678C54.7165 36.2989 54.9799 35.663 54.9799 35V25C54.9799 24.3369 54.7165 23.7011 54.2477 23.2322C53.7788 22.7634 53.143 22.5 52.4799 22.5ZM42.1424 8.74999C42.3185 8.46539 42.4356 8.14835 42.4869 7.81765C42.5381 7.48695 42.5225 7.14932 42.4408 6.82478C42.3592 6.50024 42.2132 6.19539 42.0116 5.92831C41.8099 5.66124 41.5567 5.43736 41.267 5.26996C40.9772 5.10256 40.6567 4.99504 40.3247 4.95377C39.9926 4.91251 39.6556 4.93834 39.3336 5.02973C39.0117 5.12113 38.7114 5.27623 38.4505 5.48584C38.1896 5.69544 37.9735 5.9553 37.8149 6.24999L36.2799 8.90749C34.3087 7.98171 32.1577 7.50175 29.9799 7.50175C27.8021 7.50175 25.6511 7.98171 23.6799 8.90749L22.1424 6.24999C21.9838 5.9553 21.7677 5.69544 21.5068 5.48584C21.2459 5.27623 20.9456 5.12113 20.6237 5.02973C20.3018 4.93834 19.9648 4.91251 19.6327 4.95377C19.3006 4.99504 18.9802 5.10256 18.6904 5.26996C18.4006 5.43736 18.1474 5.66124 17.9457 5.92831C17.7441 6.19539 17.5981 6.50024 17.5165 6.82478C17.4348 7.14932 17.4192 7.48695 17.4705 7.81765C17.5217 8.14835 17.6389 8.46539 17.8149 8.74999L19.5449 11.745C18.1008 13.1393 16.9524 14.8102 16.1681 16.658C15.3838 18.5058 14.9797 20.4926 14.9799 22.5V42.5C14.9799 43.163 15.2433 43.7989 15.7122 44.2678C16.181 44.7366 16.8169 45 17.4799 45H22.4799V52.5C22.4799 53.163 22.7433 53.7989 23.2122 54.2678C23.681 54.7366 24.3169 55 24.9799 55C25.643 55 26.2788 54.7366 26.7477 54.2678C27.2165 53.7989 27.4799 53.163 27.4799 52.5V45H32.4799V52.5C32.4799 53.163 32.7433 53.7989 33.2122 54.2678C33.681 54.7366 34.3169 55 34.9799 55C35.643 55 36.2788 54.7366 36.7477 54.2678C37.2165 53.7989 37.4799 53.163 37.4799 52.5V45H42.4799C43.143 45 43.7788 44.7366 44.2477 44.2678C44.7165 43.7989 44.9799 43.163 44.9799 42.5V22.5C44.9798 20.4924 44.5754 18.5055 43.7906 16.6577C43.0059 14.8099 41.857 13.1391 40.4124 11.745L42.1424 8.74999ZM39.9799 40H19.9799V27.5H39.9799V40ZM19.9799 22.5C19.9799 19.8478 21.0335 17.3043 22.9088 15.4289C24.7842 13.5536 27.3278 12.5 29.9799 12.5C32.6321 12.5 35.1756 13.5536 37.051 15.4289C38.9263 17.3043 39.9799 19.8478 39.9799 22.5H19.9799Z" fill="#60E69D"/>
</svg>
