<svg width="45" height="55" viewBox="0 0 45 55" fill="none" xmlns="http://www.w3.org/2000/svg">
<path d="M43.4517 36.862C41.945 36.2077 40.6617 35.1172 39.762 33.7268C38.8622 32.3364 38.386 30.7078 38.3928 29.0443C38.4117 27.5591 38.8032 26.1033 39.5302 24.8142C40.2571 23.5251 41.2957 22.4453 42.5478 21.6766C42.8311 21.499 43.076 21.2649 43.2676 20.9884C43.4592 20.712 43.5936 20.3989 43.6627 20.0683C43.7318 19.7376 43.734 19.3962 43.6694 19.0646C43.6048 18.733 43.4746 18.4181 43.2867 18.1391C42.161 16.4781 40.6937 15.0848 38.986 14.0554C37.2783 13.0259 35.3709 12.3849 33.3954 12.1764C35.2346 9.21392 36.0693 5.72232 35.7722 2.23365C35.7145 1.60013 35.4173 1.01393 34.9429 0.598112C34.4685 0.182298 33.8538 -0.0307844 33.228 0.00359789C28.9982 0.385761 25.0771 2.41077 22.2825 5.65624C20.5105 7.74004 19.26 10.2272 18.6374 12.9064C17.3514 12.4641 16.005 12.2296 14.6474 12.2114C12.1341 12.284 9.68197 13.0145 7.52868 14.3321C5.37538 15.6497 3.59398 17.5096 2.35718 19.7316C-2.29536 27.9243 0.551824 40.2021 5.58612 47.5948C7.60575 50.5549 10.6377 55 15.2114 55C15.3025 55 15.3936 55 15.4823 54.995C17.015 54.9076 18.5157 54.5143 19.8984 53.8375C21.0028 53.2688 22.2215 52.9659 23.4598 52.9524C24.6234 52.9671 25.7677 53.2564 26.8021 53.7975C28.3141 54.5236 29.9619 54.9124 31.6344 54.9375C36.3461 54.8475 39.1292 50.7199 41.1611 47.7048C42.765 45.3101 44.0201 42.6931 44.8876 39.9346C45.073 39.3324 45.0278 38.6813 44.7612 38.1114C44.4946 37.5414 44.0262 37.0944 43.4492 36.8595L43.4517 36.862ZM26.0139 8.92132C27.3073 7.45288 28.9278 6.31967 30.7404 5.61624C30.3429 7.59579 29.465 9.44334 28.1863 10.9914C27.3185 12.0494 26.2624 12.9323 25.0731 13.5939L25.0657 13.5964L24.8563 13.6814C24.3982 13.864 23.8293 14.0915 23.3909 14.239C23.8136 12.2722 24.7145 10.4442 26.0115 8.92132H26.0139ZM37.0973 44.8847C35.1195 47.8173 33.5629 49.8999 31.5457 49.9374C30.5725 49.9336 29.6157 49.6827 28.7626 49.2073C27.111 48.3906 25.2995 47.9616 23.4623 47.9523C21.5614 47.9621 19.6863 48.4002 17.9724 49.2349C17.1391 49.6661 16.2301 49.926 15.2976 49.9999H15.2237C13.2213 49.9999 11.0687 46.8448 9.63769 44.7472C6.06147 39.4971 2.7611 29.0393 6.62549 22.2267C7.43583 20.7527 8.60774 19.5164 10.0275 18.6377C11.4473 17.759 13.0667 17.2677 14.7286 17.2115H14.8124C16.2152 17.332 17.5851 17.708 18.8566 18.3216C19.1767 18.4491 19.4969 18.5791 19.8147 18.6966C19.8935 18.7341 19.9772 18.7641 20.061 18.7916C20.9381 19.1494 21.8698 19.3499 22.8145 19.3841C24.1512 19.277 25.4569 18.921 26.6666 18.3341C28.3709 17.4935 30.2446 17.0673 32.1393 17.089C34.1661 17.1701 36.1116 17.9197 37.681 19.2241C36.3399 20.4789 35.2721 22.0045 34.5464 23.7031C33.8206 25.4016 33.4529 27.2355 33.4669 29.0868V29.0893C33.4525 31.3307 33.9986 33.5392 35.0539 35.508C36.1092 37.4769 37.6393 39.1419 39.5011 40.3471C38.8536 41.9381 38.049 43.4584 37.0997 44.8847H37.0973Z" fill="#BFB1BD"/>
</svg>
