<svg width="50" height="42" viewBox="0 0 50 42" fill="none" xmlns="http://www.w3.org/2000/svg">
<path d="M2.5 5.95366H47.5C48.163 5.95366 48.7989 5.64003 49.2678 5.08176C49.7366 4.5235 50 3.76633 50 2.97683C50 2.18732 49.7366 1.43016 49.2678 0.871893C48.7989 0.31363 48.163 0 47.5 0H2.5C1.83696 0 1.20107 0.31363 0.732233 0.871893C0.263392 1.43016 0 2.18732 0 2.97683C0 3.76633 0.263392 4.5235 0.732233 5.08176C1.20107 5.64003 1.83696 5.95366 2.5 5.95366ZM2.5 17.861H37.5C38.163 17.861 38.7989 17.5473 39.2678 16.9891C39.7366 16.4308 40 15.6736 40 14.8841C40 14.0946 39.7366 13.3375 39.2678 12.7792C38.7989 12.2209 38.163 11.9073 37.5 11.9073H2.5C1.83696 11.9073 1.20107 12.2209 0.732233 12.7792C0.263392 13.3375 0 14.0946 0 14.8841C0 15.6736 0.263392 16.4308 0.732233 16.9891C1.20107 17.5473 1.83696 17.861 2.5 17.861ZM47.5 23.8146H2.5C1.83696 23.8146 1.20107 24.1283 0.732233 24.6865C0.263392 25.2448 0 26.0019 0 26.7915C0 27.581 0.263392 28.3381 0.732233 28.8964C1.20107 29.4546 1.83696 29.7683 2.5 29.7683H47.5C48.163 29.7683 48.7989 29.4546 49.2678 28.8964C49.7366 28.3381 50 27.581 50 26.7915C50 26.0019 49.7366 25.2448 49.2678 24.6865C48.7989 24.1283 48.163 23.8146 47.5 23.8146ZM37.5 35.7219H2.5C1.83696 35.7219 1.20107 36.0356 0.732233 36.5938C0.263392 37.1521 0 37.9093 0 38.6988C0 39.4883 0.263392 40.2454 0.732233 40.8037C1.20107 41.362 1.83696 41.6756 2.5 41.6756H37.5C38.163 41.6756 38.7989 41.362 39.2678 40.8037C39.7366 40.2454 40 39.4883 40 38.6988C40 37.9093 39.7366 37.1521 39.2678 36.5938C38.7989 36.0356 38.163 35.7219 37.5 35.7219Z" fill="black"/>
</svg>
