<svg width="228" height="219" viewBox="0 0 228 219" fill="none" xmlns="http://www.w3.org/2000/svg">
<path fill-rule="evenodd" clip-rule="evenodd" d="M220.03 92.4258C219.671 94.0141 218.785 94.7944 217.276 95.1725C214.787 95.7954 212.058 95.8923 209.519 96.2138C204.878 96.803 200.081 97.0478 195.53 98.1937C191.27 99.2657 187.009 100.867 183.162 103.068C184.42 96.8011 185.846 90.7137 185.318 84.2587C184.93 79.5197 184.822 72.3794 180.225 69.6395C179.161 69.0041 177.476 69.2441 176.293 69.1778C174.755 69.0924 173.215 69.0166 171.676 68.9283C168.632 68.7537 165.604 68.4197 162.57 68.1106C156.586 67.5012 150.646 66.745 144.7 65.8342C143.716 65.6836 141.95 65.7968 141.292 64.9081C140.806 64.2546 141.038 63.2219 141.075 62.4877C141.199 59.9503 141.102 57.4205 140.799 54.8993C140.138 49.3819 138.675 43.9519 137.04 38.6716C136.212 36.0026 135.327 33.3538 134.493 30.6868C134.091 29.3979 133.156 27.6397 134.492 26.7165C135.327 26.1397 136.785 26.1445 137.755 25.8921C138.91 25.5927 140.035 25.2002 141.164 24.8134C143.831 23.8998 146.494 22.9737 149.158 22.0495C159.28 18.536 169.493 15.2557 179.586 11.6731C180.998 11.1721 182.401 10.6472 183.813 10.1462C184.425 9.93027 185.488 9.37266 186.146 9.67305C186.916 10.0262 186.767 10.9101 187.32 11.436C187.803 11.8948 188.897 11.9284 189.519 12.3017C191.098 13.2508 192.087 14.9063 193.326 16.2423C194.92 17.9611 196.702 19.4707 198.276 21.2212C204.627 28.2866 209.327 36.7925 213.306 45.4913C214.377 47.834 215.074 50.2582 215.743 52.7505C216.377 55.1095 217.186 57.4157 217.546 59.8447C218.384 65.5156 218.415 71.3506 219.087 77.058C219.65 81.8412 221.114 87.634 220.03 92.4258ZM179.68 79.6166C179.667 83.394 179.476 87.1964 178.682 90.8932C177.864 94.7051 176.386 98.3549 175.068 102C173.824 105.439 172.817 108.986 171.374 112.342C169.951 115.654 168.127 118.672 166.985 122.11C164.643 129.158 160.631 135.342 157.791 142.148C154.89 149.105 151.66 155.748 148.054 162.343C146.34 165.481 144.749 168.951 142.581 171.776C141.505 173.18 140.275 174.578 139.031 175.82C137.946 176.902 137.425 176.076 136.113 176.322C134.2 176.679 133.213 179.265 131.976 180.595C129.629 183.114 127.233 185.604 124.664 187.875C122.032 190.2 119.124 192.143 116.425 194.381C113.848 196.519 111.275 198.45 108.329 200.008C102.513 203.086 95.8264 206.861 89.1158 206.538C86.0278 206.389 84.3743 204.295 83.0806 201.5C81.7114 198.541 82.1733 194.994 82.4033 191.819C82.6785 188.011 83.5618 184.652 85.5106 181.422C87.4319 178.236 85.5382 176.26 83.6234 173.606C79.3512 167.681 73.6584 163.067 68.466 158.061C65.7857 155.475 63.1283 152.862 60.4727 150.248C59.0051 148.803 57.5393 147.357 56.0745 145.91C54.9998 144.85 53.9646 144.134 53.5772 142.645C56.4987 141.003 59.5443 139.605 62.2366 137.553C67.7326 133.365 72.7759 128.254 77.9563 123.646C80.4453 121.432 82.4116 118.689 84.4111 116.013C86.3406 113.429 88.5517 110.989 90.2172 108.202C93.7984 102.207 97.8829 96.2704 100.722 89.8423C102.138 86.6388 102.869 83.37 103.61 79.9487C104.056 77.8882 104.57 75.844 105.07 73.7969C105.393 72.4783 105.486 70.2047 106.297 69.1145C107.79 67.1068 112.482 70.3497 114.201 70.9197C117.436 71.9917 120.807 72.5013 124.153 73.0407C131.25 74.1837 138.397 75.1607 145.449 76.5791C149.143 77.3219 152.846 78.1454 156.595 78.534C160.229 78.9112 163.883 78.7145 167.525 78.6866C168.305 78.6799 169.257 78.8239 169.781 78.0782C170.079 77.6511 169.879 77.1214 170.359 76.7221C170.984 76.202 171.801 76.4812 172.519 76.5609C173.977 76.7231 175.439 76.8152 176.895 77.0043C177.524 77.0859 178.775 76.9745 179.312 77.32C179.878 77.6837 179.683 78.7807 179.68 79.6166ZM77.5312 181.032C75.8326 184.599 74.8518 189.589 74.8002 193.541C74.7726 195.662 75.0413 197.778 75.4591 199.851C75.8216 201.659 76.8154 203.74 76.5034 205.561C72.1953 203.485 67.9627 201.253 63.569 199.38C59.7725 197.761 56.921 194.944 53.7971 192.268C50.4423 189.395 47.4059 186.192 44.1826 183.166C40.7238 179.919 37.1159 176.848 33.5982 173.672C27.3348 168.017 22.0763 161.663 16.9345 154.907C12.4148 148.968 5.93421 141.393 6.23786 133.358C6.38048 129.629 6.64276 125.388 8.39838 122.05C9.85588 119.278 12.4939 116.169 14.9599 114.315C17.3311 112.532 19.659 117.012 20.9923 118.586C23.8632 121.973 26.791 125.306 29.7033 128.655C35.2425 135.024 40.4993 141.712 46.4903 147.633C52.5292 153.599 58.7033 159.435 65.2059 164.844C68.4614 167.551 72.0481 170.075 75.0027 173.141C76.0875 174.268 78.1937 175.508 78.9179 176.914C79.6945 178.428 78.1376 179.757 77.5312 181.032ZM225.742 93.0784C224.829 92.9556 224.872 93.0842 224.795 92.1514C224.674 90.706 225.144 88.9997 225.284 87.5515C225.957 80.6598 225.636 73.439 225.059 66.5463C223.926 53.0087 221.249 39.6985 214.455 27.9555C211.32 22.5341 207.773 17.4217 203.328 13.0771C201.279 11.0752 199.279 8.91871 197.012 7.18068C195.875 6.30735 194.22 5.86686 193.184 4.97337C192.625 4.48968 192.378 3.50499 191.905 2.8879C190.02 0.426248 187.891 -0.209084 184.884 0.0557967C181.764 0.332192 178.494 1.35142 175.485 2.22092C169.081 4.07219 162.939 7.2181 156.737 9.70087C150.506 12.1942 144.345 14.8516 138.201 17.5638C135.529 18.7423 132.305 19.6684 129.934 21.4477C128.501 22.5226 128.08 23.8576 128.234 25.6455C128.778 31.9623 131.028 38.2359 132.74 44.2782C134.578 50.7668 136.076 57.3783 136.545 64.1423C130.197 63.6576 123.888 63.1547 117.569 62.3227C114.409 61.9061 111.231 61.5654 108.077 61.1134C106.446 60.8802 105.685 60.2449 104.374 59.3629C103.222 58.5884 102.629 59.2439 102.138 60.4215C99.5824 66.5396 98.5757 73.2134 95.8079 79.2874C94.5658 82.0149 93.0144 84.561 91.7225 87.2616C90.3175 90.1974 88.6226 93.0871 86.8614 95.803C86.0434 97.0641 84.9936 98.0843 84.0872 99.2666C83.2471 100.362 82.6435 101.622 81.8725 102.768C80.2595 105.162 78.305 107.273 76.3267 109.337C74.3411 111.409 72.4171 113.512 70.5206 115.671C68.6555 117.794 66.4298 119.517 64.4588 121.522C62.6038 123.408 60.9889 125.462 59.0861 127.31C57.2532 129.091 56.3947 131.564 54.4228 133.165C53.36 134.029 52.1804 134.723 51.1223 135.594C50.2481 136.312 49.3354 137.57 48.0941 137.329C46.7167 137.06 45.6088 135.131 44.7476 134.136C43.637 132.854 42.519 131.579 41.3936 130.31C36.9751 125.327 32.4435 120.441 27.9873 115.49C25.8093 113.068 23.4132 110.872 21.2905 108.396C19.7428 106.592 17.2115 105.307 15.0446 106.542C12.8592 107.787 10.234 108.886 8.4646 110.755C6.54703 112.78 5.01778 115.414 3.4563 117.738C1.8295 120.159 1.18445 123.017 0.758427 125.895C0.305718 128.961 -0.166278 131.999 0.0573163 135.112C0.48334 141.003 1.53415 147.578 4.80433 152.54C6.36212 154.905 8.49684 156.681 10.4061 158.715C12.4737 160.92 13.9514 163.575 15.6564 166.078C19.0766 171.099 23.278 175.595 27.5631 179.82C29.6067 181.834 31.9208 183.533 33.9755 185.554C36.1682 187.713 38.3894 189.661 40.8637 191.456C43.395 193.292 45.4855 195.683 47.773 197.817C50.1285 200.015 52.5402 202.065 55.1332 203.949C60.1075 207.564 65.1655 209.917 70.9486 211.735C77.3187 213.737 83.4845 216.357 89.8197 218.45C92.8552 219.453 95.8595 218.066 98.7506 217.052C101.699 216.017 104.592 214.791 107.306 213.197C112.812 209.962 118.1 206.21 123.516 202.803C129.149 199.261 133.854 195.2 138.157 190.016C142.258 185.073 146.599 180.166 150.334 174.918C157.916 164.258 162.501 151.648 168.128 139.845C171.12 133.57 174.151 127.394 176.639 120.874C177.863 117.666 178.958 114.401 180.208 111.205C180.737 109.851 181.174 109.324 182.592 109.094C184.23 108.827 185.904 108.71 187.549 108.506C194.057 107.698 200.409 106.497 206.86 105.337C212.845 104.261 218.867 103.149 224.219 99.9797C225.344 99.3127 226.694 98.5296 227.307 97.2839C227.586 96.7148 228.272 93.8308 227.884 93.3692C227.657 93.0986 226.131 93.1312 225.742 93.0784Z" fill="#B1A0A0"/>
</svg>
