<svg width="702" height="702" viewBox="0 0 702 702" fill="none" xmlns="http://www.w3.org/2000/svg">
<path fill-rule="evenodd" clip-rule="evenodd" d="M432.18 41.2427C503.469 51.9592 578.668 51.9841 636.226 91.8878C693.133 131.34 719.89 194.472 742.511 256.388C765.311 318.795 778.699 382.916 766.226 447.715C752.191 520.633 731.269 598.863 667.747 644.82C603.3 691.445 514.137 683.626 432.18 689.387C342.355 695.7 248.056 718.912 168.727 679.894C84.7883 638.608 2.84112 563.912 0.0450771 476.84C-2.73967 390.119 124.314 348.324 155.448 266.364C185.448 187.387 104.409 77.8008 172.739 22.2142C239.166 -31.824 344.424 28.0509 432.18 41.2427Z" fill="#FCE8F5"/>
</svg>
