<svg width="623" height="557" viewBox="0 0 623 557" fill="none" xmlns="http://www.w3.org/2000/svg">
<path fill-rule="evenodd" clip-rule="evenodd" d="M283.491 3.06071C364.735 -5.28382 459.143 1.86064 518.106 44.2253C576.334 86.0619 559.22 156.884 578.855 215.277C594.392 261.481 630.877 304.519 621.473 351.628C612.088 398.647 569.839 437.008 527.484 472.628C485.474 507.957 441.006 547.898 378.498 555.965C317.362 563.855 265.505 524.372 204.966 514.251C138.502 503.139 60.8194 524.475 6.62915 493.794C-49.1376 462.22 -74.7965 406.174 -77.8565 354.124C-80.796 304.124 -37.9286 261.455 -9.70121 216.014C18.398 170.78 39.2104 123.312 87.1555 88.488C142.512 48.2812 206.814 10.9362 283.491 3.06071Z" fill="#FCE8F5"/>
</svg>
