<svg width="556" height="584" viewBox="0 0 556 584" fill="none" xmlns="http://www.w3.org/2000/svg">
<path fill-rule="evenodd" clip-rule="evenodd" d="M338.548 22.6312C393.679 38.0941 426.115 90.9833 477.411 116.424C545.517 150.201 654.122 125.596 685.644 194.774C716.126 261.67 643.697 332.004 603.769 393.728C573.096 441.144 529.963 474.959 483.569 507.156C438.287 538.581 393.075 569.736 338.548 577.787C277.265 586.835 211.66 587.222 158.676 555.126C103.466 521.681 73.9247 461.093 48.1894 401.896C19.8631 336.739 -10.8338 268.306 3.75444 198.771C19.1341 125.465 62.318 53.4672 128.606 18.592C192.104 -14.8151 269.465 3.25483 338.548 22.6312Z" fill="#FCE8F5"/>
</svg>
