<svg width="1282" height="763" viewBox="0 0 1282 763" fill="none" xmlns="http://www.w3.org/2000/svg">
<path fill-rule="evenodd" clip-rule="evenodd" d="M613.793 22.5799C707.353 34.099 789.96 62.9837 879.793 84.9086C992.125 112.325 1133.84 103.04 1209.92 168.072C1285.64 232.798 1297.9 332.8 1264.37 413.647C1232.22 491.15 1121.92 534.931 1035.92 587.544C973.144 625.955 900.682 650.185 829.221 679.885C757.46 709.71 696.831 762.094 613.793 762.989C530.643 763.886 471.052 707.87 394.572 684.572C305.465 657.428 194.272 663.728 126.279 614.479C54.7256 562.65 36.2185 485.533 20.5372 413.647C2.9519 333.032 -19.2174 246.793 30.0089 173.156C80.1487 98.152 179.401 40.412 288.929 12.1616C392.637 -14.588 505.122 9.20044 613.793 22.5799Z" fill="#FCE8F5"/>
</svg>
