<svg width="582" height="524" viewBox="0 0 582 524" fill="none" xmlns="http://www.w3.org/2000/svg">
<path fill-rule="evenodd" clip-rule="evenodd" d="M139.241 260.618C142.597 286.441 145.952 312.264 149.307 338.087L152.017 358.941C152.359 361.572 152.036 366.763 153.339 369.118C153.799 369.949 155.009 370.344 155.898 370.834C158.96 372.52 162.022 374.207 165.083 375.894C190.982 390.163 216.88 404.431 242.778 418.699C267.632 432.392 292.487 446.086 317.342 459.779C319.914 461.197 324.074 464.894 326.851 463.92C329.49 462.994 332.187 460.71 334.583 459.27C339.183 456.503 343.783 453.738 348.383 450.971C376.216 434.233 404.048 417.494 431.881 400.756C443.364 393.85 454.847 386.945 466.331 380.038C469.472 378.149 472.615 376.26 475.757 374.37C477.4 373.382 477.614 373.417 478.261 371.739C480.679 365.468 481.799 358.285 483.51 351.778C485.395 344.608 487.281 337.437 489.167 330.267C490.007 327.067 489.613 326.654 488.241 323.566C485.528 317.452 482.814 311.34 480.1 305.227C474.077 291.66 468.055 278.092 462.031 264.525C459.595 259.038 453.728 255.177 449.504 251.142L383.922 188.486C382.256 186.894 380.591 185.303 378.925 183.711C378.651 193.276 376.809 203.559 379.51 212.8C383.944 227.964 388.377 243.129 392.81 258.293C394.953 265.623 397.096 272.952 399.239 280.282C399.637 281.644 402.06 287.044 401.413 288.242C401.054 288.905 397.992 289.577 397.329 289.836C394.48 290.948 391.632 292.06 388.782 293.172C380.845 296.271 372.908 299.37 364.971 302.468C357.832 305.255 350.693 308.042 343.554 310.829C341.133 311.774 338.29 313.524 335.734 313.378C333.446 313.248 330.846 312.086 328.633 311.502C324.742 310.473 320.851 309.445 316.96 308.416C309.317 306.396 301.673 304.376 294.03 302.355C285.431 300.082 278.169 293.407 270.816 288.466C258.175 279.973 245.535 271.48 232.895 262.987C230.001 261.043 229.991 259.933 228.838 256.383C226.246 248.405 223.654 240.427 221.063 232.449C219.679 228.19 217.978 223.912 216.933 219.551C215.209 212.354 214.187 204.903 212.821 197.626C212.41 195.43 211.998 193.234 211.586 191.039C206.293 193.243 200.999 195.448 195.705 197.653C194.938 197.972 191.199 198.925 190.867 199.707C190.656 200.202 191.768 202.448 191.927 202.93C196.316 216.271 200.706 229.61 205.096 242.95C206.476 247.147 207.857 251.342 209.237 255.539C205.938 250.218 202.639 244.897 199.339 239.577C196.747 248.525 194.154 257.474 191.562 266.422C185.434 259.166 179.307 251.911 173.179 244.656C171.058 251.911 168.937 259.166 166.815 266.422C160.217 257.474 153.618 248.525 147.019 239.577C146.234 244.247 145.45 248.916 144.665 253.586C144.428 254.995 144.475 259.039 143.561 260.155C142.808 261.073 140.64 260.618 139.241 260.618Z" fill="#FF5678"/>
<path fill-rule="evenodd" clip-rule="evenodd" d="M557.051 316.437C556.679 328.593 556.937 344.372 550.454 355.06C549.408 356.785 545.863 362.158 545.467 357.431C545.079 352.791 546.192 348.195 545.09 343.501C544.5 340.989 542.517 335.503 539.127 337.772C537.399 338.928 536.944 341.783 536.268 343.585C535.268 346.252 534.148 348.876 533.096 351.522C529.419 360.759 525.61 371.782 517.437 377.894C518.507 369.929 521.422 361.425 519.462 353.373C518.794 350.629 516.771 345.619 513.287 347.227C509.892 348.793 507.692 355.783 506.09 358.896C501.232 368.333 496.264 377.592 490.795 386.676C488.044 391.246 485.073 395.422 481.473 399.33C479.223 401.775 476.416 405.907 472.869 406.272C472.869 399.304 475.103 392.573 477.143 386.012C479.337 378.957 481.337 371.841 483.491 364.773C485.359 358.642 486.893 352.557 488.136 346.27C488.652 343.669 489.059 340.977 491.219 339.297C493.16 337.788 496.227 337.07 498.392 335.961C504.077 333.046 509.923 329.902 515.204 326.279C517.373 324.792 519.239 322.87 521.509 321.536C524.096 320.016 526.512 318.737 528.905 316.885C539.232 308.892 548.541 299.059 554.814 287.355C555.832 292.057 557.181 296.652 557.331 301.499C557.483 306.469 557.203 311.47 557.051 316.437ZM472.059 372.31C470.407 369.448 467.891 370.62 465.674 372C462.233 374.141 458.784 376.267 455.326 378.381C448.289 382.684 441.382 387.211 434.506 391.779C420.511 401.075 406.027 408.684 391.272 416.553C377.011 424.158 363.314 433.207 349.953 442.355C346.741 444.553 343.553 446.803 340.469 449.187C337.732 451.303 335.543 454.275 332.662 456.159C329.661 458.121 327.599 456.53 324.729 455.083C321.14 453.273 317.4 451.757 313.731 450.125C298.927 443.539 284.08 436.702 269.678 429.226C255.364 421.797 241.801 413.235 228.085 404.733C221.553 400.684 215.132 396.377 208.689 392.18C201.832 387.712 194.733 384.366 187.54 380.568C184.358 378.887 181.539 376.605 178.271 375.077C174.834 373.472 171.204 372.319 168.127 370.003C166.748 368.964 165.584 367.722 164.008 366.987C162.713 366.385 161.244 366.283 159.965 365.642C157.365 364.339 156.621 361.695 156.117 358.944C152.878 341.287 151.157 323.14 149.279 305.286C148.225 295.246 147.047 285.246 145.589 275.259C144.932 270.756 146.254 267.268 146.948 262.887C147.759 257.772 148.079 252.549 148.622 247.398C151.184 252.269 153.4 257.381 156.66 261.827C159.063 265.103 163.168 269.748 167.594 269.639C174.472 269.468 174.157 257.363 174.434 252.557C177.567 255.427 178.517 260.101 181.118 263.435C183.492 266.477 186.723 270.253 190.369 271.616C198.046 274.485 197.307 259.862 196.885 255.715C196.673 253.635 195.528 250.344 198.244 251.292C200.745 252.165 203.179 255.787 205.281 257.447C208.914 260.319 212.899 262.705 216.627 265.446C221.252 268.848 226.242 271.306 230.957 274.474C233.906 276.455 237.123 276.9 240.338 278.357C245.048 280.492 249.209 283.674 253.692 286.234C262.571 291.3 272.42 295.844 282.131 298.898C285.273 299.886 289.46 302.672 291.843 299.809C293.311 298.048 294.275 295.357 295.521 293.382C297.097 290.882 298.771 288.447 300.508 286.063C306.686 277.588 313.543 269.585 321.157 262.437C330.015 254.122 339.701 246.638 350.062 240.406C354.514 237.728 373.101 225.725 377.187 234.173C373.83 233.958 370.92 235.218 368.048 236.796C367.348 237.182 363.734 239.83 364.58 237.496C363.53 237.698 362.609 239.102 361.814 239.727C360.441 240.807 358.357 242.053 356.766 242.947C355.194 243.83 353.251 244.046 351.818 245.117C351.295 245.508 350.977 246.142 350.478 246.565L349.047 246.577C348.833 247.39 348.618 248.203 348.404 249.016C347.595 246.355 346.441 249.815 345.09 250.939C344.278 251.615 342.992 252.311 342.035 252.747C341.32 253.072 341.21 252.315 340.516 252.891C339.899 253.403 339.506 254.529 338.843 255.171C338.029 255.956 336.988 256.566 336.081 257.236C334.343 258.52 332.504 259.529 330.744 260.746C328.375 262.385 327.133 265.202 324.834 266.915C323.744 267.726 322.052 267.821 321.463 268.341C319.984 269.645 320.471 271.621 317.714 271.709C317.965 272.121 318.116 272.568 318.167 273.05C317.51 272.934 316.926 272.655 316.415 272.211C316.53 275.034 313.825 276.041 312.204 277.779C311.269 278.78 310.105 280.189 309.446 281.394C309.336 281.595 309.127 283.204 309.082 283.226C308.832 283.349 307.308 281.976 307.452 282.09C307.027 284.698 304.568 287.163 303.491 289.577C302.924 290.849 302.348 292.893 301.23 293.788C300.926 294.031 299.991 293.777 299.218 294.622C298.651 295.242 297.997 296.388 297.767 297.21C297.613 297.759 297.798 299.18 297.577 299.509C297.173 300.111 296.543 299.506 295.91 299.952C294.739 300.774 294.709 302.06 292.996 302.229C294.177 305.173 301.307 306.081 303.898 306.918C311.226 309.285 318.915 311.649 325.765 315.273C327.537 316.211 329.213 316.983 329.527 319.143C329.965 322.149 328.472 326.145 328.187 329.18C327.416 337.378 327.258 345.818 327.419 354.05C327.572 361.848 327.818 369.72 328.172 377.508C328.501 384.73 329.92 391.808 330.685 398.978C330.895 400.947 330.755 409.822 334.053 409.375C336.806 409.002 335.067 402.94 335.016 401.202C334.901 397.356 335.69 393.43 335.656 389.549C335.641 387.684 336.436 386.077 336.512 384.292C336.588 382.528 335.733 381.135 335.989 379.306C336.235 377.552 341.289 367.461 336.436 368.643C336.72 367.201 336.969 365.746 337.344 364.325C337.863 364.804 338.282 365.363 338.597 366.001C339.029 362.902 338.885 359.808 339.153 356.707C339.273 355.302 339.828 353.763 339.638 352.347C339.674 351.76 339.602 351.184 339.421 350.619C339.122 350.295 338.752 350.125 338.313 350.108C338.082 349.332 338.023 349.119 338.433 348.358C338.609 347.842 338.958 347.52 339.481 347.392C340.476 347.271 340.59 346.684 339.822 345.631C340.222 343.553 340.274 342.242 339.985 340.168C339.742 338.426 340.636 335.053 339.725 333.502C338.661 331.689 338.132 333.447 337.934 330.934C337.891 330.402 337.857 329.294 338.066 328.763C338.294 328.186 338.981 328.422 339.069 328.217C339.665 326.82 339.704 324.07 337.595 324.309C337.678 323.312 337.761 322.314 337.843 321.316C339.366 323.116 338.834 321.593 339.698 320.592C340.862 319.244 342 319.012 343.664 318.479C348.097 317.06 352.369 314.924 356.702 313.192C365.876 309.523 375.221 306.247 384.127 301.911C402.858 292.79 421.218 282.892 440.064 274.012C438.717 271.448 439.555 271.323 440.539 268.916C441.852 269.852 441.576 269.199 442.511 269.142C442.426 268.338 442.669 268.096 443.24 268.415C443.695 268.558 444.161 268.608 444.639 268.566C445.806 268.772 446.759 269.43 447.819 269.681C448.167 269.944 448.55 270.141 448.967 270.274C449.341 270.186 449.661 269.996 449.925 269.703C451.642 270.03 452.22 271.357 452.296 273.278C452.309 273.612 451.312 273.955 451.598 274.404C452.096 275.189 453.438 275.002 454.206 275.102C454.037 275.917 453.869 276.732 453.702 277.547C457.071 275.951 456.192 280.945 457.213 282.586C457.498 283.044 458.133 282.678 458.463 283.208C458.893 283.9 458.763 284.881 459.13 285.57C459.96 287.129 460.79 286.94 461.616 288.725C465.935 298.048 471.681 306.733 475.827 316.256C477.802 320.788 479.582 325.398 481.643 329.891C483.539 334.026 484.623 337.541 483.271 342.056C480.136 352.53 476.783 363.196 472.675 373.313C472.47 372.979 472.265 372.644 472.059 372.31ZM253.379 450.495C253.085 451.009 252.791 451.523 252.497 452.037C251.843 448.181 253.584 449.969 253.379 450.495ZM239.551 443.275C238.609 442.985 239.016 441.406 239.046 440.73C239.642 441.493 240.227 442.27 240.723 443.107C240.332 443.163 239.941 443.219 239.551 443.275ZM201.652 428.451C202.642 427.881 203.354 427.472 204.476 426.826C203.335 429.107 203.335 429.107 201.652 428.451ZM142.029 227.523C140.516 231.332 145.128 254.851 140.835 255.618C140.219 253.554 140.142 247.87 137.593 247.192C134.43 246.35 134.742 252.201 134.31 254.011C127.817 249.375 124.934 240.423 121.832 233.329C117.878 224.287 114.767 214.882 111.796 205.46C109.256 197.404 107.155 189.206 104.588 181.164C102.975 176.113 101.237 171.049 100.152 165.843C99.9166 164.712 98.9897 161.843 99.7773 160.768C100.922 159.205 105.043 160.995 106.37 161.406C114.984 164.066 123.92 165.211 132.77 166.756C142.602 168.472 152.413 170.246 162.305 171.577C164.777 171.909 167.25 172.224 169.725 172.53C171.33 172.729 173.759 172.53 175.283 173.268C178.369 174.762 179.026 180.48 180.172 183.446C184.447 194.511 189.479 205.228 193.981 216.193C198.036 226.072 201.11 236.581 206.94 245.575C202.592 243.598 197.083 233.141 192.225 239.168C190.136 241.76 190.663 245.174 190.83 248.276C191.071 252.76 191.147 257.277 191.147 261.768C186.393 260.5 183.199 254.962 180.703 251.039C177.293 245.681 175.146 240.632 173.637 234.49C172.983 231.83 171.249 231.764 169.708 230.172C168.719 229.149 168.221 227.771 166.801 229.259C165.017 231.129 166.204 236.309 166.512 238.517C167.244 243.772 169.644 251.86 167.311 256.798C164.162 263.462 155.723 246.694 154.735 244.272C154.232 243.04 145.254 219.398 142.029 227.523ZM136.134 113.316C136.665 113.399 137.196 113.483 137.728 113.566C137.299 113.954 136.408 115.316 135.68 114.956C135.831 114.409 135.982 113.863 136.134 113.316ZM164.295 107.115C164.128 107.303 163.961 107.49 163.794 107.678C163.032 106.7 163.302 105.274 163.302 104.143C164.309 104.768 164.556 106.017 164.295 107.115ZM166.571 117.966V121.163C164.459 120.224 164.418 119.739 166.571 117.966ZM169.134 122.03C167.655 121.614 167.478 121.278 167.686 118.945C168.299 120.252 168.703 121.113 169.134 122.03ZM177.648 145.705C177.028 147.341 173.405 143.441 173.538 142.274C173.664 141.16 174.221 140.828 174.988 141.544C175.242 141.781 174.865 142.638 175.027 142.935C175.612 144.012 176.791 144.893 177.648 145.705ZM177.689 155.566C176.781 157.892 175.162 154.229 177.535 154.129C177.69 154.597 177.742 155.076 177.689 155.566ZM175.927 151.899C175.576 151.418 175.235 150.93 174.903 150.434C176.125 150.687 177.095 152.514 178.384 151.295C178.231 153.154 176.944 153.205 175.927 151.899ZM96.9202 121.684C94.9554 119.484 107.767 117.939 109.313 117.561C120.529 114.816 131.119 110.845 141.607 105.971C146.61 103.647 151.587 101.294 156.473 98.7167C158.583 97.6045 161.474 96.6613 163.236 94.9911C164.494 93.799 164.444 92.8972 166.078 92.1869C167.466 91.5854 167.536 92.1535 168.171 91.0652C168.553 90.4122 168.985 88.0194 168.762 87.3113C168.153 85.3792 167.253 86.9456 165.989 85.6143C165.079 84.6544 165.3 81.9249 165.548 80.7945C165.871 81.3329 166.056 81.9176 166.105 82.5474C167.476 81.8538 166.923 79.4719 168.423 79.0815C170.003 78.6709 169.84 79.934 170.252 81.2255C171.446 79.4261 170.489 77.8916 169.843 76.1344C173.128 75.5032 176.658 74.8915 179.915 76.0132C182.27 76.8236 184.286 78.8167 186.773 79.202C189.208 79.5785 189.676 78.3937 191.471 77.1915C192.928 76.2157 194.179 77.3649 194.93 76.6278C194.467 79.1163 190.492 78.7761 190.981 81.8857C191.201 83.2853 192.873 84.5426 193.634 85.6317C194.589 86.9986 195.35 88.5099 196.001 90.0502C198.531 96.0417 199.613 102.994 200.675 109.402C203.295 125.217 203.627 141.344 206.091 157.21C207.266 164.767 208.443 172.329 209.053 179.96C209.206 181.868 210.341 186.196 209.412 188.032C208.627 189.581 206.879 189.586 205.345 189.961C202.343 190.693 199.524 191.688 196.644 192.79C194.063 193.777 193.313 194.383 191.655 191.891C190.052 189.479 189.26 186.605 188.113 183.961C186.652 180.592 184.888 177.342 183.194 174.092C186.522 174.092 188.437 172.248 188.349 168.778C188.252 164.934 185.172 164.022 183.902 160.863C182.667 162.51 182.563 162.556 181.683 160.993C180.676 159.206 179.996 155.936 179.381 153.909C179.821 154.391 180.262 154.874 180.702 155.356C181.813 153.787 180.073 151.314 179.491 149.837C178.593 147.556 178.435 145.09 177.583 142.816C177.118 141.574 176.042 140.597 175.778 139.302C175.602 138.435 176.308 137.61 176.14 136.73C175.849 135.197 174.16 133.553 173.635 131.995C172.826 129.598 171.949 127.487 170.946 125.152C169.59 121.99 169.905 118.673 169.657 115.309C169.399 111.821 168.311 108.483 167.926 105.01C167.66 102.611 168.492 99.5895 166.723 97.6676C166.516 100.862 167.408 100.813 164.483 101.387C161.153 102.041 158.738 104.587 155.59 105.347C154.941 105.503 154.468 102.594 154.721 106.563C153.211 105.418 149.987 106.839 151.19 107.518C150.278 108.519 148.483 107.827 148.184 109.326C145.086 106.235 140.119 116.754 136.431 111.267C135.822 114.985 133.198 117.184 129.676 117.676C127.904 117.922 126.813 118.528 125.241 119.073C124.922 119.183 124.805 119.654 124.427 119.78C123.85 119.973 123.003 119.391 122.588 119.504C121.741 119.735 120.8 120.877 119.619 121.105C118.264 121.365 116.786 121.245 115.43 121.084C113.735 120.883 112.989 120.677 111.329 121.25C109.836 121.766 108.236 123.21 106.85 121.637C104.674 125.502 99.4832 124.557 96.9202 121.684ZM197.562 75.0446C195.914 74.8422 197.058 73.3882 197.821 72.9515C199.894 71.7659 199.341 75.2637 197.562 75.0446ZM106.341 88.914C116.01 74.5992 132.549 64.7638 147.101 56.4883C155.049 51.9682 163.163 47.5867 171.508 43.8872C175.658 42.0487 179.856 40.2813 184.093 38.6662C186.355 37.8036 188.645 37.0193 190.937 36.2386C191.57 36.0231 192.723 35.3614 193.386 35.426C193.272 35.4144 195.034 35.9063 194.688 36.0608C195.823 35.5537 196.363 34.231 197.698 33.7021C199.199 33.1072 201.11 32.8612 202.717 32.8075C204.139 32.7596 205.37 33.3626 206.724 33.4097C207.614 33.4402 208.371 33.0063 209.243 32.9425C209.689 32.9106 209.649 33.5955 209.918 33.6354C210.035 33.6528 211.222 33.195 211.234 33.2029C211.666 33.4881 212.05 34.6011 212.441 35.0356C213.562 36.2821 215.208 37.1506 216.703 37.8065C218.523 38.6046 222.963 39.407 220.905 42.3599C222.367 42.1445 223.047 43.4998 221.217 43.8429C220.226 44.0294 219.802 43.0978 219.066 42.4622C217.366 40.9967 213.238 38.91 210.789 39.0043C209.411 39.0573 208.346 40.1304 207.076 40.52C205.825 40.9031 205.206 40.3088 204.108 40.4032C202.826 40.5127 202 41.6264 200.777 41.8245C199.633 42.0102 198.995 41.2092 197.972 41.2651C196.756 41.3311 195.578 42.4151 194.417 42.7793C192.57 43.3583 191.214 43.753 189.411 44.7129C185.917 46.5739 182.015 47.2805 178.414 48.8825C175.535 50.1631 172.271 50.8371 169.607 52.2534C166.644 53.827 163.668 55.3949 160.767 57.105C158.672 58.3406 154.411 58.7658 152.1 58.4516C152.067 62.8179 149.973 59.7569 147.863 61.6694C148.362 62.1214 148.929 62.4537 149.562 62.6663C147.274 63.6037 145.16 64.7703 142.944 65.8477C140.654 66.9622 138.211 67.2074 136.706 69.3151C135.32 71.2573 135.79 70.2554 133.722 71.0201C132.773 71.3712 131.948 72.4421 131.264 73.1611C130.089 74.3975 129.829 76.2693 129.158 73.7285C128.962 74.0383 128.191 76.011 128.042 76.0611C127.201 75.1455 127.08 76.2309 126.61 76.619C126.857 77.4628 126.504 78.0157 125.549 78.2776C125.066 78.6462 124.577 79.0075 124.083 79.3608C122.29 80.6371 120.008 81.7319 118.745 83.6335C117.814 83.0698 117.469 82.0968 118.036 81.1036C116.256 82.7868 114.133 84.5158 113.651 87.1067C113.43 86.8876 113.172 86.7294 112.879 86.6322C112.157 87.1328 113.098 88.6245 113.556 88.9604C115.554 88.1638 113.057 88.4525 114.399 88.581C114.782 88.6172 115.175 88.9111 115.597 88.9162C116.835 88.9329 117.998 88.8719 119.226 88.6782C121.932 88.2501 124.592 87.4528 127.212 86.6532C130.066 85.7826 132.92 84.9134 135.711 83.8454C138.009 82.966 140.268 81.9858 142.527 81.0093C143.429 80.6189 144.331 80.2235 145.234 79.8361C146.95 79.1004 147.855 77.8916 147.616 79.9623C148.982 79.7294 150.167 77.7473 151.216 76.9383C152.692 75.8014 154.352 74.9532 156.102 74.3728C156.81 74.1377 157.33 73.8388 158.063 73.8366C158.422 73.8359 158.637 74.8749 158.863 74.8183C160.433 74.4279 159.717 73.5355 160.423 72.2499C161.966 69.4399 166.124 67.8858 168.677 66.2896C170.297 65.276 171.448 63.9127 172.944 62.7903C173.644 62.2658 174.152 62.0336 174.885 61.8116C175.447 61.6411 176.135 62.9645 176.499 61.6345C175.194 61.0868 174.117 60.4113 172.86 60.0115C171.972 59.7278 173.038 58.7578 171.629 59.3353C171.064 59.5675 170.869 60.6906 170.661 61.1608C169.088 59.7191 164.665 61.213 162.799 61.8167C162.67 61.858 162.094 61.546 161.822 61.5649C160.745 61.6389 159.994 63.127 159.285 63.7683C157.4 65.4726 155.354 66.1851 153.032 67.1581C153.65 63.6936 158.192 62.2745 160.842 60.9475C164.717 59.0074 168.324 56.5311 172.566 55.4878C175.391 54.792 179.135 54.2326 180.356 57.6035C181.086 59.6241 181.178 64.6441 178.707 65.5764C178.446 64.6332 179.282 63.8271 179.533 63.0087C177.074 63.9722 176.668 67.0042 174.8 68.5866C173.75 69.4754 173.375 69.7606 172.867 70.6196C172.363 71.4728 172.121 72.2687 170.94 73.1764C169.009 68.9675 169.336 74.7327 168.357 75.456C168.75 75.1651 166.761 76.0147 166.998 75.9247C166.906 75.9595 166.04 74.5186 165.478 74.5491C164.454 74.6042 164.651 75.76 164.158 76.3419C162.487 78.311 160.329 79.6025 157.64 79.2927C157.577 80.6937 157.999 82.3675 156.134 82.4952L155.889 79.3891C154.875 80.4426 153.539 81.4431 152.713 82.6628C151.774 84.0507 151.874 84.9054 150.315 85.8305C148.686 86.7976 145.22 88.7029 143.282 88.8676C143.761 88.1696 143.676 87.5391 143.029 86.9775C142.054 88.0092 140.614 88.1108 139.576 89.0424C143.179 90.5871 136.808 90.5073 136 90.6821C135.459 90.7997 134.987 91.3054 134.439 91.4193C133.711 91.5709 133.617 90.7859 132.991 91.0347C132.075 91.3989 132.446 92.427 131.488 92.9436C130.799 93.3151 129.631 93.31 128.854 93.6626C127.002 94.5042 123.058 96.3681 121.806 94.1074C121.172 97.9861 114.695 95.6252 112.297 95.364C109.014 95.0063 103.295 93.4246 106.341 88.914ZM120.132 49.2286C120.597 48.8216 121.062 48.8513 121.527 49.3186C120.879 45.8084 125.889 44.1041 128.074 42.6117C130.973 40.6324 134.385 36.7922 138.178 37.0962C137.531 37.5881 136.886 38.08 136.24 38.5719C137.162 38.6945 138.084 38.8171 139.006 38.9398C138.486 39.7233 137.965 40.5062 137.444 41.289C136.593 36.4744 132.152 42.5529 130.866 43.4388C129.572 44.3305 128.281 44.9951 127.13 46.0827C125.991 47.1601 124.962 49.1002 123.078 48.1309C122.906 50.8806 120.751 50.1348 119.262 51.6577C119.199 50.7022 119.733 50.0267 120.132 49.2286ZM139.812 35.5022C144.397 33.7398 148.389 30.4815 152.709 28.1539C156.836 25.9302 161.047 23.9335 165.242 21.8592C167.37 20.8064 171.269 18.0842 173.702 19.4714C176.984 21.3448 172.465 21.9491 171.291 22.5978C170.857 19.713 169.336 22.3264 170.245 23.9313C167.74 22.8212 162.277 27.1643 159.887 28.3622C159.346 28.6335 159.589 28.7902 158.974 29.1095C158.822 29.1878 157.254 29.5542 156.805 29.7088C154.555 30.4815 153.073 29.8677 152.103 32.6544C151.9 31.9986 151.697 31.3419 151.495 30.6853C150.086 33.9307 145.805 35.3513 143.067 37.2703C142.362 37.7651 140.347 39.6842 139.452 39.2873C138.206 38.7344 138.706 35.9266 139.812 35.5022ZM222.525 45.2868C224.461 45.4181 222.594 46.3446 223.126 46.9569C223.066 46.888 224.292 47.9611 224.131 47.6665C224.348 48.0627 224.867 48.0481 225.133 48.8535C226.049 51.6229 222.051 54.4844 220.702 56.0559C218.081 59.1126 216.565 62.9833 213.833 65.9421C212.6 67.2785 211.372 68.2014 209.662 68.6998C208.465 69.0488 207.199 68.6751 206.099 69.8563C205.213 70.8075 205.413 71.348 204.434 71.8537C202.709 72.7454 201.949 71.9633 200.271 73.8903C198.826 69.8607 202.976 69.8672 205.142 67.6151C208.131 64.5062 211.407 61.3697 214.21 58.0439C216.701 55.0888 217.698 52.4979 218.88 48.9079C219.253 47.7761 219.659 45.3492 220.686 44.6389C222.286 43.5331 221.326 45.2048 222.525 45.2868ZM232.044 149.967C237.122 144.14 243.42 138.907 250.247 135.397C252.687 134.142 256.161 132.495 258.69 134.427C261.17 136.321 260.636 140.098 259.636 142.668C258.678 142.282 259.583 138.671 259.086 137.778C258.001 135.831 255.661 136.865 254.069 137.518C252.203 138.282 250.539 139.127 249.062 140.515C248.462 141.077 247.315 141.581 246.931 141.968C246.354 141.722 246.014 141.901 245.912 142.505C246.031 142.875 246.017 143.239 245.869 143.598C245.785 143.712 245.035 143.244 244.928 143.338C244.442 143.765 243.986 144.268 243.508 144.665C242.547 145.462 241.729 145.84 240.845 146.951C239.137 149.099 236.877 150.358 235.161 152.405C234.774 152.868 234.309 154.054 234.222 154.158C233.355 155.197 232.069 156.019 231.09 157.119C229.398 159.019 227.592 160.294 225.639 161.924C224.799 162.625 223.818 163.38 223.259 164.355C223.004 164.8 222.861 167.238 222.852 167.248C220.937 169.401 221.31 165.073 221.454 164.53C223.009 158.69 228.265 154.306 232.044 149.967ZM221.594 189.456C221.832 190.373 222.028 191.131 222.27 192.062C220.752 190.784 220.752 190.784 221.594 189.456ZM219.954 192.46C219.396 193.036 218.836 193.61 218.271 194.179C217.029 192.832 220.182 192.229 219.954 192.46ZM219.166 169.27C218.572 171.735 216.398 174.724 214.903 176.67C215.068 176.455 213.628 176.887 213.464 176.985C212.931 177.301 214.206 179.351 212.361 178.435C211.707 178.815 212.996 180.364 212.106 181.056C209.535 175.045 216.555 169.837 219.273 165.375C220.602 166.628 219.5 167.888 219.166 169.27ZM202.468 201.77C204.342 202.265 205.317 201.953 206.583 200.064C207.344 198.929 207.622 196.92 209.362 198.617L209.668 196.434C212.152 197.48 211.944 201.258 213.029 203.352C213.557 200.983 214.808 194.366 218.638 195.427C222.937 196.619 215.781 204.207 215.117 206.066C213.655 203.738 214.23 205.903 213.115 206.231C212.159 206.513 210.664 205.791 209.502 205.856C205.965 206.053 202.858 207.686 199.628 209.068C198.81 206.805 197.992 204.542 197.174 202.279C199.076 202.429 203.009 197.234 203.567 201.01C202.157 200.758 201.76 200.822 201.072 202.14C201.511 201.911 201.977 201.788 202.468 201.77ZM210.407 231.307C210.401 231.289 214.065 231.521 214.391 231.398C216.898 230.459 215.972 227.541 216.484 225.478C217.518 226.453 216.97 228.233 217.289 229.495C217.663 230.978 218.746 232.242 218.846 233.828C219.075 237.411 216.209 236.616 214.037 237.775C212.181 238.766 211.975 240.013 210.408 237.342C209.984 236.619 209.072 234.737 209.165 233.812C209.257 232.897 210.67 232.136 210.407 231.307ZM213.359 246.813L212.346 245.649C215.365 246.597 213.585 245.171 214.279 243.222C216.596 244.805 218.486 246.432 220.319 243.262L223.487 256.373C221.359 256.887 218.614 253.514 217.155 252.355C216.312 251.685 211.635 249.106 214.444 248.354C214.082 247.841 213.72 247.327 213.359 246.813ZM234.035 205.645C232.277 207.361 230.506 208.321 228.591 209.67C226.912 210.854 227.49 212.213 226.035 213.534C225.068 214.411 222.802 215.305 221.608 215.975C219.481 217.168 217.575 217.395 215.387 216.06C215.982 220.98 212.699 221.365 208.611 222.339C206.662 222.804 205.508 223.515 204.103 221.683C203.141 220.429 202.764 218.159 203.961 217.012C205.862 215.189 210.928 215.818 213.367 214.672C215.218 213.803 217.104 208.905 219.387 210.687C218.209 208.761 219.581 208.242 220.605 206.869C221.727 205.363 222.417 203.603 223.578 202.11C225.784 199.272 229.17 196.417 232.303 194.705C235.06 193.2 236.507 194.266 236.92 197.427C237.128 199.017 237.12 201.385 236.253 202.796C235.976 203.245 235.064 203.251 234.787 203.673C234.306 204.411 234.747 204.95 234.035 205.645ZM266.384 167.487C268.584 169.234 268.37 172.905 268.716 175.405C269.205 178.929 268.85 182.339 268.798 185.928C268.743 189.689 266.945 192.138 266.099 195.663C265.158 199.584 263.944 201.66 261.835 204.95C264.122 205.32 260.717 212.331 260.156 213.239C259.547 214.224 254.632 218.765 256.739 218.765C255.577 220.338 254.311 221.952 253.153 223.481C252.697 224.084 251.897 224.32 251.538 224.745C250.806 225.609 250.762 226.38 250.238 227.388C249.442 228.919 249.181 228.51 248.135 229.62C247.413 230.387 246.94 231.399 246.23 232.134C243.945 234.502 243.654 232.562 242.376 230.739C242.18 231.227 241.833 231.533 241.333 231.657C240.933 229.594 243.687 227.51 244.845 226.256C246.742 224.201 248.476 221.937 250.153 219.69C253.745 214.876 256.972 209.761 259.519 204.282C262.228 198.45 264.393 192.14 265.517 185.778C266.374 180.929 267.188 172.612 260.874 171.378C256.282 170.482 251.22 173.345 247.434 175.663C245.127 177.075 242.808 178.479 240.61 180.067C238.225 181.789 236.163 184.227 233.574 185.609C234.99 184.853 230.317 187.128 231.033 186.488C230.698 186.787 230.987 187.701 230.765 188.113C230.477 188.649 229.474 189.179 229.025 189.526C227.837 190.441 225.939 191.378 225.399 192.89C217.865 187.374 232.848 177.583 236.688 175.089C244.307 170.143 257.563 160.479 266.384 167.487ZM286.707 113.846C286.635 109.874 289.787 104.452 291.916 101.213C292.957 99.628 294.621 99.6911 295.231 97.8214C295.583 96.7447 295.122 95.6158 295.226 94.5347C295.368 93.0728 295.986 91.9003 296.698 90.6437C303.141 79.2839 310.97 69.2295 319.308 59.3186C323.419 54.4329 327.317 49.3592 331.751 44.7694C333.603 42.8526 338.581 35.9614 341.429 36.6507C342.937 37.0156 343.815 39.3773 344.496 40.5824C345.621 42.5754 346.859 44.4422 348.227 46.2749C351.838 51.1135 356.003 55.3608 360.922 58.7904C363.993 60.9337 367.097 63.0167 370.1 65.2622C372.573 67.1102 376.311 69.2229 378.076 71.8175C379.842 74.4127 377.249 76.6103 375.831 78.7652C373.628 82.1164 371.602 85.5889 369.39 88.9365C368.511 88.2878 368.738 86.9703 368.135 86.1395C367.601 85.4031 366.845 85.1035 366.107 84.6486C364.692 83.7786 363.303 82.715 362.026 84.1726C359.79 86.7236 362.864 92.7535 366.179 92.0918C366.569 94.6095 359.951 98.7559 358.292 100.142C353.201 104.392 347.95 108.087 341.226 108.472C338.504 108.627 335.673 108.415 333.087 107.48C331.848 107.033 330.479 106.418 329.529 105.442C328.392 104.274 328.102 102.536 327 101.379C326.043 100.376 324.729 100.221 323.773 99.2144C322.816 98.2067 322.343 96.6148 321.955 95.3096C321.195 92.7593 321.052 90.0698 320.322 87.5137C319.883 85.9763 319.523 83.9209 318.091 85.398C316.012 87.5442 317.056 94.2924 317.588 96.8637C318.35 100.532 320.135 103.489 322.005 106.645C324.033 110.069 324.782 113.245 325.145 117.206C325.825 124.622 327.899 131.738 331.126 138.41C332.484 141.219 334.111 143.861 335.577 146.606C336.262 147.886 337.797 152.255 339.66 152.232C342.637 152.195 338.397 143.287 337.809 141.792C334.548 133.51 331.433 124.805 330.735 115.837C335.409 117.073 340.504 118.245 345.344 117.462C342.22 124.632 345.483 131.771 345.084 139.151C344.885 142.852 344.74 146.266 344.815 149.956C344.88 153.192 343.456 156.427 342.225 159.353C339.781 165.164 336.703 172.332 332.162 176.783C328.366 180.504 323.288 180.795 318.328 179.938C307.046 177.988 299.632 169.088 294.897 158.98C291.855 152.486 289.53 145.554 288.086 138.502C286.414 130.341 286.856 122.124 286.707 113.846ZM301.36 58.842C290.831 51.0243 306.131 42.1466 313.919 43.3554C315.746 43.6383 319.107 44.4132 318.936 46.8597C318.796 48.8593 315.546 51.0881 314.298 52.3223C310.739 55.844 307.118 63.1161 301.36 58.842ZM377.955 232.548C377.594 232.215 374.647 233.031 375.814 231.242C376.784 229.755 379.474 231.618 380.451 232.001C379.646 232.572 378.945 233.456 377.955 232.548ZM334.113 327.099C333.208 327.214 332.262 324.709 335.524 326.58C335.054 326.753 334.583 326.926 334.113 327.099ZM334.02 367.918C334.132 369.041 334.466 369.781 333.689 370.597C333.033 369.766 332.948 368.595 334.02 367.918ZM335.344 384.784C335.248 385.395 335.152 386.006 335.057 386.616C334.303 386.225 333.551 385.834 332.797 385.442C333.646 385.223 334.495 385.004 335.344 384.784ZM336.266 370.562C337.389 370.993 336.866 369.615 337.681 369.422C337.973 370.856 337.613 372.084 336.811 373.268C336.735 372.988 336.323 370.583 336.266 370.562ZM364.96 268.788C363.385 268.581 363.146 270.289 361.972 270.952C361.214 271.38 358.906 271.058 358.476 271.878C359.044 272.046 359.613 272.215 360.182 272.383C358.88 273.103 357.579 273.823 356.277 274.543C359.408 274.543 362.67 273.009 365.779 273.459C367.094 273.65 368.058 274.106 368.882 275.203C369.382 275.869 369.822 276.94 369.903 277.756C369.99 278.638 369.32 279.248 369.438 279.668C370.84 279.708 370.674 282.066 370.36 283.028C369.677 285.112 366.967 288.376 364.539 287.054C365.555 288.534 365.296 289.378 363.793 290.237C363.93 289.748 364.03 288.892 363.262 288.977C363.065 289.797 363.141 291.097 362.488 291.715C361.758 292.407 361.106 291.598 360.407 292.048C359.58 292.582 359.828 293.42 359.177 293.999C358.316 294.764 358.193 294.22 357.164 294.369C355.605 294.596 356.599 293.602 355.351 294.897C354.919 295.344 354.992 296.507 354.292 297.162C352.947 298.418 349.359 299.727 348.07 298.116C344.973 303.153 335.689 304.362 331.368 300.385C324.475 294.043 337.326 281.146 341.569 277.058C345.828 272.956 350.558 269.412 355.344 265.992C358.063 264.049 360.854 262.285 363.703 260.554C365.461 259.485 367.668 257.534 369.828 257.722C371.765 257.89 373.42 259.432 375.46 259.738C376.935 259.958 379.801 260.323 377.94 262.376C377.069 263.335 373.652 264.886 372.488 265.12C371.804 265.257 371.084 264.994 370.406 265.137C369.259 265.378 368.472 266.371 367.224 266.245C367.619 268.145 366.898 269.04 364.96 268.788ZM385.357 198.244C385.358 199.73 382.714 199.359 382.161 198.855C381.252 198.024 381.22 195.54 380.883 194.41C382.42 194.807 385.356 196.259 385.357 198.244ZM364.056 149.199C369.61 144.514 375.45 140.219 381.624 136.436C383.835 135.081 386.956 132.349 389.703 132.69C390.854 132.834 393.236 134.191 392.368 135.688C392.206 135.968 390.924 136.08 390.528 136.284C390.079 136.514 389.727 137.148 389.311 137.461C386.426 139.633 382.96 140.967 380.066 143.191C377.688 145.017 375.47 147.06 372.91 148.627C370.454 150.13 367.887 151.081 365.555 152.745C365.601 152.712 362.522 153.848 363.126 154.055C360.423 153.127 363.278 149.855 364.056 149.199ZM401.089 147.454C404.388 146.104 407.617 144.467 411.071 143.56C412.795 143.107 414.565 142.767 416.349 142.971C416.653 142.426 417.056 142.305 417.561 142.609C417.955 143.231 418.474 143.707 419.119 144.04C420.103 144.817 423.726 145.832 423.002 147.546C422.524 148.68 418.89 148.774 417.893 149.029C414.888 149.797 412.085 151.526 408.989 151.95C408.698 151.99 407.75 151.629 407.739 151.631C406.531 151.901 405.525 153.188 404.487 153.805C402.253 155.132 399.043 155.354 397.439 157.645C402.634 161.259 407.141 157.675 411.709 154.946C414.445 153.312 417.382 152.133 420.372 151.085C421.935 150.538 423.511 149.969 425.095 149.489C425.751 149.244 426.424 149.067 427.116 148.959C427.759 148.828 428.22 149.068 428.497 149.681C430.412 149.615 430.576 148.383 431.729 150.682C433.353 153.924 430.867 153.759 428.531 154.157C425.292 154.709 421.997 155.951 418.805 156.774C418.069 156.964 411.613 158.5 411.605 158.555C411.312 160.646 429.841 158.709 431.432 158.396C434.238 157.841 437.249 156.268 440.155 156.647C442.386 156.938 447.469 160.297 443.91 162.529C443.209 159.087 440.804 161.93 439.548 163.091C437.875 164.638 435.479 164.489 433.184 165.095C430.047 165.922 422.014 169.026 419.785 165.068C420.49 168.537 407.686 166.774 405.925 166.66C404.209 166.547 401.994 166.921 400.336 166.419C399.254 166.092 398.652 165.37 397.634 165.208C397.384 165.483 397.085 165.671 396.738 165.771C396.221 165.503 395.755 165.162 395.34 164.749C391.911 163.132 386.605 162.238 388.511 157.086C390.308 152.227 396.73 149.237 401.089 147.454ZM433.23 150.457C433.315 150.154 433.401 149.852 433.486 149.549C433.496 150.476 435.653 150.873 435.404 152.075C434.851 154.737 432.363 150.737 432.149 150.301C432.51 150.353 432.869 150.405 433.23 150.457ZM446.396 154.88C446.645 155.97 449.513 158.292 448.803 158.827C447.672 157.25 444.547 157.966 446.396 154.88ZM398.023 254.38C399.073 252.243 402.247 255.882 401.912 252.234C403.637 252.394 402.56 253.741 404.628 253.149C405.403 252.927 405.927 252.046 406.871 251.843C407.123 251.788 408.211 251.877 408.587 251.865C409.83 251.826 414.705 251.684 411.35 250.01C413.228 248.736 413.459 249.382 415.154 250.55C414.719 248.137 417.212 249.506 418.373 249.807C417.545 248.431 419.6 246.967 420.267 246.037C420.028 247.47 420.154 249.074 422.174 248.158C422.678 247.93 422.565 246.917 422.964 246.752C423.695 246.449 424.104 247 424.366 246.968C424.624 246.939 425.168 247.087 425.71 246.878C426.415 246.606 426.075 245.635 426.969 245.491C427.551 245.397 427.976 246.275 428.686 246.282C429.051 246.286 429.66 245.906 429.937 245.926C429.986 245.929 430.333 245.07 430.759 245.049C431.383 245.018 431.637 246.733 431.864 247.066C432.956 248.655 434.407 249.691 436.082 250.538C433.053 253.388 426.943 253.086 423.134 254.047C421.071 254.568 419.311 255.319 417.423 256.287C416.968 256.591 416.575 256.963 416.247 257.405C415.98 257.223 415.712 257.041 415.445 256.859C414.41 256.924 413.432 256.399 412.267 256.601C408.671 257.223 405.855 259.988 402.199 260.604C400.557 260.881 399.207 261.268 398.137 259.807C397.199 258.526 397.354 255.742 398.023 254.38ZM393.091 237.349C393.907 238.057 392.926 240.36 394.504 240.109C395.624 239.931 395.401 238.149 396.28 237.771C397.435 237.275 398.133 238.451 399.219 238.343C401.243 238.138 401.127 236.324 399.416 235.527C401.195 235.046 401.765 237.203 403.339 237.184C405.407 237.158 404.914 234.655 406.673 234.24C407.436 234.06 407.181 235.208 407.675 235.351C408.665 235.636 409.355 235.147 410.23 234.716C411.013 234.33 411.571 233.586 412.427 233.333C412.817 233.218 413.807 233.429 414.092 233.215C414.669 232.784 415.185 231.105 415.752 230.883C415.636 230.928 417.495 231.885 417.762 231.975C417.599 232.683 417.22 232.768 416.626 232.228C416.626 233.828 420.959 234.326 420.07 232.349C422.413 233.344 420.668 233.857 420.434 235.246C420.341 235.805 420.024 235.789 420.118 236.38C420.161 236.652 421.39 236.418 421.374 236.788C421.271 239.176 413.855 239.91 412.45 240.121C409.541 240.557 406.789 241.29 403.985 242.194C401.897 242.866 398.298 244.793 396.076 244.673C392.881 244.501 392.465 240.223 393.091 237.349ZM385.953 212.984C385.173 210.328 387.673 204.842 390.928 205.527C391.728 205.696 391.926 206.376 392.546 206.678C393.413 207.1 394.823 206.878 395.574 207.314C397.259 208.293 396.41 210.787 398.099 211.688C395.433 212.351 387.191 217.206 385.953 212.984ZM389.037 223.304C390.185 222.671 392.047 222.59 392.83 221.372C393.22 221.649 393.957 223.331 394.657 223.074C394.983 222.954 395.321 222.042 395.297 222.043C395.92 222.025 396.044 221.159 396.996 221.256C397.87 221.346 398.849 222.424 399.627 222.826C399.494 220.153 400.161 219.898 402.273 218.467C402.736 218.154 403.123 216.977 403.55 216.501C403.141 219.306 404.171 219.321 406.354 219.743C409.09 220.271 410.795 221.779 411.891 224.491C409.56 224.025 406.552 224.586 405.633 227.158C403.772 223.669 397.008 228.484 394.82 229.47C393.196 230.202 391.307 231.186 389.945 229.48C388.986 228.279 389.536 226.833 389.556 225.766C389.562 225.431 389.899 225.411 389.868 224.912C389.828 224.275 389.02 224.02 389.037 223.304ZM413.932 278.17C413.316 278.41 410.146 278.544 410.126 277.466C410.109 276.514 415.72 277.474 413.932 278.17ZM408.783 274.685C406.385 276.202 403.702 270.856 402.82 269.316C405.336 269.647 406.564 267.487 408.046 265.846C409.456 269.016 411.596 267.341 413.848 266.282C416.504 265.034 419.414 265.024 422.135 264.022C422.984 263.71 423.767 263.244 424.595 262.887C425.263 262.631 425.928 262.368 426.591 262.099C427.061 261.663 427.228 261.127 427.091 260.492C426.868 259.958 427.02 259.62 427.547 259.481C428.174 259.673 428.813 259.784 429.466 259.814C430.515 259.601 432.021 258.586 430.756 257.492C432.112 256.228 433.47 257.484 434.776 258.038C434.465 257.13 434.156 256.223 433.846 255.315C434.494 255.597 436.417 258.354 436.613 258.339C437.856 258.243 437.726 256.532 438.44 255.841C438.853 256.363 438.971 260.252 440.591 258.942C441.284 258.382 439.792 256.474 439.425 256.039C441.278 256.469 442.897 258.74 443.398 260.503C442.518 260.633 441.704 260.452 440.957 259.957C440.479 262.412 444.908 261.418 445.624 262.7C447.029 265.211 437.895 266.956 436.705 267.188C434.324 267.654 431.514 267.828 429.331 268.911C427.24 269.948 426.745 270.244 424.301 270.439C421.512 270.661 418.791 271.604 416.093 272.338C413.75 272.975 410.86 273.371 408.783 274.685ZM459.76 184.797C461.963 183.984 469.381 179.763 471.269 181.64C471.07 181.442 472.631 184.752 472.615 184.543C472.749 186.265 472.708 186.958 470.643 187.783C469.164 188.373 467.876 187.118 466.545 187.617C465.083 188.164 466.106 189.134 465.354 189.811C464.529 190.553 462.94 190.874 461.914 191.199C459.402 191.995 456.871 192.66 454.372 193.517C449.286 195.262 443.901 196.886 438.674 198.12C434.769 199.042 428.14 201.334 424.541 198.627C424.189 200.166 423.331 199.956 422.139 200.18C421.204 200.356 419.512 200.831 418.681 200.856C417.297 200.897 413.45 200.525 413.98 198.533C413.834 199.082 416.972 197.204 416.429 197.087C417.762 197.375 417.33 196.687 418.421 196.304C419.848 195.804 421.338 195.83 422.794 195.301C426.464 193.966 429.542 192.233 433.416 191.397C442.265 189.486 451.224 187.95 459.76 184.797ZM105.045 390.554C104.328 390.573 103.77 388.483 105.951 389.975C105.649 390.168 105.347 390.361 105.045 390.554ZM87.8144 387.849C86.8394 388.105 86.4505 387.546 86.6492 386.174C88.0088 385.623 88.3969 386.181 87.8144 387.849ZM74.5123 385.049C74.2627 383.826 75.1465 383.55 75.9475 383.001C75.8669 384.622 75.8669 384.622 74.5123 385.049ZM41.0428 374.983C39.6945 374.679 37.8979 373.326 37.589 375.597C37.3634 375.071 36.2124 372.597 36.7066 372.025C36.9647 371.725 37.9418 373.111 37.8378 372.974C39.0179 370.524 41.052 373.48 42.1889 374.355C41.8071 374.564 41.4246 374.774 41.0428 374.983ZM391.6 104.288C392.065 103.278 392.615 102.957 393.246 103.327C392.254 105.689 388.897 106.97 391.6 104.288ZM414.925 82.1128C415.757 83.7126 414.506 84.3888 413.613 85.7187C414.135 84.2843 414.497 83.2904 414.925 82.1128ZM516.299 238.28C519.298 238.279 525.687 236.655 527.495 240.173C528.692 237.782 530.053 242.266 531.091 242.985C531.208 243.066 531.956 242.479 532.304 242.695C532.828 243.021 533.281 243.908 533.581 244.436C534.487 246.026 534.877 247.917 535.379 249.667C530.14 249.667 524.769 248.415 519.535 247.96C516.099 247.661 512.731 247.653 509.291 247.843C508.607 247.88 507.249 247.649 506.665 247.781C506.071 247.915 504.994 249.157 504.339 248.957C505.357 250.917 518.387 255.661 519.381 253.491C518.203 252.76 515.587 252.198 515.589 250.431C515.591 248.451 518.043 248.454 519.342 248.512C522.185 248.64 526.944 249.611 528.11 252.644C528.609 253.944 528.762 257.217 528.214 258.473C527.859 259.283 527.26 260.257 526.31 260.422C525.92 260.49 525.359 259.958 525.299 259.971C523.349 260.395 519.74 262.002 517.613 259.736C516.079 261.773 508.692 259.549 506.431 258.78C502.475 257.436 497.029 255.591 494.627 251.804C491.698 247.188 497.652 243.287 501.071 241.411C505.743 238.847 511.082 238.282 516.299 238.28ZM536.259 248.953C537.179 249.219 538.098 249.486 539.017 249.752C538.771 251.407 535.144 250.098 536.259 248.953ZM564.052 309.083C564.334 302.455 562.467 296.618 561.389 290.208C561.122 288.619 561.395 285.841 560.218 284.535C559.095 283.285 556.587 284.301 556.487 282.092C555.381 283.422 555.492 283.7 554.128 282.171C554.377 282.827 554.413 283.493 554.237 284.173C553.39 283.675 550.323 282.022 550.581 284.282C548.059 283.71 548.79 282.091 547.351 280.855C547.146 280.68 546.326 281.303 546.005 281.037C545.427 280.556 545.141 280.12 544.653 279.5C544.033 280.269 543.188 280.825 542.431 281.433C541.99 280.448 541.132 279.726 540.102 279.486C541.065 281.556 543.448 284.236 540.18 285.413C538.229 286.116 535.034 285.254 532.968 285.418C525.311 286.028 516.924 284.315 509.521 282.443C501.916 280.52 494.224 277.806 487.385 273.839C485.927 272.993 485.008 271.991 483.753 270.942C482.532 269.922 481.645 269.761 480.178 269.109C477.537 267.935 475.122 266.052 473.113 263.954C468.794 259.442 464.781 253.541 465.983 246.935C467.183 240.351 471.593 235.205 476.313 230.87C481.886 225.749 488.179 221.473 494.858 218.026C497.844 216.486 505.483 210.697 508.434 214.084C510.319 216.248 509.259 219.008 506.682 219.49C506.047 219.608 505.383 219.171 504.74 219.471C503.814 219.903 504.14 220.414 503.757 220.774C503.093 221.401 502.388 222.377 501.396 222.92C497.934 224.814 494.586 226.315 491.277 228.623C489.751 229.685 488.283 230.143 486.938 231.071C485.6 231.993 485.296 233.519 483.497 232.577C484.138 235.262 480.292 238.137 478.784 239.781C476.449 242.328 473.649 245.578 474.739 249.346C476.872 256.722 486.509 262.324 492.677 265.566C500.373 269.612 508.861 272.832 517.431 274.165C521.692 274.828 526.095 275.237 530.388 275.657C533.73 275.984 538.859 274.786 541.263 277.875C541.337 274.273 552.299 274.591 554.632 274.13C549.955 257.722 540.77 243.134 530.95 229.504C526.131 222.813 521.398 215.932 515.906 209.799C509.892 203.084 503.021 197.083 496.493 190.904C483.688 178.785 469.207 167.97 454.471 158.442C439.769 148.937 424.543 139.582 408.436 132.805C390.04 125.065 370.672 119.973 351.283 115.638C353.913 112.199 358.192 110.521 361.559 108.005C362.739 107.124 364.332 105.01 365.864 104.721C367.522 104.408 368.828 106.239 370.009 107.158C373.398 109.796 375.742 108.676 379.623 108.517C381.946 108.422 387.446 109.749 388.425 106.526C389.727 108.305 387.839 109.731 386.872 111.036C387.576 112.043 388.143 110.998 388.838 110.84C389.052 110.658 389.266 110.475 389.48 110.293C389.825 109.781 390.136 109.778 390.412 110.283C390.827 110.923 391.244 110.782 391.664 109.858C391.779 109.784 391.894 109.709 392.009 109.635C392.511 109.361 392.995 108.927 393.462 108.585C396.989 105.999 400.133 103.795 404.026 101.89C407.296 100.291 405.538 97.2315 407.694 95.0709C408.182 94.5819 409.002 94.8271 409.524 94.4128C410.035 94.0058 410.112 93.5444 410.484 93.1083C411.38 92.0599 410.314 90.8432 412.599 92.1267L411.775 87.3664C416.255 91.827 416.237 78.9908 416.85 77.0914C416.769 77.3424 417.252 75.3987 417.251 75.4154C417.383 71.5635 417.895 68.7716 413.499 68.5482C415.164 67.4737 415.673 69.5719 416.441 67.3997C416.826 66.3113 415.624 64.4409 417.539 65.1425C417.943 62.8295 417.544 60.9576 417.042 58.7099C416.527 56.4092 416.83 54.874 416.853 52.5733C416.879 49.9636 415.689 47.3407 415.308 44.7709C415.009 42.7583 415.317 39.584 412.781 40.3234C412.425 39.7509 413.677 37.99 413.626 37.1194C413.547 35.767 412.117 34.3928 411.712 33.0941C411.116 33.7253 410.276 33.9357 409.465 33.6506C410.226 31.8861 409.511 31.2933 408.783 29.7719C408.365 28.9005 408.617 27.9385 407.723 27.3138C407.21 26.9553 406.336 27.559 405.935 27.1389C405.073 26.2392 405.392 25.0457 404.799 23.8602C404.056 22.3736 402.358 21.2381 401.189 20.1222C394.613 13.85 387.47 9.05637 378.723 6.6055C369.899 4.13288 359.611 3.247 350.816 6.09908C347.301 7.2389 344.18 7.12209 341.016 9.25081C339.99 9.94152 339.879 9.75651 339.358 10.9079C339.238 11.1764 340.331 11.891 339.662 12.33C338.935 12.8067 338.132 11.8373 337.762 11.0327C333.185 14.4326 328.896 18.965 326.289 24.162C323.698 29.3264 323.461 35.3933 322.472 41.0054C317.909 35.6567 311.738 33.0927 305.029 35.664C299.181 37.9044 294.65 42.8294 293.506 49.2097C292.808 53.0993 293.57 57.0383 295.292 60.5477C296.036 62.0641 296.938 63.743 298.307 64.7638C299.389 65.5706 301.243 65.4574 301.753 66.9128C302.534 69.1424 298.022 73.9578 296.85 75.9095C294.731 79.4414 292.762 83.0887 291.263 86.9463C285.889 79.1562 280.745 70.6479 274.634 63.4651C268.867 56.6857 261.992 50.6057 255.249 44.8754C241.254 32.9824 226.701 21.8091 211.046 12.3343C196.47 3.51182 178.862 -1.38628 161.873 0.345575C145.274 2.03825 132.566 12.811 121.872 25.2358C101.31 49.1256 88.7165 83.1757 87.4863 114.977C87.1165 124.53 87.8257 133.958 90.1249 143.224C91.2201 147.636 91.061 151.975 91.6974 156.444C92.4157 161.485 93.658 166.508 94.8592 171.446C99.4351 190.257 105.265 209.053 111.807 227.241C115.209 236.699 119.325 245.945 124.892 254.285C127.464 258.138 130.795 261.152 133.563 264.81C136.247 268.358 136.957 272.713 137.547 277.066C138.962 287.504 139.901 297.987 140.753 308.486C141.114 312.936 141.536 317.346 142.11 321.765C142.611 325.617 141.351 325.428 138.193 326.736C138.834 323.275 123.744 325.63 122.32 325.866C120.769 326.123 119.127 326.127 117.906 326.331C116.541 326.559 115.205 326.889 113.632 326.843C111.321 326.775 106.993 326.169 106.111 329.196C105.504 325.686 101.492 329.524 104.46 328.873C101.413 329.223 98.3046 328.641 95.2212 328.935C91.6875 329.272 88.1233 329.593 84.6143 330.138C82.1715 330.518 79.8405 331.483 77.3934 331.763C74.262 332.123 70.9941 332.089 67.8322 332.375C56.1698 333.431 44.0816 336.041 32.7451 339.03C30.1772 339.707 27.2267 340.188 24.7733 341.275C24.1165 341.565 23.5254 342.215 22.8962 342.465C21.8413 342.883 21.9855 342.594 21.0487 342.786C15.4356 343.937 9.64497 345.818 4.03256 347.293C0.919497 348.113 -4.14426 348.851 -6.68392 351.081C-7.82224 352.079 -8.81703 353.85 -6.99289 354.985C-5.5357 355.891 -3.45561 354.444 -2.27628 353.662C-3.32693 356.472 -5.30874 357.873 -4.2383 361.069C-3.39339 363.596 -1.48582 366.709 1.44906 365.079C1.84217 366.017 2.00126 367.883 3.15867 368.228C4.19871 368.538 4.9517 367.186 5.97053 367.504C6.33536 367.618 6.19678 368.325 6.52343 368.51C7.08623 368.828 7.6568 368.963 8.30161 369.187C8.85592 369.38 9.7482 369.776 10.3265 369.818C10.6935 369.845 11.5582 369.201 11.5554 369.201C12.3982 369.332 12.8514 370.987 13.458 371.465C14.2456 372.087 14.8961 372.228 15.8824 372.453C17.9328 372.92 20.5757 373.721 21.9289 371.567C21.6193 373.105 23.6576 372.954 24.557 373.149C24.4573 372.339 24.021 371.597 23.3479 371.152C25.3587 371.288 24.5435 373.339 26.0297 373.881C27.0888 374.267 26.9687 373.287 27.7789 373.178C28.8465 373.035 29.6568 373.831 31.324 373.097C31.6853 374.745 31.8175 376.406 33.7894 376.652C34.9468 376.797 37.6455 374.652 37.4928 376.437C40.0784 375.659 41.0598 376.185 42.4109 378.523C42.6393 377.088 43.7444 377.504 44.7583 377.416C46.3653 377.275 46.4064 377.408 47.6521 376.474C47.766 376.389 48.7459 374.085 49.1815 375.517C49.3773 376.158 48.0827 377.667 47.6034 378.051C48.1987 378.36 50.1494 379.442 50.8995 379.243C51.5486 379.071 51.5507 377.933 52.3306 377.874C52.1397 378.529 51.9495 379.184 51.7579 379.838C53.2752 380.065 54.5429 379.023 55.7413 378.259C56.8839 381.224 60.1496 379.554 61.9257 381.785C62.8653 382.965 62.9092 383.862 64.6994 384.17C66.5313 384.486 68.1313 383.661 69.6882 385.211C69.1947 384.249 67.9652 383.451 69.1869 382.417C70.0184 383.628 70.4475 385.087 71.4063 386.213C71.5385 385.64 71.6707 385.068 71.8029 384.495C74.3023 387.238 77.4486 387.262 80.65 388.783V386.775C82.9422 390.365 83.0645 388.093 85.8028 386.627C85.6169 387.683 85.4302 388.738 85.2443 389.793C87.2148 389.641 89.0559 392.037 90.6736 390.001C91.6507 391.683 92.835 390.855 94.4364 391.389C95.3471 391.693 96.0251 392.613 96.911 392.946C98.2395 393.446 98.6362 393.422 99.8869 393.857C100.999 394.243 101.631 394.995 103.023 395.235C103.928 395.392 104.748 395.381 105.613 395.338C105.948 395.321 105.837 394.549 106.58 394.729C107.729 395.008 108.585 396.487 109.412 397.245C110.656 394.035 114.141 398.335 115.825 398.907C115.986 398.085 115.957 397.093 116.537 396.417C117.219 397.949 117.479 399.237 118.894 400.224C119.711 400.793 120.91 401.201 121.853 401.409C122.449 401.54 123.532 401.383 123.907 401.572C124.546 401.893 124.781 402.751 125.427 402.832C125.807 402.879 126.369 401.854 126.654 401.934C127.955 402.298 128.677 403.919 129.991 404.797C133.9 407.406 138.82 407.66 143.175 408.232C144.268 408.375 144.426 408.069 145.314 408.727C145.788 409.079 145.573 410.148 146.156 410.448C148.351 411.577 148.352 409.168 148.813 407.671C149.539 408.654 149.664 409.952 150.657 410.734C151.2 410.718 151.743 410.731 152.284 410.772C152.59 411.13 152.791 411.543 152.884 412.011C154.199 412.922 155.689 412.605 157.047 413.289C157.492 413.513 158.281 414.869 158.83 415.259C159.812 415.957 161.331 416.33 162.453 416.633C164.806 417.269 168.18 416.424 169.58 418.945C171.438 416.901 170.719 419.342 171.981 419.855C172.727 420.158 173.847 418.954 174.674 419.074C176.162 419.288 176.698 420.942 177.175 422.144C178.081 421.937 177.459 419.305 177.433 418.728C178.56 418.592 178.81 421.636 179.004 422.305C180.783 421.426 177.864 418.691 179.776 417.814C179.6 420.144 181.41 422.062 178.179 422.396C178.625 423.799 189.046 425.358 189.77 424.119C189.931 426.409 191.43 424.27 191.983 423.486C192.045 424.822 191.602 426.718 193.062 427.339C194.055 427.761 196.293 426.67 196.683 425.672C197.128 427.197 197.873 427.147 198.799 428.116C199.436 428.781 199.855 429.935 200.522 430.492C201.75 431.517 204.035 431.361 205.466 431.131C208.266 430.683 207.935 430.132 208.932 433.119C209.158 431.985 209.865 429.615 211.098 431.377C211.883 432.497 210.212 434.964 209.729 435.948C210.808 435.34 211.879 434.618 213.107 434.356C213.175 434.745 213.238 435.568 213.057 435.927C213.094 435.855 214.403 436.756 214.889 437.005C214.772 436.945 215.273 434.702 215.259 434.775C216.986 435.869 215.788 437.961 217.318 439.04C217.713 439.319 218.641 438.993 219.119 439.163C219.951 439.459 220.67 440.259 221.41 440.727C220.82 439.915 220.905 438.551 220.945 437.613C221.321 437.826 221.59 438.624 221.969 438.687C222.113 438.711 223.601 438.914 223.591 438.906C225.14 440.019 224.821 440.159 223.492 441.498C223.967 442.264 225.953 440.933 226.49 440.711C226.602 441.011 226.631 442.099 226.843 442.294C226.971 442.616 227.1 442.938 227.228 443.26C227.625 442.957 228.05 442.855 228.504 442.956C228.791 443.058 231.032 443.994 231.184 443.674C230.694 443.511 230.249 443.262 229.852 442.926C231.145 441.733 231.996 441.099 233.187 442.821C233.337 443.038 232.822 443.817 232.974 444.1C233.543 445.154 234.713 445.992 235.507 446.85C235.836 445.665 235.071 442.699 236.896 442.807C238.355 442.892 239.464 446.519 238.959 447.646C239.539 446.995 243.001 446.349 243.654 446.552C245.501 447.127 244.983 448.879 247.256 446.311C248.806 447.409 247.44 447.825 247.719 449.162C248.129 449.25 248.516 449.146 248.883 448.851C248.609 454.537 252.698 450.193 255.352 451.061C256.395 451.402 256.661 452.616 257.78 452.971C258.372 453.158 259.03 452.715 259.605 452.823C260.066 452.755 260.524 452.672 260.98 452.572C261.557 452.276 261.827 452.607 261.792 453.568C262.72 454.061 262.369 454.254 263.454 454.35C264.152 454.412 264.795 453.667 265.589 453.794C266.958 454.014 266.777 455.093 267.653 455.657C268.44 456.165 269.328 456.148 270.298 456.05C270.793 456 272.181 455.346 272.347 455.344C273.384 455.329 272.822 455.103 274.066 456.017C275.035 456.729 275.441 457.19 276.631 457.518C277.994 457.893 280.414 458.714 281.332 457.703C282.571 459.609 283.542 458.21 285.178 458.336C286.015 458.401 286.148 458.736 286.893 458.869C288.101 459.086 289.607 458.898 290.892 459.321C292.916 459.989 293.145 460.324 295.214 460.414C295.587 460.265 295.96 460.114 296.333 459.965C296.444 460.604 296.738 461.126 297.214 461.53C298.371 461.779 299.131 461.18 300.086 460.523C300.797 462.796 303.105 462.995 305.079 463.294C308.264 463.776 311.31 464.04 314.381 465.114C316.975 466.021 319.574 467.04 322.069 468.201C324.265 469.223 326.338 470.752 328.822 470.035C334.452 468.408 339.907 462.478 344.617 459.073C350.195 455.041 356.211 451.718 362.04 448.092C385.245 433.658 409.76 421.448 432.639 406.478C445.13 398.304 456.721 388.593 470.135 381.981C468.225 390.078 464.975 398.299 465.562 406.777C465.798 410.193 466.779 414.229 469.361 416.614C472.553 419.563 476.109 417.686 479.162 415.579C485.704 411.065 490.066 404.479 494.963 398.294C500.754 390.978 505.246 383.118 509.498 374.779C510.517 376.247 509.742 378.706 509.757 380.333C509.777 382.409 510.323 384.41 511.261 386.264C513.683 391.048 518.293 392.209 522.458 388.931C530.475 382.622 535.127 371.387 539.422 362.34C541.872 367.016 545.349 372.903 551.232 369.563C556.087 366.807 558.939 360.648 560.424 355.431C564.759 340.204 563.385 324.692 564.052 309.083Z" fill="black"/>
<path fill-rule="evenodd" clip-rule="evenodd" d="M556.689 217.616C556.136 216.236 555.893 216.462 556.911 215.124C557.704 215.926 557.069 216.588 556.689 217.616ZM581.223 301.135C579.667 296.593 580.628 291.661 579.683 287.002C579.249 284.865 578.564 282.791 578.317 280.615C578.207 279.65 577.369 275.303 577.94 274.619C576.184 273.528 576.178 272.72 575.772 270.58C576.398 269.899 576.319 269.318 575.536 268.836C575.024 268.2 574.512 267.564 573.999 266.928C576.24 268.052 574.914 265.175 574.686 263.517C574.505 262.207 574.383 260.84 573.957 259.584C573.433 258.04 572.268 257.26 574.692 257.26C573.894 256.329 572.702 255.368 572.304 254.228C571.733 252.588 572.675 250.42 571.51 248.971C570.86 248.163 567.511 247.846 568.099 246.101C568.398 245.211 569.755 245.875 570.175 245.252C571.826 242.803 566.952 241.787 566.713 240.746C566.403 239.395 568.164 239.093 568.272 237.83C568.377 236.593 566.504 234.562 566.01 233.456C565.335 233.624 564.595 234.719 563.823 234.196C563.677 234.098 563.897 229.818 563.722 229.25C563.549 228.691 563.196 227.209 563.07 226.935C562.571 225.846 561.14 225.316 560.913 224.029C560.777 223.262 563.709 222.099 560.347 222.063C561.555 219.879 559.342 218.552 558.537 216.686C557.502 214.287 556.892 211.695 555.828 209.283C554.795 206.939 553.639 204.715 552.148 202.642C550.799 200.765 550.216 198.96 549.138 196.978C548.922 196.803 548.706 196.629 548.491 196.455C547.591 196.589 547.303 196.169 547.625 195.194C546.937 194.149 546.426 193.033 545.82 191.941C545.115 190.672 544.164 189.637 543.435 188.403C542.469 186.767 542.183 184.922 541.091 183.281C539.748 181.262 538.238 179.481 536.993 177.387C535.433 174.762 533.706 173.131 531.743 171.099C530.809 170.131 530.697 167.714 529.552 166.34C528.306 164.843 527.075 164.437 526.211 162.473C525.087 159.916 523.437 158.696 521.831 156.487C520.506 154.664 519.859 152.57 518.4 150.807C517.145 149.292 515.721 147.909 514.381 146.473C512.689 144.66 511.441 142.456 509.68 140.733C509.934 140.981 508.148 139.529 508.238 139.575C507.843 139.369 506.567 139.202 506.753 139.315C504.096 137.712 500.767 131.846 496.769 134.954C494.665 136.589 495.674 139.587 497.143 141.215C497.773 141.914 501.05 145.362 501.758 143.908C502.522 145.02 504.876 150.393 506.834 148.853C506.634 150.69 507.671 150.08 508.355 151.322C508.806 152.141 508.587 152.543 508.915 153.821C509.818 157.336 513.262 160.768 515.097 163.833C519.664 171.46 524.701 178.695 529.272 186.331C533.628 193.609 538.507 200.515 542.686 207.89C547.439 216.278 553.361 224.195 556.943 233.236C557.063 233.54 558.058 234.021 558.305 234.478C558.736 235.271 558.643 236.642 558.92 237.54C559.881 240.654 561.439 243.72 563.213 246.299C564.77 248.562 564.883 251.637 565.954 254.292C567.465 258.034 569.061 261.736 570.529 265.497C572.813 271.35 574.361 276.959 575.94 283.07C576.963 287.03 577.777 290.988 578.103 295.077C578.402 298.837 578.476 302.754 579.832 306.315C580.757 304.849 581.846 302.95 581.223 301.135Z" fill="black"/>
<path fill-rule="evenodd" clip-rule="evenodd" d="M58.6301 381.714C56.9883 381.374 55.4435 380.92 55.0956 378.985C54.8573 379.897 54.6198 380.81 54.3815 381.722C56.3803 382.186 58.3798 382.651 60.3785 383.115C59.9119 382.272 59.5711 381.909 58.6301 381.714Z" fill="black"/>
<path fill-rule="evenodd" clip-rule="evenodd" d="M26.0022 281.049C26.1815 280.731 26.4136 280.42 26.6998 280.117C26.8942 280.413 27.8474 281.052 27.2924 281.331C26.5857 281.685 25.8709 281.485 26.0022 281.049ZM37.5933 271.91C38.3692 272.052 40.0483 272.08 41.0116 272.199C38.5128 273.09 38.0729 272.828 34.8419 272.725C34.6983 271.823 35.5822 271.544 37.5933 271.91ZM15.9335 294.221C16.2686 294.225 16.6046 294.228 16.9416 294.232C16.962 293.839 16.9376 293.447 16.8663 293.056C20.2734 293.364 18.3448 290.897 17.2746 290.386C20.5983 290.432 22.2173 286.072 23.2702 285.232C24.205 284.486 25.264 284.197 25.9473 283.287C26.545 282.491 27.1916 281.775 28.0541 281.022C30.0356 279.29 32.6353 277.717 32.1557 275.699C33.8348 277.214 35.3113 275.702 36.3764 274.978C38.0922 273.811 42.2783 272.323 42.7233 270.937C43.1164 269.717 40.9291 269.653 42.2203 268.521C43.5257 267.376 44.599 267.491 46.886 267.125C48.4073 266.881 48.7098 267.177 49.783 266.381C50.4785 265.866 50.2331 265.482 51.1241 265.06C51.4917 265.192 51.9102 265.247 52.3786 265.224C53.1016 264.829 53.5761 264.389 53.8012 263.903C54.3907 263.247 54.6758 262.645 55.5638 262.021C56.4059 261.429 57.9007 259.846 58.6929 259.561C59.534 259.258 64.3047 259.412 64.2843 259.423C66.2547 258.396 62.6388 257.373 67.6456 257.59C66.6569 256.827 70.1302 255.88 71.1383 255.455C73.6565 254.396 73.8571 253.906 74.3886 252.573C74.6585 251.894 72.8969 251.972 75.2582 251.817C76.2348 251.754 77.1716 252.271 77.8762 252.195C80.9871 251.861 77.7326 251.925 78.5911 251.399C78.8619 251.233 80.2458 250.56 80.2325 250.567C80.1653 250.601 80.5441 249.982 80.8577 249.823C81.4524 249.802 82.0379 249.759 82.6132 249.694C82.9055 249.449 83.1641 249.199 83.3882 248.942C85.6396 248.164 89.008 247.816 90.565 246.961C91.572 246.408 91.2706 245.867 92.572 245.316C93.8112 244.791 95.4506 245.171 95.696 243.986C96.0087 242.477 92.0985 241.806 90.4988 243.328C86.1609 241.114 68.0295 249.237 65.9349 250.298C56.8366 254.905 47.8941 259.625 40.4312 264.719C33.1597 269.683 27.1916 274.906 22.5269 280.38C20.2775 283.02 18.9079 285.648 17.5343 288.378C17.073 289.292 13.6261 293.367 15.0609 294.279C15.3511 294.26 15.6423 294.24 15.9335 294.221Z" fill="black"/>
<path fill-rule="evenodd" clip-rule="evenodd" d="M442.098 479.352C441.945 479.711 441.747 480.063 441.503 480.407C441.338 480.072 440.526 479.348 440.999 479.032C441.601 478.631 442.21 478.858 442.098 479.352ZM432.224 489.697C431.563 489.537 430.132 489.506 429.312 489.37C431.441 488.362 431.815 488.658 434.568 488.775C434.69 489.795 433.937 490.112 432.224 489.697ZM450.675 464.439C450.389 464.435 450.103 464.431 449.816 464.427C449.799 464.872 449.819 465.315 449.88 465.759C446.978 465.409 448.621 468.202 449.532 468.781C446.701 468.729 445.322 473.665 444.425 474.616C443.629 475.461 442.726 475.788 442.144 476.817C441.635 477.719 441.084 478.53 440.35 479.382C438.662 481.343 436.447 483.123 436.856 485.408C435.425 483.693 434.168 485.405 433.26 486.224C431.799 487.545 428.233 489.23 427.854 490.799C427.519 492.18 429.382 492.253 428.282 493.534C427.17 494.83 426.256 494.7 424.308 495.115C423.012 495.391 422.754 495.055 421.84 495.956C421.247 496.54 421.457 496.974 420.698 497.452C420.384 497.302 420.028 497.24 419.629 497.266C419.013 497.714 418.609 498.212 418.417 498.762C417.915 499.504 417.672 500.186 416.916 500.893C416.198 501.563 414.925 503.354 414.25 503.677C413.533 504.02 409.47 503.846 409.487 503.833C407.809 504.996 410.889 506.154 406.624 505.909C407.466 506.773 404.507 507.845 403.648 508.325C401.503 509.525 401.332 510.08 400.88 511.588C400.65 512.357 402.15 512.268 400.139 512.444C399.307 512.516 398.509 511.93 397.909 512.016C395.259 512.394 398.031 512.322 397.3 512.917C397.069 513.106 395.89 513.867 395.901 513.859C395.959 513.821 395.636 514.522 395.369 514.702C394.862 514.725 394.364 514.774 393.873 514.848C393.624 515.125 393.404 515.409 393.213 515.699C391.295 516.58 388.426 516.974 387.1 517.942C386.242 518.567 386.499 519.18 385.39 519.804C384.334 520.398 382.938 519.968 382.729 521.31C382.463 523.018 385.793 523.778 387.156 522.054C390.851 524.56 406.297 515.365 408.081 514.164C415.831 508.949 423.449 503.605 429.806 497.838C436.001 492.219 441.084 486.306 445.058 480.109C446.974 477.12 448.141 474.145 449.311 471.054C449.704 470.019 452.64 465.407 451.418 464.374C451.171 464.396 450.923 464.418 450.675 464.439Z" fill="black"/>
<path fill-rule="evenodd" clip-rule="evenodd" d="M553.303 281.168C554.367 280.44 554.367 280.44 554.553 279.063C553.127 279.33 553.127 279.33 553.303 281.168Z" fill="black"/>
<path fill-rule="evenodd" clip-rule="evenodd" d="M28.8011 373.764C28.8146 373.763 28.8246 373.766 28.8325 373.774C28.8096 373.745 28.7268 373.659 28.8011 373.764Z" fill="black"/>
<path fill-rule="evenodd" clip-rule="evenodd" d="M28.0868 374.503C28.4156 375.232 28.9437 375.414 29.672 375.046C29.959 375.467 27.1818 372.42 28.0868 374.503Z" fill="black"/>
<path fill-rule="evenodd" clip-rule="evenodd" d="M76.1125 41.7034C74.446 45.0556 76.5332 42.6174 76.4264 43.7063C76.4964 42.991 76.7856 41.9718 76.1125 41.7034Z" fill="black"/>
<path fill-rule="evenodd" clip-rule="evenodd" d="M347.041 93.5947C347.763 99.6065 355.778 96.7631 357.58 93.1267C358.893 90.4792 362.209 80.0177 358.642 77.8077C355.997 76.1695 355.432 83.2304 354.781 84.8077C353.688 87.4494 352.835 85.5775 350.406 86.2551C347.726 87.0032 346.742 91.1017 347.041 93.5947Z" fill="black"/>
<path fill-rule="evenodd" clip-rule="evenodd" d="M338.284 82.5905C341.149 83.2435 343.957 82.9068 345.992 80.5852C347.119 79.2995 348.618 76.7493 346.589 75.5051C344.75 74.3783 342.665 77.0171 340.729 76.4715C338.095 75.7293 339.451 72.8315 338.547 70.9176C335.227 72.8794 333.375 81.4718 338.284 82.5905Z" fill="black"/>
<path fill-rule="evenodd" clip-rule="evenodd" d="M341.254 97.7706C338.492 97.7648 338.47 101.25 339.911 102.744C341.291 104.174 344.779 105.62 346.649 104.509C350.339 102.315 343.489 97.997 341.254 97.7706Z" fill="black"/>
<path fill-rule="evenodd" clip-rule="evenodd" d="M180.568 236.375C181.158 236.669 182.896 238.181 183.628 237.498C182.594 236.429 181.56 235.361 180.526 234.292C179.955 234.935 179.563 235.874 180.568 236.375Z" fill="black"/>
<path fill-rule="evenodd" clip-rule="evenodd" d="M167.517 83.4601C167.224 83.6851 166.929 83.9093 166.636 84.1335C167.627 84.9804 167.602 85.2323 168.6 84.4304C168.304 84.0298 167.943 83.7068 167.517 83.4601Z" fill="black"/>
<path fill-rule="evenodd" clip-rule="evenodd" d="M354.689 282.921C354.134 281.898 353.085 283.785 352.376 284.092C351.222 284.59 350.276 281.949 350.607 285.115C347.998 283.889 346.415 286.701 344.733 288.165C342.357 290.234 339.45 291.357 337.865 294.295C345.327 296.087 353.525 289.486 359.088 285.15C359.996 284.441 364.534 280.869 361.458 280.524C360.2 280.383 355.622 284.641 354.689 282.921Z" fill="black"/>
<path fill-rule="evenodd" clip-rule="evenodd" d="M352.476 276.723C353.938 275.542 350.786 275.434 350.287 275.31C350.33 276.25 350.372 277.189 350.415 278.128C351.121 277.689 351.808 277.22 352.476 276.723Z" fill="black"/>
<path fill-rule="evenodd" clip-rule="evenodd" d="M346.986 280.663C347.422 280.383 348.641 279.509 347.812 278.857C347.063 279.346 346.528 280.144 346.411 281.055C346.602 280.924 346.794 280.794 346.986 280.663Z" fill="black"/>
<path fill-rule="evenodd" clip-rule="evenodd" d="M226.145 204.476C225.211 204.852 224.793 205.446 224.891 206.26C226.326 205.959 226.053 204.568 226.145 204.476Z" fill="black"/>
</svg>
