<svg width="720" height="512" viewBox="0 0 720 512" fill="none" xmlns="http://www.w3.org/2000/svg">
<path fill-rule="evenodd" clip-rule="evenodd" d="M491.328 194.667C485.661 204.619 479.674 214.306 473.629 224.078C470.429 229.25 460.108 250.644 457.442 251.461C454.572 252.341 436.988 243.053 431.942 241.234C422.974 238 414.453 234.939 405.085 232.945C394.596 230.713 384.024 229.067 373.144 229.896C368.379 230.26 360.492 231.295 365.228 225.282C368.68 220.897 372.024 216.86 376.713 213.692C380.126 211.386 385.129 207.156 389.125 205.616C393.317 203.999 399.501 204.358 404.007 204.453C408.877 204.556 432.094 211.063 433.371 204.281C435.739 206.217 437.119 205.468 439.832 206.413C442.89 207.479 444.797 209.547 447.834 210.796C449.804 211.606 453.436 214.811 455.627 214.83C458.538 214.856 459.322 212.69 461.413 211.091C466.098 207.509 472.335 205.151 477.419 202.038C481.894 199.296 486.156 196.438 491.328 194.667ZM440.322 116C439.924 120.543 441.289 124.765 441.256 129.44C441.242 131.48 441.139 133.519 441.829 135.484C442.448 137.246 442.015 140.411 442.344 142.256C436.55 140.672 425.786 138.322 419.871 140.458C414.216 142.501 413.505 151.946 413.305 156.539C413.17 159.67 414.717 164.493 413.544 167.491C412.997 168.889 412.993 169.34 413.027 169.466L413.031 169.479C412.919 169.428 412.465 169.429 410.864 170.466C409.276 171.494 407.381 172.062 405.812 173.197C402.959 175.264 402.47 177.607 401.062 180.604C399.695 183.515 396.051 186.101 391.984 185.996C395.253 180.673 399.793 175.702 397.188 169.451C395.223 164.733 398.667 159.196 401.377 154.713C402.274 153.229 412.221 141.856 407.813 141.054C404.952 140.533 398.383 152.606 397.126 154.713C393.621 152.585 392.046 149.961 394.744 146.755C396.816 144.293 399.36 142.187 401.377 139.638C404.652 135.5 407.843 130.561 411.733 126.886C418.563 120.433 430.487 116.039 440.322 116ZM413.031 169.479C413.07 169.503 413.053 169.526 413.036 169.491L413.031 169.479ZM532.119 108.949C536.484 112.705 542.005 115.82 546.223 119.762C549.915 123.213 554.887 129.017 556.641 133.627C547.641 135.185 532.687 139.958 529.103 148.442C515.106 136.9 509.691 158 506.914 166.824C498.722 163.64 500.356 153.04 500.464 146.851C500.548 141.941 503.878 136.13 495.941 135.728C490.011 135.429 484.251 137.598 478.902 139.63C472.228 142.165 465.227 145.957 459.836 150.313L454.219 146.385C463.433 141.738 468.236 132.854 473.629 124.718C475.35 122.125 477.648 119.241 478.902 116.437C479.77 114.499 480.381 110.586 481.333 108.862C482.829 106.152 497.448 105.406 501.321 104.708C511.545 102.864 523.764 101.76 532.119 108.949Z" fill="#F71844"/>
<path fill-rule="evenodd" clip-rule="evenodd" d="M529.789 169.17C533.566 168.996 537.325 169.754 541.102 169.424C537.823 166.858 534.545 164.294 531.266 161.729C529.817 164.014 529.712 166.613 529.789 169.17ZM440.194 116.438C430.42 116.476 418.497 120.886 411.706 127.327C408.109 130.741 405.136 135.324 402.093 139.159C400.053 141.732 398.06 144.215 395.583 146.477C391.97 149.772 393.005 150.525 397.074 153.007C398.362 150.839 405.192 139.247 408.055 139.768C412.404 140.561 404.004 152.806 403.086 154.331C400.369 158.844 395.981 165.148 397.953 169.908C400.554 176.191 396.782 179.772 393.507 185.126C396.946 185.216 397.285 184.011 398.471 181.376C399.993 177.989 401.654 175.16 404.874 172.818C407.367 171.005 411.445 170.242 412.616 168.053C414.065 165.346 413.156 160.003 413.273 156.992C413.452 152.418 413.465 141.604 419.076 139.572C424.956 137.442 435.527 139.449 441.275 141.026C440.557 136.995 438.294 134.362 438.325 129.882C438.358 125.193 439.796 121.009 440.194 116.438ZM365.103 191.248C370.216 189.794 375.063 188.262 380.323 187.272C385.829 186.234 386.196 185.047 389.3 180.807C391.652 177.593 394.506 175.087 393.84 171.15C393.413 168.625 391.873 167.395 392.336 164.555C392.623 162.795 393.538 160.873 394.198 159.2C395.009 157.146 396.688 154.817 392.783 154.716C390.627 154.66 390.522 155.681 389.063 157.397C386.37 160.566 383.271 163.443 380.406 166.482C375.429 171.759 370.151 177.374 364.596 182.257C358.48 187.631 353.202 194.113 349.249 200.993C348.519 202.264 344.08 209.747 345.974 211.214C347.713 212.562 357.385 209.419 359.149 209.051C366.762 207.464 375.404 206.897 382.596 204.014C386.261 202.545 394.348 200.792 397.242 198.519C399.933 196.406 399.812 191.288 398.25 188.309C393.88 190.751 362.286 199.965 365.103 191.248ZM460.222 149.251C465.324 145.111 471.355 141.791 477.654 139.33C483.289 137.129 490.289 134.676 496.557 135.058C504.368 135.534 501.104 141.185 501.076 145.997C501.039 152.383 497.924 161.582 506.412 164.895C509.183 156.053 515.024 135.145 529.015 146.731C532.591 138.229 545.344 135.352 554.324 133.79C552.696 129.495 547.752 125.607 544.326 122.383C540.039 118.35 536.654 113.623 532.36 109.667C523.875 101.853 508.505 104.362 497.763 106.31C494.178 106.96 483.784 107.776 482.047 110.141C480.958 111.624 481.566 115.248 480.759 117.062C479.646 119.561 477.746 121.878 476.221 124.186C470.657 132.608 464.996 141.084 455.475 145.907L460.222 149.251ZM491.358 194.623C486.321 196.359 482.615 199.262 478.147 201.707C472.73 204.671 466.377 207.448 461.515 211.11C459.736 212.449 458.736 214.762 456.28 214.912C454.145 215.043 450.89 212.814 448.996 212.035C445.82 210.725 442.785 208.74 439.593 207.573C436.969 206.613 435.808 206.809 433.538 204.944C432.265 211.751 409.102 205.388 404.243 205.284C399.747 205.189 393.58 205.667 389.396 207.29C385.41 208.836 382.293 212.239 378.88 214.558C374.203 217.738 369.74 220.954 366.296 225.356C361.571 231.391 368.699 229.683 373.453 229.318C384.303 228.485 394.858 230.807 405.319 233.047C414.669 235.049 423.903 237.451 432.853 240.698C437.887 242.524 443.185 244.203 447.919 246.576C450.415 247.828 454.463 250.892 457.327 250.009C459.953 249.199 462.571 242.437 464.163 239.736C467.255 234.492 470.508 229.337 473.701 224.145C479.732 214.338 485.706 204.613 491.358 194.623ZM429.369 324.424C432.473 322.823 437.534 323.254 440.967 322.583C444.846 321.825 448.747 320.589 452.446 319.301C456.192 317.997 459.731 316.663 463.154 315.031C464.719 314.285 466.805 313.55 468.252 312.515C469.418 311.68 469.843 310.13 470.918 309.373C473.722 307.398 474.546 308.637 474.922 304.826C475.33 300.687 472.745 298.343 469.526 295.245C466.645 292.473 462.902 290.077 459.281 288.126C457.68 287.264 455.969 286.293 454.334 285.47C451.862 284.223 448.548 282.151 447.251 284.827C449.953 285.446 450.548 288.546 448.109 289.66C446.77 290.272 444.743 289.374 443.232 290.024C440.901 291.028 438.658 293.83 436.662 295.338C430.112 300.292 423.847 302.149 415.273 302.548C397.357 303.377 378.596 301.542 361.025 299.157C356.502 298.542 351.987 299.208 347.423 299.061C342.982 298.919 338.352 298.046 333.986 297.372C325.577 296.075 316.714 295.007 308.435 293.098C298.424 290.789 288.378 287.802 278.978 283.934C269.962 280.223 259.771 274.092 249.644 273.619C253.965 277.42 260.441 278.884 265.639 281.387C269.888 283.432 276.532 284.746 279.216 288.116C280.964 290.309 281.84 294.338 283.16 296.91C284.62 299.756 285.967 302.647 287.318 305.536C288.675 308.443 290.089 311.351 291.192 314.345C291.874 316.202 292.168 320.052 293.78 321.323C296.352 323.349 304.958 324.248 308.424 324.922C314.894 326.182 322.275 326.014 328.875 326.101C331.602 326.137 334.351 326.472 336.957 326.517C340.617 326.58 340.268 326.011 340.216 323.157C340.186 321.443 340.224 318.326 342.776 319.738C344.515 320.7 343.318 324.96 342.996 326.473C357.564 327.777 372.763 328.432 387.261 327.996C401.52 327.567 415.285 325.915 429.369 324.424ZM495.157 294.387C497.728 277.807 500.86 260.95 504.366 244.585C507.909 228.048 512.169 211.66 516.961 195.185C513.796 194.504 510.631 193.826 507.466 193.146C507.348 196.617 506.042 199.633 505.484 203.088C504.715 207.858 503.245 212.489 502.365 217.243C500.693 226.279 497.595 235.121 494.866 243.933C492.085 252.916 491.155 262.171 488.599 271.2C486.493 278.638 485.416 286.832 484.24 294.478C481.387 313.03 477.321 331.617 474.227 350.177C471.325 367.579 471.034 385.334 471.201 402.898C471.303 413.621 473.124 424.314 473.029 435.051C473.006 437.705 473.254 440.351 473.408 443.001C473.516 444.871 472.398 450.054 473.347 451.62C473.947 452.612 476.526 453.526 477.439 454.903C478.883 457.081 479.187 459.685 481.506 461.334C483.386 454.523 482.498 445.533 482.087 438.582C481.689 431.885 482.461 424.963 482.613 418.163C482.91 404.823 483.697 391.678 484.459 378.331C485.293 363.695 487.667 348.702 489.985 334.176C492.094 320.967 493.5 307.524 495.157 294.387ZM426.357 86.4606C425.337 86.3751 424.318 86.2904 423.299 86.205C423.451 88.1343 422.997 91.2587 424.511 92.2652C425.659 93.0279 427.982 92.7773 429.372 93.0212C433.931 93.8216 439.214 94.4912 443.739 93.0329C445.498 92.4664 444.368 91.5788 446.79 91.9476C449.706 92.3926 448.641 92.8075 449.483 94.4418C450.132 95.7031 450.466 97.8495 451.203 99.3639C452.188 101.39 454.186 105.017 453.332 107.357C452.502 109.631 449.405 110.319 448.089 112.895C447.11 114.81 447.341 117.594 446.833 119.704C446.154 122.517 445.296 125.32 444.917 128.185C444.44 131.795 444.604 136.031 449.583 136.59C454.205 137.111 457.509 135.777 460.608 132.754C466.526 126.982 473.284 118.835 476.761 111.576C477.167 110.728 478.167 109.312 478.028 108.404C477.752 106.608 477.632 108.426 476.998 107.179C476.393 105.987 475.444 104.905 474.886 103.581C472.878 98.8267 471.455 93.8434 470.65 88.8106C470.285 86.531 470.163 84.279 470.225 81.9768C470.246 81.1906 470.771 78.8306 470.458 78.2925C470.138 77.7469 468.473 77.4955 467.954 76.9541C466.992 75.9509 465.339 73.1181 464.273 72.3672C462.962 71.4444 460.028 72.1752 459.495 70.3398C458.643 67.4023 478.81 62.6176 469.388 58.6978C462.354 55.7712 451.565 70.5653 449.105 58.9241C448.679 56.9077 449.491 54.1704 448.506 52.3224C447.418 50.28 444.455 49.5165 442.386 48.5225C439.745 47.2553 437.078 45.9529 434.512 44.565C432.751 43.6138 430.215 41.0878 428.342 40.8565C429.079 44.2851 427.665 47.6836 427.642 51.1055C431.7 50.1191 434.493 50.0981 438.498 51.8523C440.406 52.687 447.593 57.4248 443.952 59.7035C441.002 58.1371 437.846 56.7786 434.557 55.8575C433.26 55.4938 431.641 54.9993 430.261 54.9742C427.059 54.9163 427.509 55.2172 426.307 57.3862C425.148 59.4756 425.397 64.9249 422.853 66.2591C420.221 67.6386 422.251 65.7077 420.004 66.1535C418.722 66.4083 417.326 67.264 416.153 67.7476C417.76 69.3148 421.005 70.7455 422.071 72.4862C423.626 75.0239 423.086 80.2729 423.33 83.0495C425.365 82.395 427.509 82.3682 429.572 81.8821C431.512 81.4245 434.202 79.444 434.404 82.3556C434.63 85.5999 428.921 86.4606 426.357 86.4606ZM452.853 171.878C453.012 169.074 453.185 166.272 453.533 163.48C453.767 161.605 455.748 156.167 454.628 154.521C453.41 152.73 449.328 152.616 447.363 152.186C443.596 151.361 439.984 150.685 436.156 150.141C432.636 149.64 429.318 149.535 425.771 149.39C421.907 149.233 420.95 148.312 420.095 152.136C419.424 155.143 418.524 158.275 418.399 161.354C418.281 164.244 419.253 166.753 416.064 168.7C423.066 168.7 432.184 163.101 438.573 168.108C447.712 175.268 431.808 177.33 427.614 178.911C431.1 180.433 436.276 181.628 437.917 185.104C439.758 189.001 437.086 190.658 432.997 190.969C433.381 192.471 434.853 193.447 435.292 195.253C435.934 197.9 433.851 197.024 436.509 199.072C440.009 201.768 447.215 203.571 451.508 205.288C452.513 205.692 453.531 206.071 454.559 206.426C456.167 207.711 457.355 207.466 458.122 205.691C460.324 204.438 462.284 201.645 464.238 200.02C468.583 196.404 473.38 193.231 478.545 190.621C476.403 189.825 473.843 191.624 471.789 190.748C470.128 190.04 470.754 188.752 469.76 187.787C470.158 186.529 469.737 186.069 468.497 186.407C467.877 186.466 467.3 186.372 466.766 186.124C465.727 184.968 465.261 184.589 465.191 182.803C465.119 180.908 466.341 180.239 466.809 178.722C468.333 177.789 468.299 176.873 466.706 175.974C466.05 175.012 465.693 173.969 465.634 172.843C465.331 168.663 469.578 166.979 472.816 164.768C467.017 164.196 467.238 158.086 471.251 155.415C475.41 152.646 484.217 153.78 489.246 154.404C490.292 154.533 493.118 155.745 494.175 154.972C494.824 154.499 494.366 150.495 494.396 149.789C494.464 148.185 494.898 146.272 494.613 144.676C494.018 141.335 495.28 143.018 492.602 142.925C486.228 142.703 478.113 147.7 472.506 150.056C466.229 152.694 462.196 153.099 462.131 159.638C462.068 165.83 460.135 171.999 459.292 178.092C458.923 180.753 458.66 194.577 453.238 189.476C451.136 187.497 452.482 184.454 452.638 182.013C452.851 178.655 452.725 175.245 452.853 171.878ZM102.249 379.14C105.352 379.635 110.405 378.035 113.79 377.867C119.708 377.575 125.803 377.068 131.602 375.962C136.138 375.096 141.307 374.335 143.754 370.39C145.941 366.865 146.713 362.451 147.891 358.604C148.517 356.562 150.131 353.6 150.131 351.487C150.131 348.74 149.718 349.281 146.529 347.778C142.492 345.875 138.564 343.224 134.21 342.145C132.893 341.914 131.575 341.687 130.256 341.465C128.55 340.576 127.586 341.014 127.363 342.775C125.698 344.353 124.722 347.26 123.324 349.105C120.139 353.31 116.356 356.176 111.413 358.602C102.52 362.965 94.2332 366.332 84.7079 369.185C79.4585 370.758 74.6179 372.963 69.4871 374.697C65.3764 376.085 59.7032 376.508 56.5455 379.599C52.9828 383.086 58.459 384.354 61.5028 386.712C63.9968 388.643 64.0454 389.087 67.4569 388.149C69.9986 387.45 72.2518 386.114 74.6926 385.208C83.053 382.106 93.172 380.042 102.249 379.14ZM293.32 434.454C290.204 433.849 287.088 433.243 283.972 432.639C287.036 437.778 293.481 445.296 288.855 451.243C287.127 453.465 284.251 454.099 281.682 455.226C278.573 456.59 275.703 458.338 272.764 459.964C260.644 466.667 248.327 473.464 235.556 479.216C239.554 480.375 245.701 481.177 249.818 480.168C254.613 478.991 259.052 476.29 263.975 475.11C272.806 472.993 282.101 471.19 291.073 470.104C298.407 469.216 316.764 471.222 315.873 461.315C315.026 451.909 308.771 442.935 306.91 433.636C302.343 434.547 297.986 434.388 293.32 434.454ZM479.044 283.907C482.596 268.25 484.717 252.327 488.906 236.782C490.996 229.027 492.469 221.166 494.51 213.409C495.461 209.801 496.178 206.156 497.103 202.554C498.04 198.908 500.057 195.542 500.518 191.772C497.124 192.527 496.339 199.509 495.31 202.135C493.423 206.954 491.365 211.585 488.94 216.199C485.085 223.532 480.995 230.607 476.646 237.717C472.061 245.216 467.218 252.428 461.49 259.276C459.608 261.526 457.054 263.289 455.841 265.758C453.933 269.641 453.131 274.268 451.309 278.309C452.593 278.894 455.907 279.04 457.481 279.319C460.408 279.838 462.459 280.299 465.27 281.549C470.223 283.752 474.384 286.362 477.693 290.325C478.524 288.291 478.741 286.061 479.044 283.907ZM341 403.369C340.941 388.29 340.703 373.082 340.978 358.114C341.054 353.958 341.431 349.474 342.102 345.35C342.523 342.758 345.002 337.247 343.372 336.004C341.98 334.942 334.628 335.641 332.824 335.604C329.325 335.531 325.837 335.391 322.331 335.154C322.331 340.743 324.761 347.089 325.891 352.617C326.944 357.774 327.809 362.959 328.678 368.139C330.559 379.357 331.093 390.73 333.136 401.978C334.986 412.177 337.427 422.333 338.772 432.53C339.511 438.128 341.005 443.409 342.166 449.003C342.773 451.92 344.984 463.935 347.77 465.117C348.358 460.807 345.953 455.602 345.522 451.244C345.078 446.744 344.733 442.214 343.921 437.691C342.967 432.381 342.486 426.939 342.12 421.564C341.897 418.274 341.828 414.995 341.512 411.708C341.283 409.323 340.278 405.708 341 403.369ZM428.485 201.728C428.601 200.086 423.869 200.152 422.988 198.265C421.201 194.432 425.275 195.122 427.78 194.726C426.887 192.594 410.161 193.371 414.058 187.617C416.761 183.625 427.012 189.735 429.751 185.942C431.552 183.45 426.652 183.107 424.708 182.857C421.784 182.481 414.895 183.697 415.121 180.289C415.407 176.006 428.8 173.05 432.557 171.792C432.141 168.86 416.021 173.028 413.689 174.217C408.408 176.908 404.363 181.735 403.588 187.101C402.686 193.344 406.21 198.26 413.152 199.792C416.046 200.431 418.186 200.502 420.864 201.462C422.626 202.093 428.329 203.668 429.537 202.075C429.186 201.959 428.836 201.844 428.485 201.728ZM523.114 162.898C523.381 160.232 525.88 155.214 523.001 153.462C518.973 151.011 517.304 155.05 516.391 157.477C515.275 160.439 510.583 167.691 514.686 169.538C515.64 169.967 520.163 169.467 520.961 169.184C523.183 169.704 523.9 168.957 523.114 166.94V162.898ZM424.805 378.189C424.552 370.903 428.184 362.143 430.242 355.006C432.576 346.92 433.805 338.674 436.277 330.677C433.527 330.974 430.752 331.217 428.035 331.712C424.328 332.389 424.262 332.282 424.528 335.548C424.926 340.453 424.405 345.262 424.123 350.165C423.558 359.981 424.934 369.96 424.019 379.714C424.835 379.9 425.097 379.392 424.805 378.189ZM527.432 187.228C536.338 188.453 544.873 190.989 552.976 194.396C557.444 196.275 562.364 198.293 567.355 199.043C572.902 199.877 578.783 199.485 584.447 199.807C586.443 199.92 591.692 200.792 593.639 199.737C595.567 198.692 595.416 196.921 595.507 194.81C595.741 189.38 593.004 184.063 590.544 179.191C588.433 175.011 586.837 171.82 583.562 168.224C579.356 163.606 575.693 158.623 571.754 153.803C568.784 150.17 565.784 146.589 562.757 142.96C560.591 140.362 560.694 139.468 557.43 139.758C554.216 140.045 550.98 141.751 547.953 142.656C543.46 143.998 538.019 144.735 533.921 146.881C531.272 148.269 531.154 148.525 531.184 150.947C531.213 153.203 532.024 155.955 533.525 157.72C536.647 161.384 541.82 163.323 546.261 165.151C548.829 166.208 551.049 167.707 553.336 169.165C555.799 170.738 560.769 171.664 562.655 173.456C568.143 178.675 558.152 177.643 555.36 177.485C549.336 177.145 543.345 177.197 537.276 177.193C530.651 177.189 524.08 176.912 517.549 177.106C513.724 177.219 509.336 175.476 506.857 172.572C505.658 171.164 505.19 169.834 503.621 168.374C501.565 166.463 499.777 164.449 497.275 162.969C493.182 160.549 485.745 159.18 480.873 160.083C482.617 160.302 490.823 162.811 487.21 165.965C486.771 166.349 481.492 166.6 480.345 167.074C478.275 167.928 475.665 169.169 474.451 170.972C477.986 170.44 491.1 169.824 484.41 175.918C482.768 177.414 478.054 178.907 482.065 180.497C482.987 180.863 484.831 180.346 486.017 180.675C487.781 181.165 489.222 182.477 490.874 183.176C495.56 185.161 502.018 186.386 506.908 185.951C513.669 185.348 520.715 186.433 527.432 187.228ZM348.12 370.845C348.35 379.599 347.998 388.404 348.206 397.199C348.428 406.59 349.77 415.794 350.409 425.091C350.983 433.424 352.236 441.598 353.253 449.891C353.838 454.667 354.513 459.234 355.413 463.975C356.256 468.411 356.4 472.32 350.496 473.512C339.208 475.794 337.455 461.207 335.273 455.062C332.017 445.889 329.929 436.261 328.315 426.752C325.311 409.044 321.317 391.583 319.758 373.724C318.799 362.728 317.407 351.843 316.617 340.857C316.462 338.704 317.074 335.387 314.969 334.428C313.702 333.852 310.216 333.847 308.618 333.43C304.166 332.266 300.059 330.553 295.715 328.776C298.798 343.256 299.816 357.665 302.129 372.272C303.356 380.023 305.704 388.054 307.739 395.683C309.848 403.588 310.316 412.1 312.749 419.833C313.82 423.242 314.727 424.63 313.172 428.129C311.264 432.423 312.53 433.45 314.922 437.668C319.322 445.427 322.682 454.584 321.936 463.331C321.327 470.475 315.318 474.215 307.874 476.142C298.563 478.553 288.813 478.268 279.445 481.005C271.283 483.389 262.991 485.151 255.066 488.299C251.87 489.568 248.833 491.074 245.285 491.307C240.418 491.624 237.136 489.087 232.539 488.559C229.666 488.229 225.459 489.46 223.804 486.755C222.492 484.61 223.977 479.93 225.624 478.204C230.251 473.352 239.517 469.125 245.757 466.262C252.949 462.962 259.907 458.832 266.571 454.574C270.609 451.992 274.729 449.514 278.765 446.928C281.434 445.216 282.449 445.205 282.176 442.485C281.959 440.316 280.87 438.212 280.68 435.992C280.534 434.29 281.198 431.971 280.303 430.861C279.645 430.042 277.173 429.464 276.201 428.844C272.648 426.581 271.841 423.782 270.227 420.34C266.561 412.522 262.35 404.924 258.81 397.044C251.211 380.123 246.574 362.331 240.273 345.066C233.836 327.426 228.081 308.909 224.536 290.608C219.793 291.905 215.316 297.642 211.539 300.481C206.435 304.318 201.206 308.028 196.201 311.969C187.997 318.431 179.691 324.715 172.912 332.453C169.646 336.18 166.972 340.191 164.015 344.107C162.307 346.369 160.714 348.929 158.864 351.082C158.567 351.427 158.559 352.136 158.239 352.43C157.534 353.076 156.189 352.216 155.737 352.641C152.95 355.26 152.987 362.693 152.118 366.148C150.921 370.909 149.577 376.384 145.438 379.665C139.046 384.733 127.256 385.518 119.165 385.781C108.782 386.119 98.7098 388.718 88.8587 391.51C84.2636 392.811 79.7889 394.334 75.177 395.598C72.5243 396.326 69.4983 397.777 66.6654 397.498C63.2492 397.162 60.5517 394.58 58.0492 392.66C54.0459 389.59 50.3394 386.564 50.4685 381.527C50.6129 376.195 53.8284 372.171 58.894 369.522C68.6871 364.401 79.6405 361.119 90.1963 357.581C94.2416 356.224 97.7045 354.723 101.573 352.897C107.038 350.316 113.329 348.209 118.178 344.801C119.608 343.795 124.862 340.714 125.31 339.125C125.368 338.918 124.055 336.492 124.05 336.107C124.037 335.118 124.689 334.046 125.09 333.198C127.616 327.865 131.853 322.729 135.092 317.699C141.023 308.487 146.978 299.226 153.855 290.562C167.568 273.288 182.973 256.374 199.6 241.295C207.705 233.944 214.709 225.606 222.929 218.357C226.185 215.485 229.623 213.147 233.636 211.283C238.109 209.205 243.129 208.798 248.257 208.164C260.681 206.627 271.057 209.929 282.721 212.802C293.748 215.517 304.788 217.808 315.876 220.636C328.054 223.742 340.107 226.722 352.247 230.107C358.733 231.915 365.406 233.026 371.923 234.762C375.061 235.596 386.924 240.829 389.541 239.11C381.299 235.636 372.855 232.47 364.038 230.373C361.441 229.756 359.782 230.439 359.878 227.761C359.932 226.3 361.759 224.328 362.417 223.125C363.993 220.247 365.777 217.433 367.319 214.546C361.728 215.971 346.703 220.906 342.49 215.805C338.082 210.465 341.762 199.996 344.525 194.768C351.737 181.121 364.004 169.732 375.956 159.444C378.542 157.22 384.115 154.315 385.493 151.483C385.912 150.621 385 149.355 385.945 148.237C386.507 147.571 388.765 147.116 389.668 146.399C392.954 143.785 395.576 138.287 397.847 134.861C400.225 131.273 402.368 127.387 405.357 124.168C410.245 118.904 415.292 113.324 423.208 112.093C427.09 111.489 431.214 111.811 434.935 110.607C439.435 109.15 443.71 106.856 448.254 105.347C447.127 103.265 446.213 99.9547 444.026 99.7276C441.92 99.508 438.832 101.134 436.422 101.122C432.902 101.105 429.897 100.599 426.5 99.9967C422.741 99.3287 421.502 99.4502 420.132 95.7869C418.694 91.9493 419.057 87.4923 419.069 83.5063C419.074 81.5586 419.505 79.1407 419.32 77.229C419.043 74.3484 418.419 74.2378 415.905 72.4057C412.765 70.1169 408.893 67.088 412.74 63.1112C414.819 60.9624 419.091 62.6335 420.933 60.3246C422.808 57.9729 422.717 52.0651 423.289 49.3028C417.507 51.8556 419.627 42.3122 419.626 40.0159C419.625 36.6744 417.132 30.6652 420.721 27.8853C422.389 26.5946 423.627 27.6623 425.534 26.9206C427.71 26.0741 429.08 23.854 431.395 22.9933C435.996 21.2819 440.694 23.3428 445.418 23.0025C450.836 22.6128 456.158 21.8602 461.606 22.6413C464.188 23.0101 465.275 23.8909 467.459 24.8782C469.559 25.8277 471.69 26.0875 473.971 26.6985C476.001 27.2424 477.781 27.5173 479.152 29.1064C480.237 30.3635 479.795 32.478 480.89 33.5617C481.97 34.6294 484.107 34.4744 485.394 35.7424C486.63 36.9593 487.369 38.9707 488.011 40.4852C488.879 42.5251 488.981 43.2911 490.509 44.9237C491.841 46.3485 493.759 47.4942 494.871 49.1192C497.49 52.9502 497.557 58.49 496.721 62.7995C496.437 64.267 494.069 68.0602 494.439 69.309C494.792 70.4974 497.013 70.1848 498.018 70.9365C498.887 71.5861 499.652 74.48 500.337 74.6568C501.817 75.0382 503.643 72.4124 504.765 72.0185C506.714 71.3338 507.529 70.6315 508.609 73.212C509.409 75.127 508.295 77.7259 507.708 79.5538C506.961 81.8804 506.136 84.6821 504.157 86.4413C501.831 88.5097 499.969 87.3791 497.402 88.493C493.556 90.1624 494.691 95.3821 489.957 96.8739C485.447 98.2953 480.478 93.8232 477.066 91.7674C477.773 96.7583 480.433 101.567 479.156 106.682C489.53 103.031 499.79 97.8503 511.095 96.7088C516.86 96.1263 522.683 95.4366 528.125 97.5863C534.494 100.102 538.397 105.652 542.708 110.263C550.811 118.93 559.125 127.354 566.902 136.3C574.035 144.505 580.049 154.014 587.9 161.697C595.861 169.489 601.87 182.131 600.998 192.92C600.919 193.894 600.079 196.107 600.211 197.157C600.314 197.962 601.128 198.982 601.115 199.63C601.071 201.813 600.267 203.071 597.95 204.282C593.934 206.383 587.949 207.446 583.41 207.968C577.379 208.661 569.993 208.735 563.96 207.995C557.737 207.231 552.267 204.102 546.544 202.212C541.525 200.552 536.483 199.516 531.209 198.458C528.299 197.874 525.078 196.257 523.28 197.822C521.629 199.26 521.287 206.638 520.902 208.6C516.729 229.866 511.77 250.411 507.377 271.569C502.399 295.55 498.995 319.522 495.533 343.707C492.387 365.691 491.358 387.924 490.655 409.888C490.319 420.365 490.27 430.73 490.341 441.216C490.381 447.088 493.649 466.688 483.958 467.439C478.264 467.881 473.708 460.547 472.182 456.547C469.889 450.538 468.695 444.067 468.33 437.755C467.59 424.976 466.621 412.187 466.047 399.403C465.425 385.552 466.215 371.446 467.483 357.641C468.759 343.744 471.974 330.05 472.959 316.131C470.001 319.923 469.055 320.635 464.128 322.286C458.973 324.015 454.014 326.06 448.812 327.672C447.043 328.22 444.281 328.564 442.83 329.461C440.153 331.117 441.912 329.238 441.057 332.462C440.144 335.905 439.972 340.04 439.729 343.578C438.59 360.185 433.468 376.674 431.106 393.193C430.535 397.181 431.349 414.112 423.708 408.776C417.823 404.667 417.939 391.759 417.102 385.713C415.988 377.654 416.608 369.368 416.785 361.26C416.985 352.026 417.158 342.341 419.611 333.325C415.222 332.65 409.118 334.488 404.7 334.797C400.875 335.065 397.063 335.235 393.259 335.423C384.189 335.87 374.845 336.227 365.622 336.067C363.942 336.038 352.972 334.658 351.57 335.77C351.115 336.132 350.976 341.1 350.891 341.707C350.568 343.99 350.13 346.27 349.803 348.54C348.762 355.798 347.821 363.59 348.12 370.845Z" fill="black"/>
<path fill-rule="evenodd" clip-rule="evenodd" d="M511.031 439.812C517.953 442.242 525.3 443.124 532.281 445.338C538.523 447.317 544.319 449.978 550.464 451.99C550.823 449.429 551.014 445.092 549.962 442.679C548.472 439.262 544.549 439.178 540.686 437.961C531.286 434.998 521.398 434.374 512.066 430.913C513.664 433.675 512.95 437.334 511.031 439.812ZM630.53 430.876C615.58 431.27 601.291 434.395 586.557 436.328C579.386 437.267 572.209 438.106 565.033 438.984C562.271 439.321 557.237 438.924 555.23 441.071C553.566 442.851 555.389 448.922 554.65 451.53C557.672 451.731 563.038 449.195 566.318 448.775C571.425 448.123 576.465 447.209 581.625 446.918C589.798 446.455 597.829 446.062 605.988 445.245C614.284 444.414 622.313 442.87 630.676 442.306C634.741 442.031 636.377 442.716 636.616 438.861C636.71 437.354 636.94 434.831 636.47 433.344C637.222 431.517 636.555 430.63 634.468 430.682C633.143 430.548 631.831 430.612 630.53 430.876ZM601.614 418.572C605.657 418.231 609.717 417.743 613.77 417.538C614.592 417.496 618.761 417.722 619.442 417.035C620.405 416.065 619.332 412.513 619.155 411.414C618.554 407.677 617.89 405.504 613.352 405.496C609.522 405.488 605.557 406.215 601.742 406.55C584.425 408.075 567.194 408.719 550.068 411.614C551.11 415.602 552.294 419.716 551.047 423.794C559.263 424.175 568.283 422.755 576.312 421.298C584.519 419.809 593.226 419.07 601.614 418.572ZM574.204 381.026C568.017 381.052 561.478 383.499 555.373 382.954C555.281 383.974 557.235 383.127 557.775 384.082C558.927 384.084 559.329 384.422 558.977 385.097C558.998 385.557 558.736 385.827 558.19 385.905C557.921 385.927 557.652 385.947 557.383 385.968C556.203 386.002 556.009 386.717 556.804 388.116C556.463 389.847 556.974 392.047 557.049 393.786C568.021 392.444 578.68 391.049 589.729 390.451C594.946 390.168 600.158 390.169 605.368 389.784C611.1 389.36 617.357 390.269 622.961 389.305C625.957 388.79 625.643 388.826 625.425 385.326C625.292 383.2 625.341 380.676 623.414 379.125C620.196 376.535 612.867 378.032 609.019 378.124C597.428 378.399 585.641 379.366 574.204 381.026ZM580.538 431.001C597.113 429.648 613.563 426.687 630.232 426.687C629.054 425.629 626.486 425.357 625.02 424.779C623.347 424.122 621.769 422.721 620.134 422.146C616.854 420.993 613.517 422.595 610.148 423.288C602.022 424.959 593.684 425.016 585.545 426.656C577.13 428.35 568.606 429.913 560.036 430.774C555.956 431.184 551.577 432.016 547.545 431.048C547.218 430.837 546.889 430.627 546.562 430.417C546.21 429.069 545.232 428.71 543.627 429.337C541.589 428.989 538.994 429.439 536.943 429.485C536.859 430.221 544.439 432.53 545.884 433.101C549.366 434.478 551.727 435.487 555.446 434.897C563.82 433.568 572.058 431.982 580.538 431.001ZM522.231 387.472C522.879 389.74 525.598 388.708 527.94 388.958C531.083 389.293 534.21 390.267 537.254 391.001C542.783 392.335 548.313 393.651 553.818 395.062C553.601 393.065 554.093 388.519 552.918 386.747C551.685 384.889 545.84 384.075 543.118 383.509C536.257 382.083 528.929 382.894 521.959 383.194C522.082 384.618 522.173 386.043 522.231 387.472ZM588.135 401.662C594.645 401.166 601.162 400.782 607.69 400.575C615.154 400.341 609.729 399.269 609.571 395.18C599.761 396.586 589.864 396.864 580.085 398.065C571.983 399.061 562.331 401.663 554.067 400.265C550.169 399.606 546.19 399.352 542.043 398.98C538.131 398.629 534.44 396.992 530.576 396.585C526.239 396.128 521.807 398.319 517.492 398.897C515.663 399.143 515.238 400.257 514.374 398.279C513.478 396.228 516.044 394.552 517.054 393.325C518.233 391.893 517.743 394.219 518.398 391.982C518.582 391.355 518.084 389.78 517.993 389.104C517.762 387.396 517.165 385.544 517.072 383.84C516.986 382.275 516.971 379.886 518.862 378.972C520.017 378.415 520.835 379.228 521.841 379.07C529.697 377.843 538.938 377.742 546.905 378.927C555.542 380.21 562.976 376.812 571.489 375.434C581.475 373.818 591.567 373.575 601.64 372.892C610.252 372.309 625.989 369.281 629.27 379.162C630.199 381.962 631.553 389.67 629.053 392.052C625.773 395.18 618.177 394.182 613.936 394.995C614.57 396.616 616.459 397.719 615.806 399.649C621.75 399.901 622.801 404.944 623.732 409.653C624.695 414.524 622.816 416.46 627.999 418.997C635.222 422.532 642.874 426.102 642.732 434.521C642.662 438.754 642.134 445.138 637.295 447.335C632.562 449.483 624.854 449.12 619.637 449.9C609.534 451.411 599.396 453.184 589.232 454.091C578.409 455.058 567.406 455.851 556.565 456.282C550.659 456.519 545.556 457.32 539.851 455.534C534.243 453.779 528.756 452.498 522.97 451.194C517.257 449.909 499.769 448.177 504.865 439.402C505.68 437.997 508.467 436.881 508.917 435.553C509.643 433.411 507.191 431.74 507.293 429.804C507.48 426.264 511.928 425.819 514.999 425.819C509.735 422.862 516.785 419.361 516.743 416.85C516.669 412.427 510.544 409.556 510.198 405.847C509.355 396.823 541.224 406.219 546.129 408.172C542.353 413.2 524.838 408.849 519.621 408.086C520.333 409.765 521.013 411.275 521.219 412.994C521.386 414.395 520.79 415.996 521.335 417.406C522.196 419.636 522.167 419.209 525.215 419.817C527.47 420.266 529.699 420.786 531.947 421.262C535.399 421.994 540.83 423.957 544.251 423.849C547.251 423.756 546.658 424.591 547.208 421.598C547.504 419.989 546.999 418.279 546.697 416.703C546.068 413.401 545.146 410.275 548.357 407.905C551.419 405.645 557.873 404.57 561.628 403.772C569.963 402.004 579.583 401.57 588.135 401.662Z" fill="black"/>
<path fill-rule="evenodd" clip-rule="evenodd" d="M627.798 345.291C618.745 343.928 609.548 343.593 600.389 344.006C600.886 346.042 601.382 348.077 601.879 350.111C610.46 348.126 619.164 346.963 627.798 345.291ZM554.19 361.083C550.56 360.844 553.086 362.302 553.982 364.437C555.084 367.059 554.847 370.374 555.101 373.134C565.722 369.496 578.081 367.367 589.373 366.142C594.729 365.562 600.162 365.395 605.548 365.147C607.14 365.074 612.889 365.673 614.053 364.711C614.918 363.995 614.311 360.048 613.48 359.177C608.96 354.445 591.488 358.531 585.166 358.955C574.802 359.651 564.627 361.314 554.19 361.083ZM569.276 348.4C578.681 349.211 587.762 349.134 597.168 350.4C596.454 345.03 597.307 343.659 590.525 343.374C584.481 343.121 578.456 342.916 572.441 342.918C558.913 342.925 545.417 342.693 531.875 342.693V348.15C544.4 346.998 556.726 349.078 569.276 348.4ZM524.051 368.468C529.986 368.446 535.596 370.457 541.532 370.979C545.085 371.291 543.969 371.687 546.433 373.289C550.272 375.785 551.378 374.455 550.896 371.064C549.265 359.591 533.094 362.164 523.775 361.526C524.387 364.262 522.98 366.582 520.906 368.468H524.051ZM588.207 353.738C579.67 353.863 571.122 354.299 562.644 354.14C558.85 354.068 553.933 353.393 550.214 353.974C547.49 354.399 545.211 355.646 542.223 356.109C546.612 358.233 548.837 356.798 553.452 356.314C558.063 355.832 562.742 355.842 567.371 355.59C574.974 355.177 583.077 353.541 590.568 353.986C590.704 353.038 589.918 352.955 588.207 353.738ZM520.493 378.586C516.575 378.579 521.965 374.577 522.672 374.18C518.335 374.18 517.286 371.844 518.542 368.091C519.726 364.555 520.602 365.638 517.623 362.693C515.381 360.476 515.042 358.843 517.685 356.365C520.375 353.844 525.822 354.557 528.205 352.475C532.263 348.933 527.027 341.877 532.649 339.163C536.449 337.33 542.575 337.557 546.771 337.169C550.826 336.795 555.024 336.723 559.107 336.673C568.006 336.564 577.25 337.904 586.109 338.642C589.34 338.91 592.971 340.082 596.153 340.085C599.399 340.088 602.798 339.438 606.149 339.513C610.045 339.601 613.797 339.343 617.814 339.918C620.892 340.358 628.079 340.589 630.432 342.645C638.271 349.494 619.681 352.639 616.483 353.409C619.738 356.612 619.602 360.847 619.112 364.879C620.661 364.879 623.333 364.274 624.135 365.834C625.131 367.773 621.444 368.277 620.572 368.503C615.556 369.804 609.687 369.447 604.518 369.92C594.184 370.864 583.976 371.409 573.749 373.168C568.766 374.025 563.812 375.085 558.832 375.92C557.972 376.064 557.107 376.18 556.239 376.267C554.906 376.164 554.475 376.915 554.945 378.524C553.563 379.131 548.409 377.619 546.816 377.388C537.692 376.058 529.531 376.611 520.493 378.586Z" fill="black"/>
<path fill-rule="evenodd" clip-rule="evenodd" d="M704.718 458.163C698.833 462.323 693.363 466.248 686.991 469.862C691.495 469.736 706.477 463.283 704.718 458.163ZM702.419 451.384C699.208 448.905 696.018 449.159 692.042 448.408C688.382 447.715 684.825 446.524 681.172 445.731C678.305 445.109 675.467 444.267 672.61 443.68C668.576 442.849 668.178 443.763 664.469 445.662C651.312 452.397 636.59 457.03 622.732 462.496C626.801 465.713 635.954 465.852 641.039 466.878C644.752 467.626 648.284 468.65 651.841 469.834C655.152 470.939 660.487 473.479 663.978 473.563C666.926 473.635 669.323 471.029 671.86 469.626C675.199 467.779 678.522 465.965 681.886 464.164C689.006 460.353 695.663 455.684 702.419 451.384ZM642.963 478.664C641.444 477.352 636.872 477.41 634.968 477.009C631.217 476.221 627.521 475.403 623.72 474.812C617.551 473.854 607.807 473.425 607.137 466.236C606.579 460.262 614.615 458.845 619.315 456.821C626.383 453.776 633.594 450.967 640.841 448.282C647.636 445.765 654.53 443.637 661.449 441.462C662.798 441.038 663.894 441.096 664.995 440.126C665.864 439.361 665.596 437.874 666.548 437.075C668.729 435.243 671.559 436.206 674.179 436.676C680.131 437.743 686.311 439.143 691.985 441.121C697.881 443.176 703.155 443.605 704.572 449.61C707.586 448.339 709.854 448.155 709.494 451.888C709.388 452.985 708.501 454.178 708.288 455.31C707.975 456.978 708.524 458.736 708.213 460.408C707.085 466.489 697.958 470.993 692.301 473.381C685.327 476.325 676.328 480.675 668.541 481.249C660.243 481.862 651.201 478.935 642.963 478.664Z" fill="black"/>
<path fill-rule="evenodd" clip-rule="evenodd" d="M537.344 377.785C534.87 377.799 532.395 377.813 529.922 377.827C532.391 377.41 534.865 377.405 537.344 377.785Z" fill="black"/>
<path fill-rule="evenodd" clip-rule="evenodd" d="M392.617 142.667C391.875 143.777 391.133 144.888 390.391 146C390.644 144.568 391.209 143.341 392.617 142.667Z" fill="black"/>
<path fill-rule="evenodd" clip-rule="evenodd" d="M537.344 409.649C538.831 409.661 540.318 409.672 541.797 409.684C540.307 409.674 538.826 409.662 537.344 409.649Z" fill="black"/>
<path fill-rule="evenodd" clip-rule="evenodd" d="M571.484 337.126C569.752 337.042 568.021 336.958 566.289 336.874C568.021 336.958 569.752 337.042 571.484 337.126Z" fill="black"/>
<path fill-rule="evenodd" clip-rule="evenodd" d="M541.797 377.818C540.312 377.805 538.827 377.793 537.344 377.78C538.833 377.416 540.318 377.428 541.797 377.818Z" fill="black"/>
<path fill-rule="evenodd" clip-rule="evenodd" d="M600.864 188.667C600.822 187.333 600.78 185.999 600.738 184.667C600.781 186.002 600.822 187.334 600.864 188.667Z" fill="black"/>
<path fill-rule="evenodd" clip-rule="evenodd" d="M348.503 390C348.472 388.888 348.442 387.777 348.411 386.667C348.443 387.779 348.472 388.889 348.503 390Z" fill="black"/>
<path fill-rule="evenodd" clip-rule="evenodd" d="M388.906 335.665C389.899 335.666 390.89 335.666 391.875 335.668C390.881 335.668 389.894 335.666 388.906 335.665Z" fill="black"/>
<path fill-rule="evenodd" clip-rule="evenodd" d="M521.758 96.2127C520.52 96.2933 519.284 96.3733 518.047 96.454C519.284 96.3733 520.521 96.2933 521.758 96.2127Z" fill="black"/>
<path fill-rule="evenodd" clip-rule="evenodd" d="M615.273 339.68C613.789 339.671 612.304 339.662 610.82 339.654C612.304 339.662 613.789 339.671 615.273 339.68Z" fill="black"/>
<path fill-rule="evenodd" clip-rule="evenodd" d="M490.27 422C490.233 421.11 490.195 420.219 490.16 419.333C490.196 420.224 490.233 421.113 490.27 422Z" fill="black"/>
<path fill-rule="evenodd" clip-rule="evenodd" d="M491.739 388C491.713 387.111 491.686 386.22 491.659 385.333C491.687 386.223 491.713 387.111 491.739 388Z" fill="black"/>
<path fill-rule="evenodd" clip-rule="evenodd" d="M466.411 403.333C466.447 404.224 466.483 405.114 466.518 406C466.483 405.109 466.447 404.222 466.411 403.333Z" fill="black"/>
<path fill-rule="evenodd" clip-rule="evenodd" d="M394.844 335.014C395.589 335.004 396.333 334.996 397.07 334.986C396.324 334.996 395.584 335.004 394.844 335.014Z" fill="black"/>
<path fill-rule="evenodd" clip-rule="evenodd" d="M610.078 369.71C610.822 369.681 611.566 369.652 612.305 369.623C611.558 369.653 610.817 369.681 610.078 369.71Z" fill="black"/>
<path fill-rule="evenodd" clip-rule="evenodd" d="M467.886 424.667C467.928 425.557 467.97 426.447 468.013 427.333C467.97 426.441 467.928 425.554 467.886 424.667Z" fill="black"/>
<path fill-rule="evenodd" clip-rule="evenodd" d="M547.438 420C547.389 420.891 547.338 421.78 547.288 422.667C547.338 421.776 547.389 420.888 547.438 420Z" fill="black"/>
<path fill-rule="evenodd" clip-rule="evenodd" d="M461.896 22.7645C460.848 22.6445 459.799 22.5255 458.749 22.4055C459.789 22.6215 460.929 21.8205 461.896 22.7645Z" fill="black"/>
<path fill-rule="evenodd" clip-rule="evenodd" d="M416.781 364.667C416.753 365.557 416.725 366.447 416.696 367.333C416.723 366.441 416.752 365.554 416.781 364.667Z" fill="black"/>
<path fill-rule="evenodd" clip-rule="evenodd" d="M352.987 446C352.936 445.111 352.884 444.221 352.834 443.333C352.885 444.223 352.936 445.111 352.987 446Z" fill="black"/>
<path fill-rule="evenodd" clip-rule="evenodd" d="M593.008 371.021C593.754 371.007 594.498 370.992 595.234 370.979C594.487 370.994 593.748 371.007 593.008 371.021Z" fill="black"/>
<path fill-rule="evenodd" clip-rule="evenodd" d="M341.027 209.333C341.033 210.224 341.038 211.114 341.043 212C341.037 211.109 341.033 210.221 341.027 209.333Z" fill="black"/>
<path fill-rule="evenodd" clip-rule="evenodd" d="M325.455 409.333C325.452 410.224 325.448 411.115 325.443 412C325.446 411.109 325.451 410.221 325.455 409.333Z" fill="black"/>
<path fill-rule="evenodd" clip-rule="evenodd" d="M510.434 404C510.407 404.89 510.381 405.781 510.353 406.667C509.946 405.752 509.992 404.866 510.434 404Z" fill="black"/>
<path fill-rule="evenodd" clip-rule="evenodd" d="M490.969 400C490.961 399.11 490.953 398.22 490.945 397.333C490.953 398.225 490.961 399.112 490.969 400Z" fill="black"/>
<path fill-rule="evenodd" clip-rule="evenodd" d="M642.734 478.972C643.48 478.99 644.225 479.009 644.961 479.028C644.213 479.01 643.474 478.991 642.734 478.972Z" fill="black"/>
<path fill-rule="evenodd" clip-rule="evenodd" d="M616.016 394.345C616.512 394.337 617.01 394.33 617.5 394.322C617.001 394.33 616.508 394.337 616.016 394.345Z" fill="black"/>
<path fill-rule="evenodd" clip-rule="evenodd" d="M597.461 396.335C597.959 396.333 598.455 396.333 598.945 396.332C598.447 396.333 597.954 396.334 597.461 396.335Z" fill="black"/>
<path fill-rule="evenodd" clip-rule="evenodd" d="M308.423 400.667C308.394 400 308.363 399.332 308.334 398.667C308.365 399.334 308.394 400.001 308.423 400.667Z" fill="black"/>
<path fill-rule="evenodd" clip-rule="evenodd" d="M612.305 400.161C611.66 400.747 610.831 400.401 610.078 400.438C610.821 400.345 611.563 400.253 612.305 400.161Z" fill="black"/>
<path fill-rule="evenodd" clip-rule="evenodd" d="M523.984 378.831C523.004 379.247 522.014 379.304 521.016 378.86C522.006 378.85 522.995 378.841 523.984 378.831Z" fill="black"/>
<path fill-rule="evenodd" clip-rule="evenodd" d="M588.555 401.678C587.565 401.671 586.575 401.663 585.586 401.655C586.576 401.663 587.566 401.671 588.555 401.678Z" fill="black"/>
<path fill-rule="evenodd" clip-rule="evenodd" d="M546.992 378.454C546.003 378.374 545.012 378.293 544.023 378.212C545.012 378.293 546.003 378.374 546.992 378.454Z" fill="black"/>
<path fill-rule="evenodd" clip-rule="evenodd" d="M320.283 375.333C320.265 376.002 320.245 376.669 320.225 377.333C320.243 376.664 320.263 375.998 320.283 375.333Z" fill="black"/>
<path fill-rule="evenodd" clip-rule="evenodd" d="M490.9 411.333C490.938 410.665 490.976 409.997 491.014 409.333C490.976 410.002 490.938 410.668 490.9 411.333Z" fill="black"/>
<path fill-rule="evenodd" clip-rule="evenodd" d="M593.008 372.888C592.019 372.963 591.028 373.037 590.039 373.112C591.029 373.037 592.019 372.963 593.008 372.888Z" fill="black"/>
<path fill-rule="evenodd" clip-rule="evenodd" d="M348.488 370.667C348.468 369.999 348.447 369.331 348.426 368.667C348.446 369.336 348.468 370.002 348.488 370.667Z" fill="black"/>
<path fill-rule="evenodd" clip-rule="evenodd" d="M472.49 319.333C472.431 320.001 472.373 320.669 472.315 321.333C472.373 320.665 472.432 320 472.49 319.333Z" fill="black"/>
<path fill-rule="evenodd" clip-rule="evenodd" d="M607.852 339.507C606.86 339.968 605.871 339.91 604.883 339.502C605.872 339.504 606.862 339.506 607.852 339.507Z" fill="black"/>
<path fill-rule="evenodd" clip-rule="evenodd" d="M490.281 432C490.236 431.332 490.193 430.665 490.149 430C490.193 430.669 490.236 431.334 490.281 432Z" fill="black"/>
<path fill-rule="evenodd" clip-rule="evenodd" d="M490.262 437.333C490.23 436.666 490.199 435.999 490.168 435.333C490.2 436.001 490.231 436.667 490.262 437.333Z" fill="black"/>
<path fill-rule="evenodd" clip-rule="evenodd" d="M349.926 349.333C349.937 348.666 349.947 347.997 349.957 347.333C349.946 348.003 349.936 348.668 349.926 349.333Z" fill="black"/>
<path fill-rule="evenodd" clip-rule="evenodd" d="M561.094 455.685C561.59 455.672 562.087 455.66 562.578 455.648C562.079 455.662 561.586 455.673 561.094 455.685Z" fill="black"/>
<path fill-rule="evenodd" clip-rule="evenodd" d="M321.798 461.333C321.758 460.666 321.718 459.998 321.678 459.333C321.719 460.001 321.758 460.668 321.798 461.333Z" fill="black"/>
<path fill-rule="evenodd" clip-rule="evenodd" d="M482.422 466.986C482.919 466.996 483.417 467.004 483.906 467.014C483.407 467.005 482.915 466.996 482.422 466.986Z" fill="black"/>
<path fill-rule="evenodd" clip-rule="evenodd" d="M590.039 339.101C589.05 339.034 588.06 338.966 587.07 338.899C588.06 338.966 589.05 339.034 590.039 339.101Z" fill="black"/>
<path fill-rule="evenodd" clip-rule="evenodd" d="M595.234 339.805L593.008 339.528L595.234 339.805Z" fill="black"/>
<path fill-rule="evenodd" clip-rule="evenodd" d="M482.731 410C482.773 407.999 482.814 405.999 482.855 404C482.813 406.001 482.772 408 482.731 410Z" fill="black"/>
<path fill-rule="evenodd" clip-rule="evenodd" d="M424.864 336.667C424.889 338.223 424.914 339.78 424.941 341.333C424.916 339.775 424.89 338.221 424.864 336.667Z" fill="black"/>
<path fill-rule="evenodd" clip-rule="evenodd" d="M296.875 434.313C295.636 434.326 294.396 434.339 293.164 434.354C294.407 434.341 295.641 434.327 296.875 434.313Z" fill="black"/>
<path fill-rule="evenodd" clip-rule="evenodd" d="M398.555 301.692C397.314 301.675 396.075 301.657 394.844 301.641C396.087 301.659 397.321 301.676 398.555 301.692Z" fill="black"/>
<path fill-rule="evenodd" clip-rule="evenodd" d="M366.641 327.668C367.878 327.668 369.115 327.666 370.352 327.665C369.115 327.666 367.878 327.667 366.641 327.668Z" fill="black"/>
<path fill-rule="evenodd" clip-rule="evenodd" d="M382.969 300.978C381.976 300.993 380.984 301.008 380 301.022C380.996 301.007 381.982 300.993 382.969 300.978Z" fill="black"/>
<path fill-rule="evenodd" clip-rule="evenodd" d="M302.812 434.34C301.82 434.336 300.828 434.331 299.844 434.326C300.84 434.332 301.826 434.336 302.812 434.34Z" fill="black"/>
<path fill-rule="evenodd" clip-rule="evenodd" d="M436.406 93.7823C437.643 93.705 438.881 93.6283 440.117 93.551C438.88 93.6283 437.643 93.705 436.406 93.7823Z" fill="black"/>
<path fill-rule="evenodd" clip-rule="evenodd" d="M453.036 172C453.082 170.889 453.128 169.777 453.174 168.667C453.128 169.779 453.082 170.89 453.036 172Z" fill="black"/>
<path fill-rule="evenodd" clip-rule="evenodd" d="M423.047 182.333C422.302 182.333 421.557 182.333 420.82 182.334C421.568 182.334 422.307 182.333 423.047 182.333Z" fill="black"/>
<path fill-rule="evenodd" clip-rule="evenodd" d="M359.961 298.989C359.216 298.996 358.472 299.004 357.734 299.011C358.482 299.004 359.221 298.997 359.961 298.989Z" fill="black"/>
<path fill-rule="evenodd" clip-rule="evenodd" d="M342.891 326.225C343.881 326.297 344.87 326.37 345.859 326.442C344.869 326.37 343.881 326.297 342.891 326.225Z" fill="black"/>
<path fill-rule="evenodd" clip-rule="evenodd" d="M341.012 360C341.027 359.11 341.044 358.221 341.059 357.333C341.043 358.224 341.027 359.112 341.012 360Z" fill="black"/>
<path fill-rule="evenodd" clip-rule="evenodd" d="M426.016 324.464C427.005 324.377 427.995 324.29 428.984 324.203C427.994 324.29 427.005 324.377 426.016 324.464Z" fill="black"/>
<path fill-rule="evenodd" clip-rule="evenodd" d="M493.837 308.667C493.897 307.777 493.955 306.887 494.014 306C493.955 306.89 493.896 307.779 493.837 308.667Z" fill="black"/>
<path fill-rule="evenodd" clip-rule="evenodd" d="M506.914 185.77C507.904 185.701 508.893 185.632 509.883 185.563C508.893 185.632 507.904 185.701 506.914 185.77Z" fill="black"/>
<path fill-rule="evenodd" clip-rule="evenodd" d="M405.977 302.343C405.232 302.336 404.487 302.33 403.75 302.324C404.497 302.33 405.237 302.336 405.977 302.343Z" fill="black"/>
<path fill-rule="evenodd" clip-rule="evenodd" d="M341.09 410C341.053 409.332 341.016 408.665 340.981 408C341.016 408.668 341.053 409.334 341.09 410Z" fill="black"/>
<path fill-rule="evenodd" clip-rule="evenodd" d="M424.303 376C425.925 379.613 425.014 377.055 425.056 377.889C423.674 378.055 423.422 377.426 424.303 376Z" fill="black"/>
<path fill-rule="evenodd" clip-rule="evenodd" d="M356.25 299.036C355.506 299.012 354.76 298.988 354.023 298.964C354.772 298.988 355.51 299.012 356.25 299.036Z" fill="black"/>
<path fill-rule="evenodd" clip-rule="evenodd" d="M507.957 231.333C508.004 230.444 508.051 229.555 508.097 228.667C508.051 229.557 508.003 230.445 507.957 231.333Z" fill="black"/>
<path fill-rule="evenodd" clip-rule="evenodd" d="M341.039 403.333C341.037 402.444 341.034 401.555 341.031 400.667C341.034 401.558 341.036 402.446 341.039 403.333Z" fill="black"/>
<path fill-rule="evenodd" clip-rule="evenodd" d="M340.958 383.333C341.009 382.666 341.062 381.999 341.113 381.333C341.061 382.001 341.009 382.668 340.958 383.333Z" fill="black"/>
<path fill-rule="evenodd" clip-rule="evenodd" d="M495.306 296C495.375 295.333 495.445 294.666 495.514 294C495.445 294.668 495.375 295.334 495.306 296Z" fill="black"/>
<path fill-rule="evenodd" clip-rule="evenodd" d="M331.287 385.333C331.353 386.001 331.42 386.669 331.486 387.333C331.419 386.666 331.353 386 331.287 385.333Z" fill="black"/>
<path fill-rule="evenodd" clip-rule="evenodd" d="M329.792 380C329.866 380.667 329.939 381.335 330.012 382C329.939 381.331 329.866 380.666 329.792 380Z" fill="black"/>
<path fill-rule="evenodd" clip-rule="evenodd" d="M478.257 288.667C478.312 288 478.367 287.333 478.423 286.667C478.367 287.334 478.312 288.001 478.257 288.667Z" fill="black"/>
<path fill-rule="evenodd" clip-rule="evenodd" d="M99.4531 379.105C100.442 379.035 101.432 378.964 102.422 378.895C101.43 378.965 100.441 379.035 99.4531 379.105Z" fill="black"/>
<path fill-rule="evenodd" clip-rule="evenodd" d="M471.703 395.333C471.674 396.001 471.645 396.67 471.617 397.333C471.646 396.664 471.675 395.999 471.703 395.333Z" fill="black"/>
<path fill-rule="evenodd" clip-rule="evenodd" d="M483.452 397.333C483.507 396.666 483.562 395.999 483.618 395.333C483.562 396.001 483.507 396.667 483.452 397.333Z" fill="black"/>
<path fill-rule="evenodd" clip-rule="evenodd" d="M478.965 286C479.043 285.333 479.122 284.666 479.199 284C479.121 284.668 479.043 285.334 478.965 286Z" fill="black"/>
<path fill-rule="evenodd" clip-rule="evenodd" d="M105.391 378.464C106.381 378.377 107.37 378.29 108.359 378.202C107.37 378.29 106.38 378.377 105.391 378.464Z" fill="black"/>
<path fill-rule="evenodd" clip-rule="evenodd" d="M420.078 301.659C419.581 301.664 419.084 301.669 418.594 301.674C419.093 301.669 419.586 301.664 420.078 301.659Z" fill="black"/>
<path fill-rule="evenodd" clip-rule="evenodd" d="M341.039 377.333C341.037 376.665 341.034 375.998 341.031 375.333C341.034 376.002 341.037 376.667 341.039 377.333Z" fill="black"/>
<path fill-rule="evenodd" clip-rule="evenodd" d="M485.077 376C484.814 375.311 484.685 374.631 485.193 374C485.155 374.668 485.116 375.334 485.077 376Z" fill="black"/>
<path fill-rule="evenodd" clip-rule="evenodd" d="M472.434 363.333C472.413 364.001 472.391 364.669 472.371 365.333C472.392 364.664 472.413 363.999 472.434 363.333Z" fill="black"/>
<path fill-rule="evenodd" clip-rule="evenodd" d="M473.075 429.333C473.121 430 473.168 430.669 473.214 431.333C473.168 430.666 473.121 429.999 473.075 429.333Z" fill="black"/>
<path fill-rule="evenodd" clip-rule="evenodd" d="M527.695 186.858C528.438 186.953 529.181 187.048 529.922 187.142C529.179 187.047 528.438 186.952 527.695 186.858Z" fill="black"/>
<path fill-rule="evenodd" clip-rule="evenodd" d="M524.727 186.92C525.722 186.974 526.817 186.544 527.695 187.174L524.727 186.92Z" fill="black"/>
<path fill-rule="evenodd" clip-rule="evenodd" d="M397.812 327.673C398.802 327.669 399.793 327.665 400.781 327.66C399.792 327.665 398.802 327.669 397.812 327.673Z" fill="black"/>
<path fill-rule="evenodd" clip-rule="evenodd" d="M420.078 186.218L423.047 186.449C422.056 186.372 421.068 186.295 420.078 186.218Z" fill="black"/>
<path fill-rule="evenodd" clip-rule="evenodd" d="M371.094 327.492C372.084 327.496 373.073 327.5 374.062 327.504C373.069 327.934 372.079 327.976 371.094 327.492Z" fill="black"/>
<path fill-rule="evenodd" clip-rule="evenodd" d="M344.089 439.333C344.033 438.665 343.976 437.998 343.919 437.333C343.976 438.002 344.033 438.667 344.089 439.333Z" fill="black"/>
<path fill-rule="evenodd" clip-rule="evenodd" d="M452.347 187.333C452.358 186.666 452.368 185.999 452.38 185.333C452.368 186.002 452.358 186.668 452.347 187.333Z" fill="black"/>
<path fill-rule="evenodd" clip-rule="evenodd" d="M389.648 327.774C390.639 327.703 391.628 327.631 392.617 327.559C391.627 327.631 390.639 327.703 389.648 327.774Z" fill="black"/>
<path fill-rule="evenodd" clip-rule="evenodd" d="M473.862 445.333C473.878 446.001 473.895 446.668 473.912 447.333C473.895 446.664 473.878 445.999 473.862 445.333Z" fill="black"/>
<path fill-rule="evenodd" clip-rule="evenodd" d="M476.484 170.46C477.474 170.376 478.464 170.291 479.453 170.206C478.464 170.291 477.474 170.376 476.484 170.46Z" fill="black"/>
<path fill-rule="evenodd" clip-rule="evenodd" d="M489.371 340.667C489.439 339.999 489.508 339.332 489.574 338.667C489.507 339.335 489.439 340 489.371 340.667Z" fill="black"/>
<path fill-rule="evenodd" clip-rule="evenodd" d="M523.528 162.667C523.585 161.999 523.642 161.332 523.698 160.667C523.642 161.334 523.585 162.001 523.528 162.667Z" fill="black"/>
<path fill-rule="evenodd" clip-rule="evenodd" d="M453.084 105.333C453.098 106.001 453.111 106.669 453.127 107.333C453.113 106.665 453.099 105.999 453.084 105.333Z" fill="black"/>
<path fill-rule="evenodd" clip-rule="evenodd" d="M426.758 92.889C427.747 92.963 428.738 93.0377 429.727 93.111C428.737 93.037 427.747 92.963 426.758 92.889Z" fill="black"/>
<path fill-rule="evenodd" clip-rule="evenodd" d="M278.32 471.797C279.31 471.71 280.299 471.623 281.289 471.536C280.299 471.623 279.31 471.711 278.32 471.797Z" fill="black"/>
<path fill-rule="evenodd" clip-rule="evenodd" d="M428.242 86.334C427.745 86.3333 427.248 86.3327 426.758 86.3327C427.256 86.334 427.75 86.334 428.242 86.334Z" fill="black"/>
<path fill-rule="evenodd" clip-rule="evenodd" d="M245.664 480.48C246.655 480.021 247.643 480.152 248.633 480.483C247.643 480.482 246.653 480.481 245.664 480.48Z" fill="black"/>
<path fill-rule="evenodd" clip-rule="evenodd" d="M630.859 441.786C632.591 441.706 634.324 441.627 636.055 441.547C634.324 441.627 632.591 441.707 630.859 441.786Z" fill="black"/>
<path fill-rule="evenodd" clip-rule="evenodd" d="M630.859 430.303C629.867 430.323 628.875 430.343 627.891 430.364C628.885 430.344 629.872 430.323 630.859 430.303Z" fill="black"/>
<path fill-rule="evenodd" clip-rule="evenodd" d="M616.016 417.081C617.253 416.996 618.49 416.911 619.727 416.827C618.573 417.478 617.253 416.996 616.016 417.081Z" fill="black"/>
<path fill-rule="evenodd" clip-rule="evenodd" d="M601.914 418.454C603.151 418.373 604.388 418.293 605.625 418.213C604.389 418.293 603.151 418.373 601.914 418.454Z" fill="black"/>
<path fill-rule="evenodd" clip-rule="evenodd" d="M581.133 430.437C582.122 430.368 583.112 430.299 584.102 430.229C583.112 430.299 582.122 430.368 581.133 430.437Z" fill="black"/>
<path fill-rule="evenodd" clip-rule="evenodd" d="M586.328 430.439C587.318 430.369 588.307 430.298 589.297 430.228C588.307 430.298 587.318 430.368 586.328 430.439Z" fill="black"/>
<path fill-rule="evenodd" clip-rule="evenodd" d="M590.039 429.785C591.028 429.706 592.018 429.628 593.008 429.549C592.019 429.627 591.029 429.706 590.039 429.785Z" fill="black"/>
<path fill-rule="evenodd" clip-rule="evenodd" d="M595.234 406.994C594.49 406.999 593.745 407.003 593.008 407.006C593.755 407.001 594.495 406.997 595.234 406.994Z" fill="black"/>
<path fill-rule="evenodd" clip-rule="evenodd" d="M613.789 443.721C614.779 443.647 615.768 443.571 616.758 443.496C615.834 444.079 614.791 443.743 613.789 443.721Z" fill="black"/>
<path fill-rule="evenodd" clip-rule="evenodd" d="M585.586 390.461C586.575 390.376 587.565 390.291 588.555 390.206C587.565 390.291 586.575 390.376 585.586 390.461Z" fill="black"/>
<path fill-rule="evenodd" clip-rule="evenodd" d="M581.875 379.668C581.13 379.667 580.386 379.666 579.648 379.666C580.397 379.666 581.136 379.667 581.875 379.668Z" fill="black"/>
<path fill-rule="evenodd" clip-rule="evenodd" d="M574.453 380.997C573.956 381 573.46 381.002 572.969 381.003C573.468 381.001 573.961 380.999 574.453 380.997Z" fill="black"/>
<path fill-rule="evenodd" clip-rule="evenodd" d="M556.641 382.854C556.391 383.402 555.08 383.332 555.16 382.77C555.653 382.798 556.146 382.826 556.641 382.854Z" fill="black"/>
<path fill-rule="evenodd" clip-rule="evenodd" d="M522.084 385.333C522.114 386 522.145 386.668 522.174 387.333C522.144 386.665 522.114 385.998 522.084 385.333Z" fill="black"/>
<path fill-rule="evenodd" clip-rule="evenodd" d="M623.438 388.867C624.179 388.856 624.922 388.845 625.664 388.834C624.931 389.304 624.187 389.238 623.438 388.867Z" fill="black"/>
<path fill-rule="evenodd" clip-rule="evenodd" d="M595.234 378.991C594.738 378.997 594.241 379.004 593.75 379.009C594.249 379.003 594.742 378.997 595.234 378.991Z" fill="black"/>
<path fill-rule="evenodd" clip-rule="evenodd" d="M575.938 421.124C576.927 421.041 577.917 420.958 578.906 420.876C577.916 420.958 576.927 421.042 575.938 421.124Z" fill="black"/>
<path fill-rule="evenodd" clip-rule="evenodd" d="M564.062 422.45L567.031 422.217L564.062 422.45Z" fill="black"/>
<path fill-rule="evenodd" clip-rule="evenodd" d="M621.953 442.459C622.942 442.375 623.933 442.291 624.922 442.208C623.933 442.291 622.942 442.375 621.953 442.459Z" fill="black"/>
<path fill-rule="evenodd" clip-rule="evenodd" d="M586.328 446.472C587.319 446.147 588.311 446.036 589.297 446.48C588.307 446.478 587.317 446.475 586.328 446.472Z" fill="black"/>
<path fill-rule="evenodd" clip-rule="evenodd" d="M584.755 354.579L583.359 354.145C585.091 354.126 586.823 354.107 588.555 354.088C588.559 354.089 584.954 354.593 584.755 354.579Z" fill="black"/>
<path fill-rule="evenodd" clip-rule="evenodd" d="M571.484 343.001C570.244 343 569.004 343 567.773 342.999C569.015 343 570.25 343.001 571.484 343.001Z" fill="black"/>
<path fill-rule="evenodd" clip-rule="evenodd" d="M524.727 368.485C525.961 368.041 527.199 368.127 528.438 368.473C527.2 368.477 525.964 368.481 524.727 368.485Z" fill="black"/>
<path fill-rule="evenodd" clip-rule="evenodd" d="M599.688 357.655C598.943 357.663 598.198 357.671 597.461 357.679C598.208 357.67 598.948 357.663 599.688 357.655Z" fill="black"/>
<path fill-rule="evenodd" clip-rule="evenodd" d="M584.102 348.891C585.339 348.964 586.577 349.036 587.812 349.109C586.576 349.036 585.338 348.964 584.102 348.891Z" fill="black"/>
<path fill-rule="evenodd" clip-rule="evenodd" d="M568.516 355.785C569.753 355.706 570.99 355.628 572.227 355.549C570.99 355.628 569.753 355.706 568.516 355.785Z" fill="black"/>
<path fill-rule="evenodd" clip-rule="evenodd" d="M578.164 354.446C579.153 354.371 580.143 354.296 581.133 354.22C580.143 354.296 579.153 354.371 578.164 354.446Z" fill="black"/>
<path fill-rule="evenodd" clip-rule="evenodd" d="M570 348.224C570.99 348.297 571.979 348.37 572.969 348.443C571.979 348.369 570.989 348.297 570 348.224Z" fill="black"/>
<path fill-rule="evenodd" clip-rule="evenodd" d="M555.898 361.014C555.401 361.005 554.905 360.995 554.414 360.986C554.913 360.995 555.406 361.005 555.898 361.014Z" fill="black"/>
<path fill-rule="evenodd" clip-rule="evenodd" d="M571.484 354.375C570.987 354.347 570.491 354.32 570 354.292C570.499 354.319 570.991 354.347 571.484 354.375Z" fill="black"/>
<path fill-rule="evenodd" clip-rule="evenodd" d="M561.836 354.352C561.339 354.339 560.841 354.326 560.352 354.315C560.851 354.328 561.343 354.34 561.836 354.352Z" fill="black"/>
<path fill-rule="evenodd" clip-rule="evenodd" d="M588.555 353.732C588.555 353.904 590.79 353.028 590.781 353.843L588.555 353.732Z" fill="black"/>
<path fill-rule="evenodd" clip-rule="evenodd" d="M580.391 342.999C579.893 343 579.397 343 578.906 343.001C579.406 343 579.897 343 580.391 342.999Z" fill="black"/>
<path fill-rule="evenodd" clip-rule="evenodd" d="M316.914 311.384C317.718 308.438 317.499 306.133 320.361 308.016C321.932 309.049 324.522 314.29 324.325 316.066C324.083 318.256 322.972 319.129 320.677 318.432C318.039 317.629 316.992 313.588 316.914 311.384Z" fill="black"/>
<path fill-rule="evenodd" clip-rule="evenodd" d="M461.514 293.498C468.161 293.498 465.261 299.852 459.72 299.994C457.175 300.06 453.512 299.608 454.337 296.547C454.778 294.914 461.237 292.711 461.514 293.498Z" fill="black"/>
<path fill-rule="evenodd" clip-rule="evenodd" d="M390.223 306C395.021 308.085 388.27 317.242 383.91 314.975C378.328 312.074 388.25 307.306 390.223 306Z" fill="black"/>
<path fill-rule="evenodd" clip-rule="evenodd" d="M378.548 314.667C380.119 316.205 387.196 321.422 383.295 323.52C378.498 326.099 374.846 317.584 378.548 314.667Z" fill="black"/>
<path fill-rule="evenodd" clip-rule="evenodd" d="M298.121 310.667C296.56 307.955 298.707 300.86 303.474 302.157C308.27 303.462 300.76 309.947 298.121 310.667Z" fill="black"/>
<path fill-rule="evenodd" clip-rule="evenodd" d="M404.003 312.229C407.114 311.104 406.522 314.434 406.992 315.507C407.525 316.728 410.265 319.699 409.578 320.998C408.558 322.925 406.12 321.696 404.796 320.446C402.475 318.252 402.64 314.734 404.003 312.229Z" fill="black"/>
<path fill-rule="evenodd" clip-rule="evenodd" d="M356.577 315.315C353.983 315.315 347.792 308.598 351.429 307.471C355.945 306.072 359.72 315.809 356.577 315.315Z" fill="black"/>
<path fill-rule="evenodd" clip-rule="evenodd" d="M446.209 304.667C448.585 305.193 451.729 311.234 448.149 311.935C444.185 312.711 443.478 306.337 446.209 304.667Z" fill="black"/>
<path fill-rule="evenodd" clip-rule="evenodd" d="M431.807 316C429.944 312.777 429.485 305.879 434.034 311.416C435.019 312.615 436.036 312.13 435.53 314.109C435.088 315.836 433.322 316 431.807 316Z" fill="black"/>
<path fill-rule="evenodd" clip-rule="evenodd" d="M333.676 299.333C335.575 301.901 335.014 309.951 331.047 305.19C329.359 303.166 330.521 299.43 333.676 299.333Z" fill="black"/>
<path fill-rule="evenodd" clip-rule="evenodd" d="M429.124 57.3986C432.808 56.5443 433.691 64.3462 431.543 65.2062C428.535 66.4098 428.912 58.7037 429.124 57.3986Z" fill="black"/>
<path fill-rule="evenodd" clip-rule="evenodd" d="M662.147 453.766C658.728 453.586 653.938 452.749 659.117 450.569C662.403 449.188 667.289 449.092 670.759 449.659C673.151 450.049 676.739 451.83 673.09 454.138C670.953 455.489 664.744 453.832 662.147 453.766Z" fill="black"/>
<path fill-rule="evenodd" clip-rule="evenodd" d="M658.315 459.333C657.326 459.233 656.338 459.133 655.352 459.034C656.144 457.741 658.447 457.47 658.315 459.333Z" fill="black"/>
<path fill-rule="evenodd" clip-rule="evenodd" d="M662.773 453.638C663.766 453.657 664.758 453.677 665.742 453.696C664.747 453.676 663.76 453.657 662.773 453.638Z" fill="black"/>
</svg>
