<svg width="614" height="525" viewBox="0 0 614 525" fill="none" xmlns="http://www.w3.org/2000/svg">
<g clip-path="url(#clip0)">
<path fill-rule="evenodd" clip-rule="evenodd" d="M476.691 77.0173C476.908 79.1549 479.236 77.5225 479.454 78.6812C479.591 79.4092 477.195 81.216 476.678 81.7136C478.347 82.8607 480.478 80.2179 481.73 79.1105C482.374 79.9083 482.593 80.3273 482 81.2399C480.956 82.8511 481.003 80.7163 479.761 81.8374C480.278 82.8286 480.733 82.2605 481.39 81.9939C481.104 83.9011 481.745 82.6939 482.247 83.9018C482.654 84.8841 482.605 85.6101 482.726 86.7073C482.136 88.2522 481.547 89.7978 480.957 91.3427C480.248 93.2014 480.459 93.7989 478.723 93.1775C478.919 92.7919 480.217 90.9066 480.111 90.4431C479.992 89.9133 478.216 89.1805 477.747 88.7355C476.922 87.9528 476.931 87.2815 476.405 86.4407C476.614 85.6586 476.451 85.2929 475.916 85.3456L475.325 87.1578C475.374 88.4436 476.327 88.3233 476.889 89.5517C477.75 91.4316 477.268 90.3221 476.564 91.8349C475.873 93.321 475.796 95.218 474.66 95.9652C475.271 96.2707 475.881 96.5763 476.491 96.8812C475.066 98.664 478.03 97.7958 478.52 97.6229C478.018 98.8363 477.517 100.05 477.016 101.263C475.514 100.305 474.773 98.4876 473.773 96.9872L471.489 101.828C472.246 101.748 473.004 101.669 473.761 101.589C473.655 101.817 472.685 103.378 472.768 103.725C473.107 105.141 475.685 104.343 475.4 106.194C475.363 106.432 473.052 109.089 472.656 109.345C473.817 109.94 474.343 109.693 473.927 111.255L472.309 110.14C471.849 111.08 471.318 111.998 471.025 113.028C471.081 113.701 470.976 114.339 470.708 114.942C470.391 115.481 470.033 115.984 469.635 116.45C469.319 117.397 469.218 122.565 469.598 123.408C470.446 122.159 472.341 124.364 469.142 124.364C467.742 124.364 467.836 124.031 467.3 125.434C466.879 126.538 466.651 127.501 467.845 127.607C466.948 129.623 467.14 131.176 467.059 133.325C466.993 135.065 466.565 136.796 466.247 138.503C466.532 138.038 466.816 137.573 467.1 137.107C467.866 138.969 467.282 140.538 466.918 142.53C466.123 141.333 466.026 143.469 465.346 143.248C463.959 142.797 464.998 142.465 464.434 141.428C463.945 140.529 463.996 140.272 463.093 139.723C461.895 138.995 459.796 138.967 458.44 138.71C456.162 138.277 453.88 138.168 451.575 138.054C442.947 137.627 434.349 137.518 425.722 138.059C417.784 138.556 409.655 139.825 401.872 141.544C393.586 143.373 385.482 145.06 377.457 148.155C375.906 148.753 374.354 150.001 372.804 150.439C371.333 150.855 369.859 150.85 368.326 151.457C364.654 152.91 360.856 154.012 357.156 155.399C353.169 156.894 348.855 158.141 345.06 160.21C343.413 161.109 341.916 162.328 340.269 163.238C338.717 164.096 336.107 164.879 335.288 166.86C334.968 167.632 335.023 168.192 335.221 168.993C335.619 170.599 335.934 170.426 337.015 170.317C338.52 170.165 340.468 168.83 341.929 168.305C345.93 166.868 349.978 165.718 354.047 164.567C361.353 162.499 368.688 158.837 375.898 157.405C380.173 156.556 384.224 154.247 388.524 153.375C389.467 153.184 392.197 151.649 392.971 152.18C393.177 152.32 393.679 154.004 393.856 154.407C394.491 155.853 395.219 157.25 396.071 158.545C398.641 162.452 402.089 165.597 405.165 168.963C408.679 172.809 411.733 177.05 414.977 181.178C415.258 180.805 415.54 180.433 415.821 180.061C415.524 182.667 417.236 184.547 418.637 186.317C420.298 188.42 421.635 190.396 422.945 192.794C424.02 194.76 425.395 196.481 426.61 198.272C427.805 200.034 428.6 202.161 429.699 204.06C432.222 208.422 434.705 212.868 437.25 217.171C438.448 219.197 439.394 221.476 440.342 223.781C441.094 225.611 443.358 229.353 443.358 231.129C443.196 231.998 444.85 237.229 443.082 234.764C442.8 235.262 442.518 235.759 442.235 236.257C442.719 236.026 443.201 235.795 443.685 235.564C442.217 237.079 444.959 237.274 445.019 238.121C444.775 238.39 444.531 238.659 444.287 238.927C443.869 239.907 443.326 240.035 442.659 239.309C441.923 239.36 441.776 238.891 440.956 239.203C441.739 240.597 442.748 239.716 443.145 241.642C443.494 243.34 442.388 243.704 441.219 244.708L441.146 244.771L441.121 244.871C440.866 245.739 440.144 245.369 439.339 245.18C437.414 244.728 435.287 243.862 433.413 243.196C429.361 241.755 425.278 240.541 421.09 239.556C411.532 237.308 402.051 237.414 392.406 236.703C392.66 235.498 392.661 235.604 392.36 234.858C392.747 235.815 390.417 234.565 392.173 236.68C387.691 237.515 382.851 236.887 378.306 237.165C378.517 236.628 379.004 236.01 378.549 235.621C376.397 239.168 369.207 237.647 365.652 238.155C363.565 238.453 361.503 239.026 359.423 239.402L358.548 239.559C357.817 239.691 357.087 239.836 356.374 240.056C355.454 240.339 353.923 241.499 353.052 241.23C354.327 238.298 352.856 240.836 352.656 240.869C352.051 240.971 351.008 241.204 350.138 241.204C351.13 236.664 352.831 232.481 353.516 227.805C353.943 224.89 355.118 220.195 352.59 218.13C351.204 216.997 348.934 216.752 347.33 216.367C345.572 215.945 342.501 215.963 340.971 214.83C339.776 213.945 339.524 213.131 337.96 212.454C336.155 211.674 335.323 210.898 333.499 211.529C334.241 210.471 335.28 209.698 333.824 208.616C333.228 208.174 332.058 208.769 331.849 207.801C330.769 208.671 331.025 209.374 330.736 210.567C330.762 211.071 330.878 211.553 331.086 212.009C330.514 212.272 329.942 212.534 329.37 212.797C329.734 211.683 328.667 212.347 328.454 211.799C328.137 210.981 328.325 209.732 328.325 208.844C327.146 209.269 325.914 209.794 325.398 211.192C323.955 210.211 324.528 210.144 325.268 208.673C324.056 208.346 323.799 209.057 323.615 210.201C322.976 209.976 322.336 209.751 321.696 209.526C323.138 209.514 323.484 208.23 323.518 206.836C322.957 207.044 322.397 207.252 321.836 207.46C321.72 208.135 321.605 208.809 321.49 209.484C320.607 210.337 318.309 208.796 317.564 208.355C314.965 206.819 314.014 206.375 314.381 202.885C314.687 199.959 315.365 197.019 315.516 194.078C315.683 190.811 315.348 187.317 315.097 184.061C314.61 177.759 313.827 171.548 313.552 165.22C313.404 161.794 313.238 158.367 313.12 154.939C313.027 152.214 312.202 149.216 315.183 148.974C314.819 147.654 315.911 146.129 317.038 145.406C317.431 144.383 317.862 144.291 318.33 145.133C318.737 145.278 319.115 145.21 319.464 144.926C321.106 144.502 323.075 141.846 324.549 140.888C325.994 139.95 329.145 138.585 330.177 137.005C331.174 135.476 329.665 135.648 329.97 134.246C330.387 132.331 331.903 135.082 332.136 135.465C332.642 134.884 334.578 133.796 334.555 132.952C334.081 132.856 333.607 132.76 333.133 132.663C333.651 132.322 334.8 131.304 335.403 131.169C336.427 130.94 336.043 130.644 336.864 131.931C337.149 131.427 337.843 129.769 338.278 129.433C338.486 129.273 339.718 129.166 339.977 129.062C341.319 128.521 341.183 127.331 342.17 126.765C342.648 126.491 343.237 126.912 343.639 126.713C344.28 126.393 344.282 125.301 344.864 124.905C345.368 124.562 346.645 124.847 347.246 124.598C348.243 124.183 348.199 123.796 348.943 123.039C349.985 121.977 350.945 122.131 352.107 121.327C353.311 120.493 353.126 118.615 354.219 118.256C355.678 117.779 356.051 119.354 356.844 117.798C357.023 117.448 356.214 116.926 356.721 116.366C357.347 115.675 357.606 116.499 357.894 117.036L358.884 114.905C360.472 115.896 359.805 114.618 361.017 113.937C361.555 113.635 361.998 114.231 362.587 113.866C363.021 113.598 363.096 113.015 363.407 112.653C364.006 111.958 364.337 111.004 365.264 110.673C364.928 110.792 367.675 110.701 367.429 110.567C367.162 110.12 366.895 109.673 366.628 109.226C368.065 109.226 369.32 109.389 370.71 108.897C371.203 108.723 371.972 108.455 372.381 108.098C373.507 107.117 373.253 107.357 373.253 105.555C374.806 106.681 376.782 106.287 378.314 104.981C379.114 104.299 379.627 103.483 380.504 102.866C380.88 102.644 381.263 102.436 381.652 102.243C382.139 101.669 382.626 101.664 383.115 102.228C383.806 102.016 383.798 101.871 384.333 101.489C384.487 101.143 384.65 100.803 384.825 100.47C385.4 100.402 385.966 100.283 386.524 100.115C388.693 99.4501 390.003 97.8 392.016 99.2622C392.273 98.664 392.531 98.0652 392.787 97.4664C393.644 98.9921 394.23 97.5347 395.367 96.9168C395.844 96.6577 396.462 96.5934 396.893 96.3569L397.621 96.5531C397.826 95.8285 398.032 95.1039 398.237 94.3792C398.651 94.5631 400.293 95.5687 400.787 95.5154C401.494 95.4395 402.34 94.0744 403.025 93.8167C404.071 93.4236 403.696 93.9431 404.723 93.9513C405.513 93.9575 405.885 94.0853 406.568 93.3293C404.261 92.6463 407.171 92.3244 408.143 92.0933C409.657 91.7337 410.437 92.1179 411.489 90.7541H410.397C411.474 89.6365 411.111 90.0309 412.246 90.1403C412.603 90.1738 414.157 91.1465 414.16 89.8491C415.626 90.8341 415.643 90.8362 417.154 90.3918C417.823 90.195 418.393 89.5544 419.129 89.5394C419.847 89.525 420.361 89.8949 421.001 89.8156C421.385 89.7691 422.726 89.1956 423.179 89.0076C423.898 88.7088 424.372 88.071 425.06 87.8243C425.816 87.5515 426.779 87.8755 427.574 87.6766C429.939 87.0832 431.326 85.47 433.886 86.3436C434.159 83.7316 437.015 84.3126 438.551 84.582C439.621 84.77 440.166 85.2635 441.274 84.6661C442.175 84.18 442.689 83.4089 443.693 83.0207C444.463 82.7226 445.5 82.5059 446.304 82.3159C446.801 82.1368 447.309 82.0793 447.828 82.1443C448.349 82.2276 448.786 82.4862 449.138 82.9188L449.203 83.0042C449.283 82.7886 450.494 81.7657 450.355 81.892C451.259 81.0669 451.683 81.3821 452.239 79.7756L450.301 79.3094C451.299 79.2329 452.049 79.1016 452.936 79.5439C453.549 79.8495 454.58 81.4689 455.195 81.4703C456.306 81.4716 456.694 79.6868 456.584 78.7578C457.516 81.2331 458.312 81.6453 460.406 80.3799C460.652 80.2309 460.898 80.0826 461.144 79.9335C461.642 79.3381 462.138 79.3491 462.63 79.967L463.508 80.5119C463.86 79.844 464.212 79.1768 464.564 78.5089C465.311 79.682 466.021 79.7394 467.24 79.4653C468.08 79.2759 469.804 77.5403 470.424 77.541C470.783 77.541 471.241 78.539 471.84 78.7338C472.832 79.0579 474.372 78.243 474.725 77.1616C474.913 77.6127 475.101 78.0646 475.288 78.5165C475.756 78.0174 476.226 77.5198 476.691 77.0173ZM441.114 244.762L441.113 244.801L441.146 244.771L441.147 244.769L441.114 244.762ZM439.898 242.407V244.509L440.522 244.639L441.114 244.762L441.12 244.647C441.147 243.636 440.692 242.887 439.898 242.407ZM384.722 234.044C384.527 234.725 384.333 235.407 384.139 236.088C384.794 236.148 385.45 236.209 386.106 236.271C385.644 235.528 385.183 234.787 384.722 234.044ZM307.716 180.181C309.149 180.658 309.13 180.6 309.417 182.112C311.055 190.719 305.988 200.59 309.708 208.771C298.834 208.671 287.937 208.918 277.126 210.371C277.126 205.684 277.261 201.008 276.95 196.328C276.809 194.204 276.599 192.088 276.409 189.97C276.168 187.281 276.245 187.438 278.175 186.976C279.189 186.732 279.551 185.999 280.52 185.553C281.248 185.217 281.574 185.63 282.291 185.745C283.574 185.951 283.589 185.706 284.764 185.42C287.287 184.807 289.429 185.026 291.423 182.879C292.456 182.777 292.121 183.868 292.841 183.761C293.365 183.683 293.698 182.569 294.232 182.303C295.894 181.474 298.66 181.676 300.478 181.417C302.335 181.153 303.978 180.198 305.756 179.915C306.488 179.799 307.022 179.95 307.716 180.181ZM328.693 205.02C328.342 206.508 326.802 204.571 326.778 205.738L326.78 205.842L326.783 205.815C326.864 205.619 328.421 207.968 328.329 207.89C329.166 208.608 329.653 208.541 330.601 207.716C328.904 207.643 329.091 206.45 328.693 205.02ZM333.421 207.123C334.041 207.511 334.23 206.518 334.551 205.912C333.859 205.519 333.757 206.433 333.421 207.123ZM331.504 200.649C331.745 201.615 331.728 202.356 331.728 203.354C333.16 203.123 333.611 203.004 333.637 201.267L332.871 201.816C332.47 200.909 332.381 200.839 331.504 200.649ZM320.419 202.267C320.743 202.029 321.067 201.79 321.392 201.552C320.913 200.767 320.063 201.7 320.419 202.267ZM324.042 187.825C324.455 187.578 324.87 187.33 325.284 187.083C324.209 185.521 324.131 186.045 324.042 187.825ZM322.544 175.436H320.916C321.235 176.629 322.544 176.886 322.544 175.436ZM482.102 105.995C482.474 106.242 482.846 106.49 483.218 106.737C482.251 107.741 481.063 108.753 482.004 109.93C482.752 110.865 486.243 111.31 487.288 111.651C486.926 112.127 486.178 113.427 485.683 113.754C485.291 114.013 484.933 112.987 484.143 114.009C485.454 114.784 485.102 114.197 484.762 115.841C484.561 116.811 483.842 117.853 483.437 118.723C482.451 120.84 481.442 122.944 480.407 125.031C478.285 129.311 476.051 133.52 473.704 137.645C473.308 135.315 474.44 132.704 475.027 130.457C475.766 127.628 476.506 124.8 477.249 121.974C478.684 116.527 479.972 111.137 482.102 105.995ZM425.147 113.102C424.086 113.41 423.391 113.611 422.295 113.93C423.888 114.508 423.888 114.508 425.147 113.102ZM472.112 102.603C470.759 103.325 470.614 103.849 471.709 104.732C471.839 104.045 471.934 103.541 472.112 102.603ZM471.947 85.5206C471.764 86.4373 470.626 85.5554 470.374 86.2253C469.798 87.758 471.631 87.5501 472.292 87.4579C472.177 86.8119 472.062 86.1666 471.947 85.5206ZM479.613 84.3571C479.25 86.3169 479.25 86.3169 480.927 86.6116C480.487 85.8569 480.118 85.2239 479.613 84.3571ZM449.203 83.0042L449.2 83.025C449.201 83.033 449.206 83.0382 449.215 83.0403L449.232 83.0412L449.203 83.0042Z" fill="#FF5678"/>
<path fill-rule="evenodd" clip-rule="evenodd" d="M237.207 288.282C236.952 289.774 236.317 290.477 236.983 291.848C237.548 293.012 239.17 293.774 240.258 293.479L237.207 288.282ZM207.721 235.204L202.353 237.302C203.82 238.943 205.219 240.668 206.836 242.126L207.721 235.204ZM296.271 240.577C293.711 239.106 290.843 238.939 288.036 238.751C288.462 241.378 288.89 244.006 289.317 246.633C291.635 244.614 293.954 242.595 296.271 240.577ZM234.791 443.942C234.28 442.911 230.795 434.941 230.071 435.35C229.687 435.567 229.657 440.004 229.6 440.635C229.401 442.88 229.201 445.124 229.001 447.369C231.062 446.539 233.264 445.851 234.791 443.942ZM210.442 379.511C210.969 381.272 211.497 383.033 212.024 384.795C212.275 385.632 212.422 386.868 212.865 387.607C213.442 388.565 213.007 389.129 213.776 388.08C214.602 386.952 214.849 383.946 215.208 382.565C215.753 380.467 216.298 378.371 216.842 376.273C214.275 376.249 212.719 378.658 210.442 379.511ZM156.5 275.782C153.344 278.242 150.149 280.682 147.402 283.739C149.818 283.567 153.182 285.462 155.458 284.572C156.508 284.828 156.855 284.373 156.5 283.207V280.784V275.782ZM203.301 293.181V307.541C206.248 304.679 209.35 302.019 212.185 299.009C209.224 297.066 206.263 295.124 203.301 293.181ZM308.653 330.39C307.723 336.783 307.671 343.362 307.417 349.831C307.372 350.98 306.984 352.709 307.655 353.714C308.328 354.722 310.246 355.281 311.221 355.82C313.964 357.336 316.689 358.895 319.424 360.43C315.834 350.416 312.243 340.403 308.653 330.39ZM378.298 291.074C385.065 287.282 391.833 283.489 398.601 279.696C391.966 276.493 385.33 273.291 378.695 270.089C378.563 277.084 378.43 284.08 378.298 291.074ZM308.639 308.931C309.876 309.032 310.071 303.661 310.276 302.24C310.665 299.544 311.065 296.85 311.474 294.157C312.294 288.775 313.155 283.4 314.061 278.036C315.875 267.309 317.874 256.623 320.091 245.995C317.709 245.505 315.521 245.153 313.195 244.363C311.316 243.725 309.079 244.072 307.402 242.744C307.185 247.724 308.275 253.019 308.679 257.999C309.146 263.761 309.398 269.493 309.356 275.281C309.275 286.498 308.901 297.718 308.639 308.931ZM152.871 460.906C154.044 460.55 152.447 442.221 152.376 439.578C152.172 431.925 152.132 424.266 152.252 416.612C145.933 421.129 139.468 425.289 132.793 429.041C134.508 431.578 136.116 434.314 138.014 436.675C139.97 439.107 142.214 441.099 144.027 443.718C147.676 448.992 150.176 454.979 152.871 460.906ZM304.924 352.476C305.218 346.963 305.49 341.461 305.978 335.965C306.186 333.625 308.169 321.196 304.994 321.487C303.188 321.654 300.02 324.667 298.364 325.723C296.177 327.118 293.987 328.508 291.788 329.881C287.451 332.591 283.084 335.241 278.731 337.918C287.462 342.771 296.193 347.624 304.924 352.476ZM286.073 237.838C282.457 237.531 278.961 237.224 275.394 236.457C273.471 236.042 271.547 236.1 269.614 235.82C268.228 235.62 265.521 234.323 264.231 234.748C262.61 235.281 262.021 244.544 261.798 246.869C261.439 250.614 261.196 255.157 262.664 258.675C265.491 265.456 273.111 260.163 276.817 257.319C279.995 254.879 283.594 252.41 286.412 249.449C288.908 246.826 286.668 241.227 286.073 237.838ZM304.827 311.581C307.552 310.324 307.509 308.747 307.628 305.497C307.772 301.548 307.855 297.595 307.954 293.645C308.131 286.605 308.297 279.562 308.242 272.518C308.189 265.638 307.893 258.768 307.203 251.93C306.958 249.513 307.201 245.383 306.084 243.321C305.064 241.439 301.898 241.419 300.17 241.536C298.223 241.666 296.645 243.775 295.208 245.108C293.616 246.585 290.345 248.665 290.084 250.867C289.792 253.327 290.977 256.837 291.436 259.222C293.116 267.929 295.159 276.551 297.312 285.119C299.545 294.008 301.808 302.987 304.827 311.581ZM235.604 290.739C235.779 288.783 236.418 287.149 235.555 285.286C234.813 283.683 233.605 282.074 232.698 280.557C230.102 276.212 227.19 272.05 224.362 267.899C221.771 264.098 219.117 260.337 216.402 256.65C214.89 254.597 213.331 252.589 211.782 250.572C210.647 249.096 209.571 247.022 207.966 246.25C206.783 254.724 205.806 263.236 205.043 271.773C204.675 275.9 204.357 280.033 204.09 284.17C204.015 285.338 203.22 289.281 203.728 290.369C204.262 291.511 207.527 293.04 208.527 293.74C211.321 295.698 213.492 298.647 216.149 295.429C217.979 293.213 219.452 290.089 221.497 288.155C222.562 287.147 223.565 287.194 224.76 286.596C226.15 285.902 226.193 285.232 227.854 286.178C230.651 287.77 232.35 290.123 235.604 290.739ZM95.5656 334.342C95.5656 340.21 95.2136 345.033 98.7021 349.783C101.751 353.934 104.918 354.894 109.206 356.532C111.731 357.496 111.907 356.607 113.953 354.979C115.898 353.432 118.015 352.192 119.933 350.596C124.066 347.158 128.196 343.611 132.213 339.994C133.563 338.778 133.364 339.193 133.159 337.734C132.971 336.404 132.134 334.712 131.676 333.447C130.849 331.159 129.874 328.945 128.898 326.735C127.791 324.227 126.826 321.504 125.451 319.166C124.88 318.196 124.202 317.318 123.536 316.434C122.134 314.571 122.183 314.64 120.506 316.162C116.966 319.377 113.671 322.857 109.686 325.371C104.972 328.346 100.268 331.341 95.5656 334.342ZM202.325 288.894C202.837 280.47 203.414 272.094 204.299 263.709C204.754 259.403 205.284 255.11 205.799 250.813C206.009 249.064 206.818 246.128 206.367 244.429C205.924 242.756 203.968 241.164 202.895 239.954C202.607 239.628 201.72 238.263 201.338 238.202C200.93 238.137 199.393 239.42 198.95 239.709C197.383 240.734 195.844 241.811 194.328 242.932C191.471 245.045 188.704 247.313 185.995 249.665C180.316 254.597 174.899 259.905 169.34 265.01C174.433 270.098 180.702 274.05 186.397 278.172C189.764 280.609 193.148 283.019 196.576 285.342C198.314 286.52 200.33 288.319 202.325 288.894ZM132.702 439.518C128.59 442.618 124.662 445.891 120.011 447.88C115.381 449.861 110.805 450.623 106.019 451.8C103.606 452.394 101.337 453.044 98.8742 453.459C97.4939 453.692 95.3575 453.602 94.0989 454.267C92.9783 453.995 92.5789 454.43 92.9021 455.574C92.9141 455.929 92.9261 456.285 92.9381 456.64C93.2553 461.585 96.0429 467.535 98.4743 471.554C99.8936 473.902 101.702 476.086 103.499 478.058C105.528 480.286 106.698 481.857 109.526 480.924C114.294 479.35 118.501 476.183 123.333 474.787C127.156 473.682 130.331 471.367 134.059 470.168C138.656 468.69 143.205 467.006 147.866 465.772C145.784 461.19 143.922 456.42 141.257 452.223C138.523 447.917 135.509 443.778 132.702 439.518ZM157.926 285.355C166.527 287.307 175.849 289.114 183.547 294.176C186.551 296.151 190.359 299.205 191.239 303.291C192.29 308.174 188.155 311.199 184.702 312.724C180.555 314.554 176.041 315.255 171.647 315.832C169.321 316.138 166.984 316.304 164.648 316.456C162.757 316.579 159.549 316.105 157.821 316.959C156.738 316.713 156.362 317.214 156.695 318.461C156.674 318.909 156.654 319.357 156.635 319.805L156.455 323.831C156.336 326.513 156.217 329.194 156.097 331.875C155.837 337.716 155.577 343.557 155.317 349.398C159.822 346.216 163.453 341.66 167.856 338.265C169.949 336.651 172.027 335.034 174.112 333.425C174.986 332.751 175.52 331.806 176.381 331.177C177.522 330.344 178.534 329.843 179.604 328.751C183.975 324.294 188.836 320.442 193.472 316.35C195.578 314.491 197.884 312.782 199.887 310.788C201.986 308.699 201.696 306.979 201.644 303.976C201.59 300.796 202.614 296.849 202.139 293.783C202.538 292.742 202.231 292.095 201.221 291.841C200.546 291.348 199.871 290.856 199.196 290.364C197.85 289.382 196.504 288.401 195.158 287.42C189.803 283.516 184.448 279.611 179.093 275.707C176.418 273.757 173.743 271.807 171.068 269.856C170.321 269.312 167.884 266.851 167.046 266.924C166.191 266.998 164.707 268.901 164.066 269.506C163.083 270.435 162.128 271.411 161.066 272.224C160.536 272.643 159.983 273.016 159.408 273.345C158.487 273.446 158.168 274.022 158.448 275.073C157.64 278.029 158.084 282.251 157.926 285.355ZM277.196 424.703C275.248 414.323 272.736 402.031 265.14 394.97C257.436 387.809 246.172 390.576 240.145 398.986C237.127 403.198 235.255 408.178 233.865 413.339C232.438 418.635 230.336 425.536 230.721 431.137C230.889 433.593 232.735 436.232 233.789 438.374C234.878 440.587 235.6 443.76 238.165 442.993C242.142 441.805 246.187 439.076 249.909 437.123C253.674 435.147 257.637 433.521 261.54 431.612C264.132 430.346 266.822 429.382 269.407 428.097C271.859 426.879 275.093 426.585 277.196 424.703ZM392.279 362.877C397.712 365.094 400.535 361.545 404.358 357.55C407.979 353.766 411.902 350.127 415.237 346.013C418.676 341.772 421.395 336.76 424.039 331.862C426.712 326.911 430.325 321.564 431.971 316.05C432.808 313.245 433.165 310.138 433.693 307.239C433.82 306.541 434.672 303.944 434.402 303.357C434.029 302.549 431.657 302.464 431.006 302.346C425.822 301.412 420.329 301.365 415.13 302.201C405.07 303.817 396.657 310.249 393.477 321.495C389.75 334.679 391.541 349.332 392.279 362.877ZM357.056 248.524C356.973 250.807 361.772 251.441 363.016 251.973C365.89 253.203 368.749 254.501 371.54 255.955C377.288 258.951 383.418 260.903 388.923 264.524C400.788 272.332 413.67 277.835 425.657 285.303C427.525 286.467 431.175 289.27 433.308 289.033C434.442 288.907 433.597 289.948 434.333 287.893C434.597 287.153 434.685 286.191 434.834 285.399C435.278 283.025 435.621 280.629 436.12 278.268C436.941 274.382 437.779 270.776 438.125 266.782C438.272 265.09 438.433 263.399 438.45 261.697C438.468 259.972 438.817 255.648 438.134 254.155C437.681 253.164 437.59 253.504 436.458 253.224C435.809 253.065 435.129 252.732 434.503 252.509C433.035 251.989 431.565 251.488 430.025 251.335C428.504 251.183 427.533 250.656 426.107 250.349C424.61 250.028 423.073 250.418 421.548 249.969C419.902 249.485 419.117 249.042 417.397 249.227C415.729 249.407 415.25 248.986 413.617 248.467C412.254 248.035 410.63 248.337 409.21 248.206C407.491 248.046 405.777 247.802 404.057 247.646C396.322 246.948 388.495 247.983 380.742 247.901C376.526 247.857 372.401 248.566 368.191 248.347C364.512 248.156 360.709 248.201 357.056 248.524ZM377.179 295.001C373.416 296.635 369.927 299.288 366.439 301.574C362.416 304.209 358.566 307.009 354.843 310.169C348.583 315.483 341.279 321.855 339.631 331.128C337.941 340.645 345.19 348.443 351.987 352.337C359.738 356.777 368.755 359.073 377.246 360.769C376.338 338.86 376.552 316.916 377.179 295.001ZM264.613 346.579C262.33 347.299 260.398 348.839 258.28 349.978C256.383 350.999 254.548 351.769 252.776 353.082C249.889 355.224 246.542 357.058 243.523 358.714C236.055 362.811 228.804 367.899 221.409 372.439C219.45 373.643 218.807 374.403 218.144 376.88C217.423 379.571 216.744 382.28 216.049 384.98C215.402 387.499 214.368 390.191 214.64 392.85C214.878 395.162 215.927 397.344 216.718 399.453C218.71 404.762 220.869 409.986 223.1 415.169C225.102 419.821 226.929 424.757 229.499 429.034C231.496 417.157 233.289 403.85 241.031 394.799C248.768 385.756 261.111 385.628 268.567 394.964C272.109 399.398 274.264 404.983 275.959 410.595C276.848 413.543 277.446 416.547 278.019 419.592C278.631 422.845 278.48 424.571 281.628 423.585C284.128 422.802 286.778 422.177 289.229 421.285C290.5 420.822 291.74 420.302 291.797 419.157C291.871 417.711 290.163 414.75 289.659 413.39C287.054 406.369 284.45 399.347 281.845 392.326C279.017 384.701 276.188 377.077 273.358 369.454C271.947 365.65 270.535 361.846 269.123 358.043C267.835 354.575 266.762 349.427 264.613 346.579ZM377.39 287.289C377.432 283.823 377.483 280.356 377.522 276.889C377.546 274.823 378.354 270.828 376.776 269.352C375.797 268.438 372.895 267.736 371.657 267.11C369.215 265.876 366.57 265.325 364.114 264.098C354.493 259.293 344.48 255.292 334.573 251.419C332.438 250.584 330.254 249.9 328.104 249.078C326.943 248.634 322.644 246.027 321.57 246.709C320.629 247.306 319.92 254.415 319.619 255.891C318.906 259.386 318.224 262.889 317.569 266.399C315.026 280.024 312.893 293.745 310.91 307.49C316.179 305.208 321.23 301.256 326.208 298.2C331.38 295.026 336.534 291.86 341.741 288.759C343.21 287.883 348.381 283.86 349.591 285.439C351.532 287.973 346.907 290.945 345.693 292.031C340.996 296.23 336.035 299.891 331.013 303.553C325.809 307.35 320.393 310.704 315.162 314.431C313.274 315.776 310.26 317.414 309.518 319.686C308.563 322.609 309.252 326.162 310.121 328.954C312.256 335.817 314.594 342.595 317.066 349.308C318.19 352.36 319.343 355.398 320.518 358.425C321.917 362.031 323.752 362.793 326.8 364.452C339.784 371.52 353.271 378.228 365.742 386.408C363.655 389.15 358.567 384.647 356.508 383.506C352.693 381.394 348.875 379.289 345.063 377.17C337.962 373.224 330.897 369.199 323.755 365.348C328.332 377.215 333.733 388.65 339.722 399.666C338.21 400.25 338.579 400.281 337.63 399.243C336.83 398.371 336.294 396.66 335.752 395.564C334.633 393.299 333.528 391.025 332.401 388.766C330.061 384.077 327.636 379.46 325.5 374.643C323.893 371.021 322.648 364.69 319.345 362.864C315.23 360.588 311.06 358.372 306.945 356.064C306.945 374.107 308.083 391.75 309.752 409.682C309.837 410.586 310.597 413.255 309.064 412.994C308.372 412.876 308.139 407.928 308.018 406.895C307.46 402.158 306.987 397.41 306.6 392.652C305.83 383.158 305.411 373.625 305.357 364.09C304.369 373.361 303.382 382.631 302.394 391.901L300.991 405.079C300.745 407.386 300.499 409.693 300.253 412C300.14 413.06 300.212 414.446 299.885 415.457C299.371 417.048 299.544 416.926 297.933 417.651C299.473 405.58 300.896 393.488 302.154 381.374C302.769 375.463 303.345 369.547 303.875 363.626C304.018 362.033 304.158 360.44 304.294 358.847C304.363 358.035 304.978 355.424 304.637 354.749C304.299 354.081 302.061 353.383 301.416 353.042C300.005 352.296 298.595 351.55 297.185 350.799C292.609 348.361 288.036 345.903 283.51 343.345C281.53 342.226 279.454 340.497 277.301 339.901C275.157 339.307 273.598 341.007 271.765 342.089C270.339 342.93 266.978 344.051 266.025 345.48C265.138 346.811 267.892 352.134 268.616 354.097C270.656 359.634 272.697 365.172 274.738 370.709C278.876 381.936 283.015 393.164 287.153 404.392C288.165 407.136 289.176 409.88 290.188 412.625C290.836 414.384 291.918 419.396 293.491 419.592C294.187 419.679 295.33 418.815 296.003 418.567C297.007 418.198 297.934 418.203 298.941 418.008C300.787 417.651 302.703 416.566 304.516 415.804C309.174 413.846 314.003 412.582 318.699 410.754C323.417 408.917 328.058 406.853 332.757 405.016C337.025 403.348 341.332 401.447 345.432 399.274C349.762 396.979 354.202 394.956 358.421 392.412C366.106 387.778 373.707 383.45 380.497 377.766C382.093 376.43 383.794 375.088 385.373 373.657C386.757 372.401 389.399 370.851 390.342 369.2C390.701 368.571 391.01 367.336 390.59 366.589C390.14 365.786 388.146 365.86 387.214 365.717C384.275 365.267 381.337 364.816 378.399 364.367C378.624 366.57 378.852 368.771 379.016 370.982C379.13 372.543 379.94 376.668 378.849 377.891C377.348 376.265 377.831 371.404 377.696 369.239C377.624 368.081 377.883 365.816 377.428 364.789C376.93 363.664 375.553 363.679 374.305 363.371C369.014 362.066 363.771 360.971 358.651 358.903C350.002 355.411 339.663 349.513 337.731 338.138C335.717 326.28 344.567 316.006 352.019 309.392C356.48 305.433 361.227 302.004 366.136 298.822C368.43 297.335 370.723 295.847 373.032 294.392C373.872 293.863 376.63 292.772 377.073 291.847C377.527 290.9 377.294 288.368 377.39 287.289ZM192.34 469.402C191.92 469.636 191.499 469.87 191.08 470.103C195.748 454.938 200.373 439.841 204.276 424.39C206.16 416.933 208.068 409.483 210.017 402.047C210.858 398.84 212.924 394.422 212.35 391.099C211.729 387.503 210.239 383.677 209.087 380.257C201.71 385.544 194.178 390.56 186.678 395.607C179.955 400.133 173.117 404.158 166.346 408.636C162.877 410.93 159.298 412.48 155.677 414.354C152.735 415.878 153.877 420.535 153.92 423.646C154.068 434.63 154.061 445.653 154.646 456.622C154.859 460.617 154.584 465.205 156.815 468.53C159.669 472.782 162.315 477.117 164.918 481.593C165.893 483.27 169.988 492.349 171.516 492.15C172.513 492.021 173.431 488.344 173.93 487.473C175.005 485.594 176.576 483.977 178.007 482.464C184.185 475.929 191.041 471.326 198.167 466.549C205.406 461.697 212.814 457.181 220.19 452.58C221.856 451.54 223.651 450.79 225.306 449.728C225.96 449.308 227.257 448.641 227.669 447.891C228.285 446.769 228.076 443.659 228.205 442.317C228.467 439.576 228.939 436.728 228.965 433.967C228.989 431.239 227.55 428.895 226.508 426.517C221.93 416.073 217.483 405.604 213.5 394.843C210.36 407.338 207.064 419.774 203.983 432.287C202.375 438.821 200.437 445.248 198.549 451.681C197.586 454.967 196.616 458.251 195.654 461.537C194.904 464.097 194.515 467.844 192.34 469.402ZM258.081 233.927C255.655 233.957 253.455 233.551 251.082 232.973C250.211 232.762 249.446 232.672 248.564 232.583C247.563 232.483 246.654 231.865 245.777 231.744C245.114 231.653 243.956 231.97 243.323 232.212C241.855 232.773 241.901 232.49 241.84 234.432C241.744 237.434 241.672 240.436 241.528 243.435C240.959 255.24 239.859 266.931 238.352 278.621C238.047 280.985 237.193 284.084 237.663 286.431C238.086 288.546 239.689 290.806 240.748 292.581C242.927 296.231 248.057 298.034 251.666 299.069C255.472 300.161 259.423 300.563 263.039 301.536C264.041 301.806 265.191 301.33 266.259 301.601C267.246 301.851 268.013 302.469 268.926 302.916C271.162 304.011 273.66 304.212 275.969 305.057C280.547 306.733 285.45 306.632 290.033 308.241C291.204 308.652 292.216 309.689 293.344 310.043C294.374 310.367 295.436 309.986 296.514 310.167C298.8 310.551 300.931 311.441 301.458 314.239C302.856 312.977 303.05 313.309 302.809 311.358C302.654 310.107 302.043 308.584 301.708 307.378C300.856 304.303 299.998 301.231 299.146 298.156C297.461 292.071 295.785 285.982 294.232 279.852C292.841 274.369 291.577 268.844 290.473 263.277C289.911 260.446 289.441 257.603 288.96 254.757C288.82 253.931 288.959 252.619 288.231 252.069C287.571 251.571 286.03 253.359 285.332 253.935C280.462 257.958 269.29 269.854 263.201 262.836C259.922 259.058 260.113 252.414 260.47 247.532C260.688 244.531 261.15 241.569 261.667 238.618C261.796 237.882 262.586 235.517 262.297 234.992C261.984 234.428 258.733 234.092 258.081 233.927ZM429.221 299.589C430.518 299.755 431.814 299.921 433.11 300.087C432.992 298.893 433.098 297.097 432.702 295.985C432.153 294.447 430.811 294.276 429.334 293.639C426.998 292.632 424.616 291.756 422.305 290.672C417.291 288.319 412.301 285.934 407.284 283.581C405.085 282.55 402.501 280.862 400.114 281.704C397.539 282.614 394.998 284.465 392.591 285.82C389.866 287.356 387.142 288.894 384.418 290.433C383.141 291.155 381.863 291.876 380.586 292.598C378.579 293.732 378.313 293.846 378.154 296.435C377.348 309.678 377.408 323.434 377.759 336.695C377.939 343.462 377.738 350.265 378.163 357.021C378.196 357.54 378.162 360.472 378.448 360.872C378.849 361.435 381.678 361.625 382.353 361.767C384.988 362.316 387.641 362.498 390.304 362.77C389.676 347.367 387.373 329.158 394.311 315.069C401.28 300.915 416.177 297.849 429.221 299.589ZM308.067 148.057C308.848 146.028 310.193 144.315 311.343 142.535C311.965 141.572 313.041 140.422 313.439 139.296C314.006 137.694 314.003 138.037 313.156 136.633C312.356 135.307 312.372 135.207 311.134 134.97C310.092 134.771 308.982 135.11 307.918 134.892C306.842 134.672 303.884 133.639 304.562 131.686C304.532 131.772 306.244 130.81 306.377 130.643C306.807 130.109 306.943 128.971 307.155 128.326C307.839 126.257 308.079 124.918 307.317 122.715C306.179 119.427 301.681 118.453 298.881 119.56C297.48 120.112 296.682 121.284 296.053 122.757C295.653 123.692 295.561 125.043 295.044 125.857C294.264 127.083 294.216 126.947 292.6 126.73C290.543 126.455 288.856 125.554 286.906 124.926C284.783 124.241 283.402 125.634 281.547 126.757C278.198 128.786 274.963 129.49 271.211 129.812C267.033 130.171 263.161 129.022 259.024 128.726C260.097 134.363 262.873 138.939 265.091 144.042C265.481 144.94 266.111 145.857 266.126 146.896C266.142 147.874 264.899 149.205 265.039 150.014C265.338 151.741 268.672 153.123 269.934 153.609C273.506 154.982 277.573 157.671 281.504 156.591C283.66 155.999 284.82 152.119 286.848 151.834C289.569 151.45 287.534 155.445 287.028 156.819C290.89 157.488 295.785 156.92 299.482 155.427C301.335 154.68 302.905 153.563 304.595 152.457C306.701 151.078 307.139 150.7 308.067 148.057ZM240.482 231.941C233.596 232.071 226.61 230.941 219.709 231.98C218.111 232.22 216.533 232.607 214.962 233.018C213.833 233.314 210.247 233.564 209.494 234.521C208.808 235.394 208.803 239.413 208.662 240.546C208.347 243.068 208.431 243.939 209.842 245.89C214.484 252.307 219.318 258.533 223.893 265.022C228.287 271.255 231.893 278.219 236.335 284.364C238.707 276.493 238.849 267.046 239.5 258.792C239.847 254.391 240.163 249.987 240.46 245.582C240.742 241.386 241.703 235.941 240.482 231.941ZM151.362 314.9C152.159 314.9 153.428 315.184 154.203 314.9C155.267 315.286 155.622 314.831 155.27 313.535C155.287 313.081 155.304 312.627 155.321 312.173C155.432 309.25 155.555 306.327 155.673 303.403C155.783 300.73 155.889 298.057 155.981 295.383C156.045 293.558 156.853 289.033 156.206 287.385C155.772 286.277 154.742 286.528 153.49 286.366C152.298 286.213 151.103 286.07 149.918 285.86C148.415 285.593 146.748 284.979 145.217 285.363C143.68 285.749 142.562 287.367 141.356 288.397C139.447 290.024 137.496 291.592 135.571 293.194C132.072 296.108 128.608 299.074 125.138 302.032C123.705 303.253 123.429 302.829 124.128 304.585C124.56 305.669 125.543 306.896 126.141 307.876C127.333 309.827 128.52 312.784 130.048 314.367C132.272 316.671 138.442 315.208 141.397 315.192C144.765 315.172 148.013 315.232 151.362 314.9ZM160.082 314.709C163.003 314.383 165.954 314.524 168.858 314.076C172.014 313.589 175.148 312.867 178.298 312.327C181.439 311.789 190.993 309.611 190.05 304.267C189.054 298.618 181.739 295.234 177.692 293.335C171.371 290.369 164.771 288.781 158.122 287.104C157.288 292.168 157.408 297.605 157.256 302.736C157.173 305.523 157.1 308.314 157.102 311.104C157.102 311.775 156.9 313.168 157.14 313.792C157.705 315.261 158.362 314.709 160.082 314.709ZM150.475 317.136H131.829C134.589 323.648 137.197 330.281 140.172 336.67C143.134 343.034 146.949 349.031 150.311 355.139C151.162 354.083 152.52 352.938 153.099 351.68C153.74 350.29 153.722 348.244 153.827 346.634C154.099 342.456 154.223 338.241 154.315 334.053C154.396 330.386 154.538 326.743 154.785 323.084C154.839 322.282 155.615 318.114 155.171 317.429C154.775 316.819 151.29 317.142 150.475 317.136ZM227.264 189.278C230.409 189.277 233.558 189.232 236.703 189.292C239.558 189.347 243.276 188.781 245.891 190.456C251.217 193.869 240.57 202.633 238.411 204.839C241.901 206.281 247.35 203.419 250.768 202.107C254.994 200.485 259.303 199.396 263.614 198.126C264.691 197.809 269.314 197.188 269.898 196.247C270.477 195.314 269.179 189.684 269.049 188.497C268.928 187.381 269.03 185.64 268.622 184.59C268.872 183.329 268.484 182.887 267.457 183.265C267.102 183.264 266.748 183.262 266.393 183.261C263.77 183.285 261.145 183.423 258.524 183.523C249.516 183.864 240.726 184.32 231.794 185.923C227.642 186.668 223.453 187.585 219.323 188.5C215.845 189.269 216.431 189.915 219.678 189.925C222.218 189.933 224.736 189.503 227.264 189.278ZM485.683 113.754C486.218 113.054 486.754 112.352 487.289 111.651C485.984 111.226 484.68 110.801 483.376 110.377C481.989 109.925 481.243 110.029 481.86 108.262C482.632 106.049 486.16 105.796 487.856 105.712C493.694 105.425 499.827 107.542 505.373 109.408C508.079 110.319 510.201 111.727 512.491 113.601C513.49 114.419 514.645 115.188 515.519 116.171C516.428 117.192 516.807 118.5 517.695 119.524C519.153 121.203 521.018 122.039 521.733 124.463C522.553 127.244 521.574 130.428 520.36 132.854C519.128 135.315 517.299 137.177 515.813 139.414C514.634 141.188 512.171 146.037 516.02 145.475C518.055 145.178 520.694 141.221 522.159 139.645C524.258 137.384 526.323 135.071 528.547 132.966C530.518 131.099 532.789 129.185 535.426 128.857C538.204 128.511 539.593 130.539 540.947 133.004C542.224 135.33 542.429 137.6 543.327 139.98C543.761 141.128 544.313 141.768 544.567 143.019C544.959 144.943 545 147.043 545.199 149.004C545.514 152.085 545.809 154.508 545.286 157.527C544.795 160.352 544.662 163.353 544.249 166.228C543.781 169.483 543.392 172.753 542.931 176.01C542.54 178.769 541.055 182.698 542.512 185.264C546.013 191.429 550.212 182.353 551.318 178.962C553.262 173.004 554.251 166.491 555.967 160.41C556.885 157.158 557.687 153.876 558.213 150.509C558.649 147.725 558.435 144.333 559.773 141.853C560.813 139.926 562.664 138.463 564.695 139.051C567.236 139.788 568.212 143.975 568.96 146.521C570.933 153.235 570.207 159.282 569.403 166.13C569.032 169.3 568.677 172.476 568.038 175.594C567.607 177.697 565.822 181.954 568.476 183.098C572.238 184.721 576.226 172.415 577.298 169.636C580.106 162.358 581.181 155.14 582.338 147.341C582.604 145.548 582.807 143.717 583.205 141.955C583.551 140.421 584.584 138.87 584.677 137.336C584.77 135.801 583.879 134.73 584.792 133.222C585.553 131.968 586.926 131.892 588.168 131.881C591.083 131.855 593.872 133.315 596.584 134.373C599.108 135.359 602.842 137.52 605.562 136.824C597.024 126.941 588.508 117.171 578.325 109.474C573.596 105.9 568.864 102.465 563.753 99.5499C558.576 96.5974 552.644 94.6034 547.099 92.8172C544.084 91.8451 541.085 90.7438 538.107 89.6289C535.456 88.6363 532.788 88.4483 530.192 87.3224C524.553 84.8772 518.252 83.9297 512.413 82.1962C509.835 81.4312 507.228 80.775 504.644 80.0661C501.927 79.321 498.112 78.0269 495.344 78.1527C492.981 78.26 492.183 81.3478 491.046 83.4957C489.396 86.6135 487.988 89.8531 486.69 93.1788C484.032 99.9928 481.225 107.032 479.323 114.151C478.279 118.06 477.248 121.973 476.222 125.888C475.334 129.277 473.114 134.166 473.704 137.644C478.077 129.962 482.149 121.983 485.683 113.754ZM282.096 183.128C279.776 183.248 277.455 183.368 275.135 183.488C277.449 192.156 277.126 201.386 277.126 210.371C287.936 208.918 298.834 208.671 309.708 208.771C307.71 204.377 308.485 198.676 309.054 193.971C309.387 191.217 309.573 188.564 309.525 185.785C309.479 183.179 310.138 180.987 307.716 180.181C305.794 179.542 304.579 180.607 302.749 181.093C300.556 181.675 298.168 181.745 295.935 182.062C291.289 182.72 286.809 183.106 282.096 183.128ZM219.803 200.009C226.77 197.806 234.173 198.618 241.175 196.943C239.582 195.286 236.582 196.267 234.467 196.406C232.062 196.561 229.66 196.676 227.255 196.809C224.91 196.939 218.406 196.737 217.56 200.139C218.307 200.096 219.055 200.052 219.803 200.009ZM474.721 77.1806C465.604 78.0925 456.057 77.951 447.006 79.7646C436.641 81.8414 425.836 83.1443 415.786 86.8043C405.928 90.3952 395.873 92.9088 386.155 97.1252C376.707 101.224 367.608 105.585 358.711 111.067C354.356 113.75 350.119 116.595 345.968 119.676C341.915 122.685 337.474 125.151 333.548 128.34C330.052 131.179 327.036 133.783 323.988 137.261C320.73 140.98 317.56 144.799 314.298 148.512C311.576 151.609 313.299 159.182 313.472 163.304C313.711 169.019 314.124 174.653 314.739 180.33C315.324 185.74 315.926 191.555 315.153 196.953C314.828 199.223 313.708 203.143 314.243 205.408C314.671 207.223 317.509 208.553 318.957 209.144C320.729 209.868 322.538 209.563 324.355 210.483C326.385 211.512 328.096 212.794 330.252 213.335C332.908 214.001 335.896 214.562 338.626 214.582C341.151 214.601 343.685 215.533 346.202 216.107C350.298 217.043 354.295 217.334 354.04 222.965C353.746 229.461 351.485 235.036 350.138 241.203C351.959 241.203 353.229 241.336 354.895 240.6C356.842 239.741 358.918 239.513 360.964 239.142C365.482 238.323 369.887 238.06 374.436 237.537C382.768 236.579 391.245 236.694 399.584 236.795C403.806 236.846 408.385 237.217 412.549 237.967C416.821 238.736 421.245 239.216 425.384 240.691C428.876 241.935 432.482 242.783 436.045 243.882C437.651 244.377 439.573 244.779 441.091 245.332C443.289 246.136 444.463 247.848 447.001 247.81C446.287 242.45 444.61 237.478 443.597 232.163C442.541 226.612 440.433 221.701 438.106 216.465C437.068 214.129 436.3 211.65 435.299 209.295C434.187 206.674 432.622 204.504 431.279 202.054C428.529 197.043 425.595 192.222 422.894 187.175C420.536 182.769 417.843 178.545 415.262 174.291C412.424 169.615 408.481 166.085 405.261 161.795C403.902 159.983 402.608 158.299 401.085 156.636C399.682 155.105 397.693 151.716 395.545 151.557C394.311 151.465 392.173 152.257 390.996 152.682C388.817 153.468 386.505 153.981 384.255 154.673C381.792 155.432 379.372 156.418 376.905 157.139C375.918 157.426 374.746 157.29 373.81 157.616C372.832 157.957 372.05 158.71 370.98 159.055C365.7 160.763 360.451 162.702 355.132 164.256C349.656 165.857 344.096 167.22 338.789 169.488C337.777 169.92 336.651 170.943 335.873 170.271C335.293 169.769 334.919 168.352 335.072 167.525C335.581 164.772 339.444 163.777 341.304 162.672C346.289 159.709 351.241 157.62 356.598 155.608C359.237 154.618 361.866 153.561 364.541 152.706C366.778 151.992 369.106 150.783 371.393 150.417C373.426 150.092 374.871 149.179 376.89 148.37C379.864 147.179 382.922 146.2 385.945 145.182C391.111 143.442 396.586 142.711 401.872 141.544C414.117 138.84 426.831 137.487 439.326 137.654C445.625 137.739 452.215 137.529 458.441 138.71C459.942 138.995 463.098 138.94 464.133 140.476C464.689 141.3 464.388 142.527 464.53 143.421C464.771 144.929 465.493 145.632 466.118 147.006C467.448 139.571 468.975 132.294 470.691 124.968C472.243 118.338 473.679 111.587 475.752 105.05C477.946 98.1335 480.606 90.7999 483.885 84.4698C484.56 83.1669 486.243 81.0969 486.388 79.6395C486.538 78.1356 484.689 76.9708 483.419 76.8033C480.57 76.428 477.519 77.0706 474.721 77.1806ZM535.963 183.415C536.891 173.101 539.602 162.313 538.087 151.959C537.447 147.576 536.946 143.391 535.023 139.435C534.05 137.434 533.661 135.964 531.804 137.144C529.925 138.338 528.195 141.288 526.637 142.998C523.774 146.14 520.776 149.376 517.347 151.71C514.646 153.548 509.282 155.289 507.252 151.314C505.318 147.526 507.898 142.239 509.75 139.114C511.87 135.538 515.885 132.226 513.631 127.814C512.662 125.915 511.266 125.417 509.8 124.171C508.53 123.092 507.467 121.695 506.197 120.597C502.517 117.415 498.482 116.052 494.234 114.233C492.273 113.393 492.015 112.603 490.881 114.523C489.651 116.609 488.977 119.532 488.087 121.838C486.305 126.459 484.404 130.837 482.107 135.145C479.788 139.492 477.733 144.034 475.542 148.468C474.715 150.141 473.937 151.841 472.96 153.411C472.427 154.265 471.768 155.027 471.336 155.962C470.696 157.345 470.981 158.606 470.583 159.982C468.864 165.923 466.358 157.63 465.879 155.691C465.335 153.486 464.021 151.767 463.169 149.71C462.466 148.011 461.986 145.487 460.288 144.687C458.897 144.032 457.104 144.931 455.685 145.018C453.077 145.18 450.449 144.939 447.83 145.125C445.38 145.299 442.936 145.567 440.487 145.738C438.036 145.909 435.588 145.437 433.169 145.731C428.828 146.258 424.391 146.174 420.06 146.905C414.978 147.762 409.947 148.677 404.851 149.391C406.035 151.944 408.49 153.051 410.431 154.873C412.165 156.501 413.539 158.381 415.286 159.93C417.059 161.502 418.113 163.827 419.58 165.717C421.018 167.567 422.349 169.119 423.609 171.19C429.688 181.188 435.959 190.817 440.974 201.623C443.512 207.093 445.935 212.944 447.669 218.812C449.529 225.106 450.442 231.856 451.547 238.364C452.098 241.607 452.386 244.345 451.783 247.607C451.624 248.384 451.46 249.159 451.289 249.932C450.76 250.858 450.955 251.458 451.876 251.734C452.415 252.628 453.15 252.964 453.197 254.188C453.233 255.117 452.779 256.195 452.077 256.719C450.721 257.731 450.721 256.364 449.323 256.667C448.799 256.99 448.275 257.313 447.752 257.636C447.475 257.156 447.19 256.681 446.898 256.214C446.007 255.248 445.299 255.336 444.134 255.101C444.726 262.871 443.782 269.809 442.282 277.389C441.56 281.034 440.323 284.601 439.699 288.253C439.003 292.332 440.525 294.19 442.879 296.91C442.282 297.266 441.235 297.652 440.742 298.183C439.958 299.03 440.158 299.134 440.159 300.459C440.16 302.886 439.752 305.278 439.417 307.665C438.798 312.084 438.233 316.657 436.898 320.889C434.474 328.574 430.555 336.556 426.563 343.326C424.329 347.114 422.089 351.418 419.289 354.687C416.479 357.967 413.693 361.277 410.889 364.567C405.371 371.043 399.341 375.517 392.73 380.366C390.112 382.287 387.355 384.391 385.103 386.782C382.815 389.212 379.772 390.913 377.037 392.678C375.817 393.465 374.949 394.596 373.631 395.242C372.394 395.849 371.529 396.047 370.491 396.843C367.916 398.817 365.134 400.505 362.299 401.994C358.84 403.809 355.437 405.922 351.885 407.471C350.266 408.177 348.744 408.947 347.177 409.773C345.48 410.666 343.65 411.253 341.91 412.205C340.44 413.01 338.951 413.477 337.455 414.135C336.233 414.672 335.273 415.542 334.027 416.104C331.438 417.269 329.082 417.897 326.567 419.271C323.226 421.097 319.266 421.948 315.746 423.262C311.816 424.73 307.74 426.19 303.707 427.231C301.991 427.673 300.529 428.252 298.872 428.923C297.792 429.36 296.553 429.599 295.357 430.014C292.052 431.163 288.748 432.271 285.425 433.247C278.932 435.157 272.299 437.449 266.003 440.04C262.701 441.399 259.352 443.035 256.185 444.765C252.605 446.72 248.747 447.848 245.154 449.784C238.212 453.523 231.294 457.372 224.432 461.297C220.829 463.358 217.277 465.482 213.759 467.725C212.482 468.538 211.086 468.874 209.818 469.671C208.16 470.715 206.799 472.247 205.1 473.281C198.552 477.268 191.869 481.024 185.855 486.068C182.708 488.708 179.326 491.412 176.606 494.626C175.709 495.686 174.153 497.328 173.991 498.867C173.752 501.143 173.976 499.049 174.667 500.453C175.625 500.586 175.841 501.005 175.319 501.711C175.078 502.042 174.769 502.21 174.393 502.217C173.184 502.496 170.921 501.035 169.95 500.424C168.265 499.366 167.371 498.028 166.289 496.252C163.94 492.397 161.648 488.509 159.229 484.708C157.053 481.291 154.923 477.529 152.447 474.39C150.768 472.263 150.642 473.192 148.775 474.392C147.386 475.284 145.772 475.664 144.332 476.505C138.847 479.709 132.816 482.075 127.19 484.307C125.908 484.816 125.225 485.622 124.099 486.324C122.665 487.219 120.848 487.657 119.314 488.293C115.089 490.044 110.884 491.862 106.689 493.705C103.45 495.129 100.337 496.251 97.8015 498.878C96.7924 499.924 95.571 500.673 94.5288 501.731C93.3152 502.96 91.6741 504.962 90.1463 505.658L89.2157 506.486C88.5861 505.987 87.9559 505.489 87.3245 504.992C86.6985 504.498 86.072 504.006 85.4472 503.51C83.878 502.267 82.3202 501.005 80.7606 499.746C77.2235 496.888 73.6636 494.058 70.3736 490.831C64.5292 485.102 58.4647 479.68 52.3535 474.314C45.9395 468.682 39.6862 462.788 33.0521 457.494C27.0392 452.696 20.4789 448.643 14.6489 443.579C11.7144 441.03 8.7871 438.465 5.79085 435.996C5.62775 435.862 3.18974 434.156 3.16528 433.967C3.12378 433.618 3.92606 432.708 4.16291 432.416C5.28418 431.026 6.52657 429.789 7.64364 428.384C12.85 421.838 19.6478 422.067 26.8329 421.758C30.0912 421.618 33.6247 423.331 36.7193 424.497C40.5034 425.923 44.1539 428.016 47.8091 429.823C55.342 433.548 63.1165 436.731 70.7255 440.181C73.7176 441.537 76.6983 442.199 79.7401 443.132C82.8263 444.078 86.0054 443.176 89.3063 443.244C91.0193 443.279 92.6389 443.393 94.364 443.282C95.3881 443.216 96.5681 442.995 97.5797 443.015C98.3993 443.031 99.2502 443.417 100.004 443.319C103.307 442.892 106.794 442.294 110.2 441.805C113.581 441.319 117.071 441.077 120.407 440.317C122.087 439.934 123.745 439.392 125.362 438.743C126.765 438.179 129.316 437.538 130.467 436.396C131.497 435.374 131.047 435.361 130.472 433.693C130.245 433.034 130.01 432.035 129.673 431.4C128.762 429.684 127.882 429.145 128.412 426.997C129.346 423.213 132.528 420.797 135.252 418.933C141.388 414.736 147.001 409.352 153.462 405.791C166.776 398.455 178.909 388.925 191.893 380.868C206.165 372.012 219.666 361.62 234.137 353.138C247.606 345.243 261.014 337.302 274.595 329.655C281.227 325.923 288.727 322.507 294.744 317.613C291.411 317.141 288.067 316.532 284.722 316.194C283.17 316.038 281.6 316.183 280.057 315.902C278.331 315.587 276.7 314.792 274.978 314.461C272.016 313.891 269.353 312.733 266.389 312.307C263.212 311.849 260.099 310.784 256.906 310.486C250.227 309.862 244.199 307.053 238.344 303.514C236.895 302.638 235.704 303.139 234.315 302.543C233.55 302.216 232.738 300.906 231.878 300.202C229.512 298.265 227.48 295.978 225.231 293.861C220.503 305.96 211.218 314.188 202.357 322.304C197.869 326.413 192.998 329.898 188.464 333.93C184.949 337.057 181.756 339.856 178.004 342.342C174.401 344.728 171.016 347.95 167.581 350.816C165.253 352.759 162.524 354.225 160.048 355.913C158.025 357.291 154.075 359.346 153.524 361.846C153.072 363.889 153.953 366.32 151.219 365.38C148.771 364.54 146.996 361.441 145.57 359.259C141.882 353.611 138.442 347.772 135.019 341.916C133.18 346.008 130.008 348.955 127.076 351.989C125.294 353.832 123.445 355.543 121.521 357.188C120.588 357.987 119.644 358.769 118.709 359.566C118.341 359.88 117.506 360.363 117.268 360.806C116.71 361.843 117.049 361.373 117.136 362.626C117.271 364.589 117.846 366.133 116.871 368.014C115.956 369.779 113.962 370.533 112.563 371.739C109.237 374.61 105.739 377.66 102.048 379.902C101.21 380.41 100.418 380.851 99.6381 381.474C98.3358 382.513 98.5738 382.889 97.2613 381.894C95.2088 380.336 93.4358 377.75 91.5836 375.871C87.7029 371.935 83.779 368.049 79.8048 364.237C72.2312 356.97 64.4338 350.065 56.9543 342.669C49.8466 335.64 42.2267 329.589 34.8887 322.907C32.8758 321.075 30.8875 319.204 28.901 317.334C27.1321 315.669 24.2618 313.835 22.9535 311.705C21.0533 308.611 28.4861 304.383 30.7286 303.753C34.5955 302.668 39.5956 303.289 43.4685 304.178C47.5339 305.111 51.6736 308.233 55.4697 310.177C59.7485 312.368 64.1065 314.262 68.4171 316.33C70.3394 317.253 72.3775 317.989 74.1619 319.232C76.0555 320.55 77.7458 322.053 79.7593 323.16C82.0798 324.432 84.4908 325.62 86.9312 326.562C88.0369 326.989 89.2271 327.418 90.3892 327.59C92.0345 327.834 91.8114 326.97 93.1779 326.487C94.3394 326.077 94.6152 327.161 95.6597 327.462C96.6431 327.746 97.3782 327.459 98.2296 326.856C100.128 325.512 101.818 323.66 103.717 322.261C105.478 320.963 107.42 319.75 109.072 318.281C109.808 317.626 110.353 316.728 111.078 316.063C112.241 314.997 112.702 315.42 114.059 314.686C115.169 314.085 116.176 312.966 117.232 312.225C117.887 311.765 119.477 311.184 119.9 310.44C121.01 308.486 119.115 307.128 117.417 307.704C117.163 306.016 115.858 302.009 116.421 300.427C116.92 299.027 118.23 299.288 119.331 298.547C123.471 295.761 126.526 290.698 130.399 287.425C134.05 284.338 137.271 280.654 140.888 277.51C143.986 274.818 147.372 272.189 150.193 269.285C153.529 265.852 157.799 263.181 161.425 260.116C165.172 256.951 168.653 253.43 172.359 250.228C175.925 247.149 179.428 243.932 183.092 241C186.385 238.365 189.837 235.958 193.061 233.287C194.828 231.824 196.759 230.539 198.776 229.578C200.781 228.623 202.535 227.502 204.492 226.473C208.383 224.429 213.45 223.016 217.681 222.43C222.333 221.786 227.004 221.208 231.7 221.204C234.201 221.202 236.631 221.744 239.117 221.917C241.402 222.074 243.872 222.733 246.141 222.646C247.168 222.607 248.061 222.111 249.055 222.271C249.886 222.405 250.608 222.976 251.499 223.076C253.484 223.299 255.478 223.077 257.485 223.369C262.094 224.04 266.709 224.998 271.328 225.531C276.249 226.099 281.127 226.206 286.022 227.163C290.806 228.098 295.62 229.066 300.376 230.147C310.484 232.444 320.697 234.687 330.644 238.097C332.97 238.894 335.309 239.652 337.544 240.745C338.629 241.275 339.671 241.918 340.802 242.314C342.422 242.882 342.741 243.097 343.576 241.547C345.013 238.88 345.804 235.352 346.847 232.45C347.878 229.578 349.13 226.684 349.727 223.685C347.989 223.371 345.796 223.981 344.003 224.051C341.81 224.137 339.641 224.083 337.451 224.068C333.036 224.038 329.584 222.551 325.407 220.99C321.886 219.674 317.198 218.92 314.512 215.906C313.072 214.291 312.593 214.007 310.428 214.297C308.245 214.588 306.088 215.092 303.883 215.175C295.574 215.489 287.302 217.142 278.955 217.469C276.697 217.557 271.049 218.777 271.419 214.411C271.496 213.505 272.105 212.719 272.224 211.786C272.351 210.786 272.131 209.77 271.994 208.793C271.667 206.48 271.326 204.169 271 201.856C263.389 204.641 255.682 206.897 247.925 209.103C244.709 210.018 239.541 212.121 236.218 210.968C233.004 209.853 234.866 204.692 235.866 202.222C229.482 203.883 222.673 206.599 216.163 207.223C214.183 207.413 212.255 207.912 211.794 205.183C211.427 203.008 212.805 200.348 213.508 198.437C208.512 197.929 203.338 197.977 204.278 190.676C205.14 183.978 210.021 182.644 215.218 181.42C221.632 179.909 228.182 179.405 234.638 178.182C240.256 177.118 246.384 175.931 252.121 176.469C255.158 176.752 258.213 176.817 261.248 177.138C262.681 177.289 264.058 177.542 265.445 177.987C266.723 178.398 268.512 179.67 269.823 179.692C271.802 179.728 274.187 176.678 276.315 175.973C278.951 175.099 281.791 174.941 284.514 174.727C287.601 174.485 290.693 174.351 293.777 174.066C294.481 174.001 297.139 174.199 297.694 173.729C298.502 173.045 297.964 169.535 297.908 168.094C297.855 166.76 298.081 164.262 297.27 163.739C296.508 163.248 294.289 163.922 293.539 164.059C290.433 164.626 287.481 164.561 284.386 164.417C282.956 164.35 281.583 164.785 280.167 164.571C278.649 164.342 277.12 163.759 275.607 163.435C272.33 162.733 269.344 161.859 266.521 159.766C264.042 157.929 261.109 156.686 259.724 153.469C258.709 151.113 258.297 146.567 261.28 145.898C259.248 142.557 257.846 138.804 256.769 134.944C256.574 134.244 256.444 133.19 256.152 132.579C255.121 130.42 256.078 132.335 254.607 131.472C253.153 130.619 252.104 129.944 250.968 128.462C249.157 126.097 248.394 123.187 248.165 120.106C247.854 115.922 247.274 111.204 247.81 107.041C248.738 99.8295 253.361 94.4113 258.058 90.05C260.608 87.682 263.965 86.8002 266.956 85.3632C269.843 83.9755 273.069 82.5209 276.11 82.1955C278.856 81.9015 281.533 80.8796 284.281 80.4673C288.059 79.9 291.841 80.1119 295.637 79.9396C297.384 79.8603 299.127 79.5794 300.866 79.3654C301.849 79.2444 303.51 79.3736 304.409 78.9299C305.881 78.2026 305.086 79.7297 305.612 77.5053C306.612 73.2739 307.429 69.3056 308.944 65.1938C310.355 61.3629 312.07 57.7003 314.335 54.4252C316.46 51.3531 319.216 49.1061 321.72 46.4818C323.575 44.5377 325.679 42.7815 327.795 41.2092C329.005 40.3103 330.353 39.8243 331.535 39.0306C333.003 38.0463 334.298 37.2998 335.949 36.6968C339.493 35.4035 343.009 34.0301 346.773 34.0978C350.831 34.1703 354.898 33.0936 358.849 34.4588C366.184 36.9942 369.778 46.0573 369.655 54.38C372.164 53.6664 374.356 52.2923 377.014 52.1748C379.461 52.0668 382.37 52.3088 384.774 52.8269C389.44 53.8325 394.239 56.7897 397.022 61.2713C399.675 65.5459 400.072 71.2211 398.441 76.0705C397.661 78.392 396.423 80.4571 395.103 82.4183C394.137 83.8566 391.979 85.4487 391.878 87.3757C409.938 81.1516 428.073 76.7643 446.756 73.9247C456.227 72.4857 465.713 73.2062 475.194 72.3839C479.244 72.0325 483.645 72.524 487.831 72.5424C489.599 72.5506 490.974 72.2704 492.256 70.9661C493.553 69.6467 494.59 68.0307 496.102 69.9352C496.488 70.4213 496.569 71.597 497.089 71.9628C497.718 72.4057 499.549 72.1015 500.302 72.1542C502.935 72.3374 505.504 72.8466 508.089 73.4332C512.832 74.5098 517.544 75.5981 522.231 76.9646C531.154 79.5671 539.96 82.084 548.754 85.1732C557.728 88.3253 566.796 92.2142 575.07 97.3166C579.078 99.7878 583.081 102.873 586.766 105.93C588.479 107.352 590.014 108.89 591.504 110.604C593.097 112.437 595.045 113.674 596.623 115.52C600.054 119.536 603.471 123.796 606.585 128.147C608.21 130.419 609.701 132.815 611.148 135.236C612.164 136.935 614.841 140.045 614.224 142.24C613.896 143.411 612.748 144.231 611.697 143.944C611.346 143.848 611.053 143.329 610.754 143.279C609.739 143.115 610.662 142.708 609.478 143.255C607.124 144.344 606.373 146.528 603.382 146.031C598.298 145.186 593.516 142.449 588.892 140.062C587.572 145.818 587.385 151.785 586.229 157.61C585.102 163.293 583.222 168.712 580.952 173.925C578.962 178.498 576.406 183.372 572.882 186.64C570.193 189.134 563.557 192.232 561.582 186.923C560.743 184.668 561.991 181.163 562.344 178.843C562.818 175.728 563.341 172.605 563.627 169.459C563.858 166.903 563.975 164.332 564.191 161.773C564.377 159.572 564.893 154.846 563.807 152.902C563.153 151.731 563.096 152.88 562.715 154.05C562.254 155.469 561.87 156.875 561.532 158.336C560.814 161.44 560.166 164.566 559.487 167.681C558.273 173.247 556.937 178.691 554.408 183.695C552.162 188.139 549 193.015 544.196 193.743C541.947 194.083 539.015 192.911 537.298 191.184C535.372 189.246 535.948 186.049 535.963 183.415Z" fill="black"/>
<path fill-rule="evenodd" clip-rule="evenodd" d="M426.266 410.696C428.906 410.102 431.128 407.7 433.285 405.895C436.034 403.593 438.643 401.085 441.313 398.668C446.345 394.111 450.91 389.114 455.251 383.68C463.817 372.958 470.265 359.157 473.196 345.057C474.679 337.922 476.513 329.562 475.672 322.189C475.379 319.628 474.933 319.158 472.73 318.867C471.735 318.736 469.21 318.409 468.314 318.855C465.993 320.012 464.739 324.933 464.051 327.406C462.017 334.708 460.82 342.271 458.983 349.633C457.181 356.849 454.278 364.171 451.407 370.919C445.019 385.933 436.14 398.495 426.266 410.696ZM478.638 327.801C477.059 348.247 472.08 367.727 460.916 384.192C455.609 392.018 449.368 398.827 442.604 405.013C435.62 411.399 428.487 417.414 420.562 422.178C418.453 423.446 416.341 424.709 414.206 425.918C413.023 426.589 410.035 429.058 408.669 428.668C407.576 428.354 407.29 427.389 407.119 426.134C406.737 423.317 408.342 421.911 409.965 420.102C416.486 412.834 423.027 405.54 429.124 397.809C441.165 382.54 450.21 364.256 455.237 344.528C456.786 338.453 458.168 332.311 459.84 326.28C460.858 322.605 462.302 316.065 465.686 314.233C467.501 313.25 469.616 314.206 471.523 313.617C473.313 313.065 474.499 311.939 476.025 313.828C478.701 317.143 478.821 323.646 478.638 327.801Z" fill="black"/>
<path fill-rule="evenodd" clip-rule="evenodd" d="M1.625 445.77C0.288468 446.31 0.232705 446.845 -0.379496 445.278C-0.687696 444.488 -0.60435 443.406 -0.531797 442.585C-0.357911 440.619 0.549898 438.802 1.29581 437.059C8.31604 443.661 15.6055 449.611 23.133 455.444C31.1833 461.682 38.8697 468.618 46.4836 475.528C53.3017 481.716 60.202 487.722 66.9488 493.987C70.2029 497.01 73.9127 499.352 77.0061 502.466C79.5059 504.983 83.6516 506.111 85.7826 509.072C82.4056 511.373 77.8971 513.225 74.1549 511.234C70.0266 509.039 66.8601 506.177 63.1863 503.201C61.2933 501.668 59.3248 500.276 57.4019 498.792C55.7116 497.487 54.5177 495.583 52.8064 494.359C49.21 491.787 45.5206 488.953 42.1082 486.015C38.6029 482.999 34.7282 480.599 31.3464 477.393C27.8795 474.105 23.9988 471.927 20.379 468.934C12.7076 462.593 5.95238 455.459 1.625 445.77Z" fill="black"/>
<path fill-rule="evenodd" clip-rule="evenodd" d="M208.6 109.015C208.504 109.599 208.409 110.182 208.314 110.767C208.372 110.782 212.962 100.672 213.723 99.4507C216.302 95.3115 219.659 91.8676 222.895 88.4106C229.75 81.088 237.773 75.1776 244.49 67.7244C246.7 65.2724 250.66 61.557 249.786 57.411C248.917 53.2903 241.582 54.1277 239.071 55.3199C235.133 57.1895 231.935 61.0997 229 64.5067C225.8 68.2234 222.573 71.8984 219.86 76.1046C216.935 80.6402 214.159 85.5525 212.366 90.8162C210.358 96.7129 209.574 102.815 208.6 109.015ZM210.107 127.105C206.992 128.201 210.897 128.94 209.677 130.838C208.339 132.919 206.089 126.507 205.753 125.297C203.77 118.144 204.657 109.455 205.74 102.193C206.286 98.5299 206.64 94.8064 207.377 91.1826C208.097 87.6491 209.663 84.2913 211.111 81.0771C214.009 74.6458 217.846 68.6541 222.201 63.4103C226.569 58.1493 231.438 52.8856 237.202 49.6468C241.965 46.9719 249.514 48.8278 251.743 54.6705C254.021 60.641 250.941 67.1447 247.297 71.3427C242.545 76.8176 237.367 82.2556 232.028 86.9765C229.285 89.4032 226.986 92.3379 224.32 94.8699C221.484 97.5653 219.029 100.276 216.932 103.762C214.9 107.14 212.81 110.515 211.489 114.349C210.044 118.548 210.107 122.663 210.107 127.105Z" fill="black"/>
<path fill-rule="evenodd" clip-rule="evenodd" d="M85.5106 384.576C78.3525 379.322 71.1703 374.708 64.9368 368.007C58.7824 361.39 53.4051 353.929 46.5552 348.188C43.1374 345.324 39.6099 342.635 36.2527 339.677C33.0663 336.87 29.4039 334.465 26.524 331.263C22.6853 326.993 15.4984 319.06 20.4026 312.695C26.4898 320.948 34.8418 327.454 42.4562 333.72C50.485 340.327 57.8542 348.034 65.4698 355.233C72.8061 362.166 80.1177 369.164 87.2764 376.282C89.1562 378.151 90.9694 380.115 92.8714 381.955C93.104 382.18 95.0756 383.604 95.0756 383.982C95.0756 384.892 93.5478 385.459 93.0033 385.712C92.1441 386.111 89.82 387.104 88.8456 386.768C88.3347 386.592 88.3258 386.117 87.9576 385.836C87.7459 385.38 87.4989 384.952 87.2183 384.548C86.6486 384.559 86.0796 384.568 85.5106 384.576Z" fill="black"/>
<path fill-rule="evenodd" clip-rule="evenodd" d="M506.905 292.956C501.803 292.807 494.035 292.789 494.321 300.733C494.463 304.667 496.334 307.556 497.871 310.92C499.484 314.456 500.68 318.108 501.154 322.072C503.07 338.114 497.93 353.786 493.281 368.616C503.265 359.429 510.476 346.646 514.261 332.634C516.097 325.839 516.811 317.106 516.218 310.03C515.921 306.49 514.776 303.316 513.397 300.162C512.704 298.577 512.012 296.768 510.907 295.486C509.801 294.2 508.267 293.772 506.905 292.956ZM489.105 377.804C485.809 371.623 490.999 362.524 492.696 356.497C494.725 349.292 496.597 341.79 497.464 334.275C498.372 326.404 497.2 320.284 493.999 313.331C491.137 307.115 489.439 298.837 492.62 292.26C493.902 289.613 495.793 289.287 498.043 288.231C500.803 286.936 501.564 284.744 504.951 285.091C510.996 285.71 513.793 292.246 516.041 297.815C521.284 310.796 519.859 327.549 515.388 340.584C512.814 348.085 509.879 355.873 505.51 362.26C503.367 365.391 500.849 368.106 498.236 370.718C495.409 373.544 492.876 376.949 489.105 377.804Z" fill="black"/>
<path fill-rule="evenodd" clip-rule="evenodd" d="M143.924 152.423C135.956 154.249 128.684 158.344 127.407 168.554C126.247 177.833 131.791 186.417 138.599 190.761C145.962 195.46 155.188 196.241 162.525 191.033C170.249 185.551 172.001 174.564 167.3 165.944C162.054 156.326 153.267 153.487 143.924 152.423ZM149.046 147.971C158.535 149.557 167.344 157.256 170.541 167.625C173.836 178.315 170.808 190.067 162.084 195.924C144.452 207.762 120.887 188.034 125.142 165.359C126.223 159.602 129.291 155.144 133.459 151.773C138.061 148.051 143.626 147.95 149.046 147.971Z" fill="black"/>
<path fill-rule="evenodd" clip-rule="evenodd" d="M486.435 39.4194C475.001 33.5255 463.566 27.6315 452.132 21.7376C451.664 27.6466 451.195 33.5549 450.725 39.4639C450.598 41.0628 450.079 43.238 450.3 44.8157C450.537 46.4994 450.031 46.3196 451.957 46.0804C454.419 45.7734 456.889 45.0803 459.326 44.5847C463.707 43.6933 468.366 43.439 472.653 42.1278C474.841 41.4586 476.937 41.3745 479.158 40.9698C481.597 40.5255 483.971 39.7024 486.435 39.4194ZM447.756 50.8423C447.756 44.1861 448.405 37.6195 448.94 30.9941C449.42 25.0332 449.606 19.3512 451.312 13.6719C452.907 16.9729 457.321 18.2923 460.053 19.991C463.818 22.3316 467.827 24.055 471.68 26.1871C475.464 28.281 479.11 30.6852 482.899 32.7742C484.82 33.8338 486.771 34.8223 488.688 35.89C489.889 36.5586 492.736 37.6346 493.482 38.876C495.749 42.6439 487.99 43.0083 486.492 43.3405C482 44.3393 477.456 44.9019 472.973 45.9286C468.793 46.887 464.606 47.7764 460.411 48.6452C456.259 49.5052 451.981 50.8423 447.756 50.8423Z" fill="black"/>
<path fill-rule="evenodd" clip-rule="evenodd" d="M95.1974 215.622C99.6993 215.088 104.183 214.32 108.68 213.813C112.938 213.332 116.705 212.821 120.595 210.596C115.282 208.77 109.957 207.04 104.599 205.39C101.941 204.572 99.2892 203.706 96.6197 202.942C94.5547 202.35 92.7546 202.009 91.9608 199.439C91.0368 196.448 93.6061 196.901 95.2076 197.661C97.4166 198.709 99.8228 199.361 102.112 200.232C107.222 202.177 112.363 203.966 117.521 205.735C119.124 206.284 128.415 208.317 125.067 211.851C123.635 213.364 120.438 214.194 118.687 215.28C116.44 216.674 113.994 217.229 111.495 217.783C106.286 218.938 100.881 219.382 95.6076 220.384C92.9147 220.896 90.2225 221.408 87.5302 221.92C85.9527 222.22 85.3453 222.19 84.9333 220.184C84.6335 218.727 85.0245 217.269 85.3123 215.857C86.0426 212.271 86.8551 208.702 87.6592 205.137C87.965 203.776 88.5064 197.796 89.5707 197.142C91.9853 195.658 90.1223 203.937 89.9431 204.951C89.2655 208.775 88.4608 212.572 88.0987 216.453C90.4701 216.208 92.835 215.954 95.1974 215.622Z" fill="black"/>
<path fill-rule="evenodd" clip-rule="evenodd" d="M159.031 246.067C159.924 248.624 158.441 249.196 156.641 250.082C154.306 251.231 152.009 252.444 149.632 253.479C144.63 255.655 139.593 257.675 134.711 260.193C125.4 264.994 115.963 269.604 106.796 274.745C104.518 276.022 102.238 277.295 99.9398 278.526C97.5629 279.799 94.8371 281.94 92.2942 282.668C90.0762 283.302 89.8448 281.501 91.1591 279.843C92.8536 277.704 95.4733 276.107 97.6013 274.62C106.359 268.5 115.918 263.518 125.483 259.308C136.539 254.441 147.626 249.771 159.031 246.067Z" fill="black"/>
<path fill-rule="evenodd" clip-rule="evenodd" d="M183.342 100.989C183.022 93.2141 183.934 85.4177 183.39 77.663C174.038 87.1144 178.646 101.721 184.025 111.976L183.342 100.989ZM187.39 100.545C187.449 104.343 187.638 108.139 187.314 111.918C186.974 115.885 188.606 117.928 190.734 120.85C188.927 122.94 184.781 118.066 183.637 116.629C181.28 113.671 179.526 109.74 177.965 106.187C174.641 98.6193 172.352 90.5167 175.012 82.2076C175.998 79.128 177.205 74.941 179.816 73.1479C182.683 71.1792 184.877 73.9559 186.066 76.812C188.971 83.7805 186.757 93.0651 187.39 100.545Z" fill="black"/>
<path fill-rule="evenodd" clip-rule="evenodd" d="M286.458 487.035C290.769 487.424 295.017 487.808 299.329 488.12C298.585 481.381 297.841 474.641 297.096 467.902C294.602 468.561 292.107 469.219 289.612 469.877C288.432 470.188 286.623 470.27 285.579 470.941C285.189 471.043 284.798 471.147 284.408 471.25C284.397 472.124 284.389 472.999 284.382 473.874C284.352 476.462 284.287 479.048 284.193 481.634C284.153 482.717 283.822 484.304 284.049 485.377C283.645 486.463 283.902 486.924 284.821 486.761C285.367 486.852 285.912 486.944 286.458 487.035ZM283.489 491.907C280.109 489.988 281.033 484.125 281.038 480.394C281.043 478.02 281.189 475.661 281.244 473.29C281.282 471.661 280.955 469.644 281.447 468.07C282.322 465.269 286.602 465.345 288.803 465.541C290.435 465.686 291.801 465.592 293.474 465.47C294.299 465.41 295.219 465.589 296.029 465.312C296.204 465.251 297.852 463.941 297.779 463.938C300.736 464.067 300.775 472.149 300.967 474.2C301.441 479.255 301.871 484.319 302.257 489.384C302.359 490.725 302.796 492.24 301.679 493.005C300.672 493.696 298.002 493.013 296.888 492.974C292.397 492.82 287.931 492.022 283.489 491.907Z" fill="black"/>
<path fill-rule="evenodd" clip-rule="evenodd" d="M494.481 191.594C496.435 193.598 495.496 195.667 494.856 198.172C494.472 199.675 492.357 204.611 492.941 206.017C493.615 207.642 496.782 208.042 498.137 208.556C500.496 209.45 502.865 210.348 505.098 211.608C506.088 212.168 509.661 213.455 510.331 214.499C510.715 215.098 510.855 215.567 510.566 216.339C510.06 217.694 509.337 216.977 508.102 216.686C502.461 215.357 496.867 213.658 491.635 210.855C490.176 214.715 488.941 218.658 487.707 222.618C487.345 223.779 487 226.416 485.626 226.604C483.951 226.833 483.928 224.275 484.039 222.895C484.201 220.879 485.118 218.731 485.67 216.823C486.127 215.248 487.727 211.969 487.53 210.346C487.395 209.229 486.798 209.307 485.733 208.868C484.728 208.454 483.722 208.041 482.717 207.622C481.106 206.95 479.501 206.276 477.933 205.479C477.073 205.042 475.272 204.531 474.649 203.623C474.287 203.096 473.885 201.199 474.341 200.674C475.408 199.445 482.502 202.755 483.961 203.206C484.929 203.507 485.901 203.736 486.84 204.129C487.196 204.278 487.617 204.885 488.001 204.908C489.633 205.002 489.763 203.571 490.269 202.037C491.445 198.47 492.721 194.832 494.481 191.594Z" fill="black"/>
<path fill-rule="evenodd" clip-rule="evenodd" d="M87.7176 262.547C86.8475 260.116 96.0821 257.178 97.7964 256.359C101.98 254.363 106.463 253.155 110.795 251.63C115.056 250.13 119.297 248.515 123.487 246.78C124.783 246.242 134.114 241.063 134.602 241.82C136.219 244.326 116.639 252.198 114.731 252.982C105.871 256.619 96.7225 259.411 87.7176 262.547Z" fill="black"/>
<path fill-rule="evenodd" clip-rule="evenodd" d="M484.897 72.3949C482.504 72.4222 479.051 73.1961 476.855 72.0886C479.536 72.1905 482.216 72.293 484.897 72.3949Z" fill="black"/>
<path fill-rule="evenodd" clip-rule="evenodd" d="M149.046 147.972L143.723 147.95C145.499 147.48 147.274 147.196 149.046 147.972Z" fill="black"/>
<path fill-rule="evenodd" clip-rule="evenodd" d="M426.229 146.35C427.484 146.343 428.74 146.335 429.986 146.327C428.728 146.335 427.479 146.343 426.229 146.35Z" fill="black"/>
<path fill-rule="evenodd" clip-rule="evenodd" d="M535.963 183.415C535.953 184.945 535.945 186.476 535.934 188C535.942 186.468 535.952 184.941 535.963 183.415Z" fill="black"/>
<path fill-rule="evenodd" clip-rule="evenodd" d="M288.803 465.541C287.47 465.651 286.138 465.76 284.806 465.87C286.139 465.76 287.471 465.65 288.803 465.541Z" fill="black"/>
<path fill-rule="evenodd" clip-rule="evenodd" d="M296.315 173.831C294.961 173.956 293.607 174.082 292.255 174.207C293.608 174.081 294.961 173.956 296.315 173.831Z" fill="black"/>
<path fill-rule="evenodd" clip-rule="evenodd" d="M436.399 145.847C437.357 145.845 438.315 145.843 439.265 145.841C438.305 145.843 437.352 145.845 436.399 145.847Z" fill="black"/>
<path fill-rule="evenodd" clip-rule="evenodd" d="M243.649 176.817C242.459 176.94 241.268 177.062 240.078 177.184C241.268 177.062 242.459 176.94 243.649 176.817Z" fill="black"/>
<path fill-rule="evenodd" clip-rule="evenodd" d="M296.232 79.9354C295.041 79.9436 293.851 79.9518 292.66 79.96C293.848 79.2422 295.039 79.4275 296.232 79.9354Z" fill="black"/>
<path fill-rule="evenodd" clip-rule="evenodd" d="M78.892 314.715C77.9015 314.655 77.0944 315.203 76.5356 314.126C77.45 313.313 77.9776 314.249 78.892 314.715Z" fill="black"/>
<path fill-rule="evenodd" clip-rule="evenodd" d="M262.603 224.061L259.512 223.664L262.603 224.061Z" fill="black"/>
<path fill-rule="evenodd" clip-rule="evenodd" d="M283.489 491.907C284.172 491.925 284.854 491.942 285.529 491.96C284.844 491.941 284.166 491.924 283.489 491.907Z" fill="black"/>
<path fill-rule="evenodd" clip-rule="evenodd" d="M442.132 74.6108C441.069 74.7195 440.004 74.8282 438.94 74.9369C440.004 74.8275 441.069 74.7195 442.132 74.6108Z" fill="black"/>
<path fill-rule="evenodd" clip-rule="evenodd" d="M104.853 442.686C103.831 442.69 102.809 442.696 101.787 442.7C102.81 442.695 103.832 442.69 104.853 442.686Z" fill="black"/>
<path fill-rule="evenodd" clip-rule="evenodd" d="M22.6828 422.027C21.6509 422.029 20.6196 422.031 19.5882 422.033C20.6202 422.031 21.6509 422.029 22.6828 422.027Z" fill="black"/>
<path fill-rule="evenodd" clip-rule="evenodd" d="M283.409 174.801C282.361 174.919 281.314 175.036 280.266 175.153C281.314 175.036 282.361 174.919 283.409 174.801Z" fill="black"/>
<path fill-rule="evenodd" clip-rule="evenodd" d="M254.181 176.739C253.15 176.604 252.12 176.468 251.09 176.333C252.111 176.56 253.246 175.662 254.181 176.739Z" fill="black"/>
<path fill-rule="evenodd" clip-rule="evenodd" d="M347.524 223.905C348.166 223.822 349.066 223.566 349.728 223.686C349.641 224.116 347.771 223.904 347.524 223.905Z" fill="black"/>
<path fill-rule="evenodd" clip-rule="evenodd" d="M282.146 316.079C282.838 316.094 283.529 316.109 284.214 316.122C283.52 316.108 282.833 316.094 282.146 316.079Z" fill="black"/>
<path fill-rule="evenodd" clip-rule="evenodd" d="M219.7 222.207C218.69 222.319 217.681 222.43 216.671 222.541C217.681 222.429 218.69 222.319 219.7 222.207Z" fill="black"/>
<path fill-rule="evenodd" clip-rule="evenodd" d="M106.652 218.284C107.203 218.301 107.753 218.318 108.296 218.335C107.743 218.318 107.198 218.301 106.652 218.284Z" fill="black"/>
<path fill-rule="evenodd" clip-rule="evenodd" d="M255.458 223.074C254.594 223.054 253.73 223.034 252.867 223.015C253.731 223.034 254.594 223.054 255.458 223.074Z" fill="black"/>
<path fill-rule="evenodd" clip-rule="evenodd" d="M95.1975 215.622C94.3244 215.745 93.4514 215.867 92.5796 215.99C93.4532 215.867 94.325 215.744 95.1975 215.622Z" fill="black"/>
<path fill-rule="evenodd" clip-rule="evenodd" d="M214.955 207.167C215.494 207.191 216.033 207.216 216.565 207.243C216.023 207.219 215.489 207.193 214.955 207.167Z" fill="black"/>
<path fill-rule="evenodd" clip-rule="evenodd" d="M256.087 310.547C256.634 310.506 257.181 310.466 257.721 310.424C257.172 310.464 256.629 310.506 256.087 310.547Z" fill="black"/>
<path fill-rule="evenodd" clip-rule="evenodd" d="M297.964 229.594C297.084 229.469 296.203 229.344 295.324 229.219C296.204 229.344 297.084 229.469 297.964 229.594Z" fill="black"/>
<path fill-rule="evenodd" clip-rule="evenodd" d="M85.5106 384.577C86.082 384.568 86.6534 384.56 87.2183 384.549C86.645 384.558 86.0772 384.567 85.5106 384.577Z" fill="black"/>
<path fill-rule="evenodd" clip-rule="evenodd" d="M38.5935 303.626C37.6833 303.521 36.7731 303.416 35.8623 303.312C36.7725 303.416 37.6827 303.521 38.5935 303.626Z" fill="black"/>
<path fill-rule="evenodd" clip-rule="evenodd" d="M19.1718 422.169C18.2772 422.287 17.3826 422.405 16.4873 422.522C17.3832 422.404 18.2772 422.287 19.1718 422.169Z" fill="black"/>
<path fill-rule="evenodd" clip-rule="evenodd" d="M506.86 146.185C506.79 147.067 506.719 147.948 506.647 148.827C506.718 147.944 506.788 147.065 506.86 146.185Z" fill="black"/>
<path fill-rule="evenodd" clip-rule="evenodd" d="M110.2 441.804C109.3 441.922 108.4 442.04 107.501 442.158C108.401 442.04 109.301 441.922 110.2 441.804Z" fill="black"/>
<path fill-rule="evenodd" clip-rule="evenodd" d="M101.37 442.822C100.459 443.547 99.5488 443.588 98.6374 442.824C99.5482 442.823 100.459 442.822 101.37 442.822Z" fill="black"/>
<path fill-rule="evenodd" clip-rule="evenodd" d="M84.1011 443.689C83.2179 443.69 82.3353 443.691 81.4527 443.692C82.3359 443.691 83.2185 443.69 84.1011 443.689Z" fill="black"/>
<path fill-rule="evenodd" clip-rule="evenodd" d="M187.39 100.545C187.314 99.6515 187.239 98.7587 187.163 97.8687C187.239 98.7635 187.314 99.6542 187.39 100.545Z" fill="black"/>
<path fill-rule="evenodd" clip-rule="evenodd" d="M283.841 80.5947C282.954 80.7198 282.067 80.8442 281.18 80.9687C282.067 80.8442 282.955 80.7198 283.841 80.5947Z" fill="black"/>
<path fill-rule="evenodd" clip-rule="evenodd" d="M286.986 80.1213C286.085 80.2362 285.182 80.3517 284.281 80.4672C285.183 80.3517 286.085 80.2362 286.986 80.1213Z" fill="black"/>
<path fill-rule="evenodd" clip-rule="evenodd" d="M146.918 199.173C147.473 199.163 148.028 199.153 148.576 199.144C148.018 199.153 147.468 199.163 146.918 199.173Z" fill="black"/>
<path fill-rule="evenodd" clip-rule="evenodd" d="M227.264 189.278C230.209 188.724 233.154 188.54 236.098 189.276L227.264 189.278Z" fill="black"/>
<path fill-rule="evenodd" clip-rule="evenodd" d="M305.805 151.512C306.418 149.686 306.57 149.001 308.067 148.057C307.444 149.831 307.346 150.779 305.805 151.512Z" fill="black"/>
<path fill-rule="evenodd" clip-rule="evenodd" d="M377.618 332.144C377.678 334.041 377.736 335.939 377.795 337.835C377.736 335.936 377.677 334.04 377.618 332.144Z" fill="black"/>
<path fill-rule="evenodd" clip-rule="evenodd" d="M484.415 76.7778C483.083 76.8121 481.751 76.8471 480.425 76.8814C481.759 76.8471 483.087 76.8121 484.415 76.7778Z" fill="black"/>
<path fill-rule="evenodd" clip-rule="evenodd" d="M306.945 365.872C306.992 367.453 307.038 369.036 307.084 370.616C307.037 369.033 306.991 367.453 306.945 365.872Z" fill="black"/>
<path fill-rule="evenodd" clip-rule="evenodd" d="M143.695 315.188C145.04 315.198 146.387 315.209 147.732 315.22C146.386 315.209 145.04 315.198 143.695 315.188Z" fill="black"/>
<path fill-rule="evenodd" clip-rule="evenodd" d="M258.082 233.927C257.27 233.935 256.46 233.944 255.657 233.955C256.47 233.947 257.276 233.937 258.082 233.927Z" fill="black"/>
<path fill-rule="evenodd" clip-rule="evenodd" d="M255.44 183.64C254.773 183.614 254.106 183.588 253.446 183.564C254.116 183.591 254.778 183.615 255.44 183.64Z" fill="black"/>
<path fill-rule="evenodd" clip-rule="evenodd" d="M160.082 314.709C161.134 314.592 162.186 314.474 163.238 314.357C162.186 314.474 161.134 314.592 160.082 314.709Z" fill="black"/>
<path fill-rule="evenodd" clip-rule="evenodd" d="M137.156 315.248C138.187 315.23 139.217 315.212 140.248 315.193C139.217 315.212 138.187 315.23 137.156 315.248Z" fill="black"/>
<path fill-rule="evenodd" clip-rule="evenodd" d="M148.16 315.218C149.227 315.112 150.294 315.006 151.362 314.9C150.295 315.005 149.227 315.112 148.16 315.218Z" fill="black"/>
<path fill-rule="evenodd" clip-rule="evenodd" d="M152.052 317.147C151.521 317.143 150.991 317.139 150.467 317.136C151 317.14 151.526 317.143 152.052 317.147Z" fill="black"/>
<path fill-rule="evenodd" clip-rule="evenodd" d="M377.153 289.959C377.232 289.066 377.312 288.175 377.39 287.286C377.312 288.179 377.232 289.069 377.153 289.959Z" fill="black"/>
<path fill-rule="evenodd" clip-rule="evenodd" d="M217.794 199.813C218.463 199.878 219.132 199.943 219.803 200.008C219.055 200.052 218.307 200.095 217.56 200.139C217.564 199.964 217.642 199.855 217.794 199.813Z" fill="black"/>
<path fill-rule="evenodd" clip-rule="evenodd" d="M389.776 349.805C389.733 348.993 389.69 348.18 389.649 347.373C389.691 348.187 389.734 348.997 389.776 349.805Z" fill="black"/>
<path fill-rule="evenodd" clip-rule="evenodd" d="M229.809 196.714C229.272 196.727 228.734 196.738 228.203 196.75C228.744 196.738 229.276 196.726 229.809 196.714Z" fill="black"/>
<path fill-rule="evenodd" clip-rule="evenodd" d="M426.534 299.231C427.43 299.35 428.326 299.47 429.221 299.589C428.325 299.47 427.43 299.35 426.534 299.231Z" fill="black"/>
<path fill-rule="evenodd" clip-rule="evenodd" d="M240.481 231.94C239.93 231.95 239.379 231.959 238.834 231.97C239.388 231.961 239.935 231.951 240.481 231.94Z" fill="black"/>
<path fill-rule="evenodd" clip-rule="evenodd" d="M208.6 109.015C209.178 109.367 208.878 110.915 208.314 110.767C208.409 110.182 208.504 109.599 208.6 109.015Z" fill="black"/>
<path fill-rule="evenodd" clip-rule="evenodd" d="M506.905 292.956C506.374 292.941 505.842 292.925 505.318 292.909C505.851 292.926 506.378 292.941 506.905 292.956Z" fill="black"/>
<path fill-rule="evenodd" clip-rule="evenodd" d="M183.342 100.989C183.285 99.6256 183.23 98.2625 183.174 96.9028C183.23 98.268 183.286 99.6283 183.342 100.989Z" fill="black"/>
<path fill-rule="evenodd" clip-rule="evenodd" d="M284.002 486.625C284.822 486.761 285.64 486.898 286.458 487.035C285.639 486.898 284.821 486.761 284.002 486.625Z" fill="black"/>
<path fill-rule="evenodd" clip-rule="evenodd" d="M278.59 135.541C275.703 136.219 272.738 136.573 269.919 137.57C269.215 137.819 266.907 139.348 266.064 138.945C264.784 138.332 265.432 136.759 265.971 135.92C267.413 133.675 269.994 132.417 272.361 132.445C274.723 132.474 277.965 132.375 278.59 135.541Z" fill="black"/>
<path fill-rule="evenodd" clip-rule="evenodd" d="M270.569 141.564C273.748 144.101 276.176 145.35 276.445 139.648C279.891 140.184 278.347 146.51 275.74 146.987C272.902 147.506 271.009 144.274 270.569 141.564Z" fill="black"/>
</g>
<defs>
<clipPath id="clip0">
<rect width="614" height="525" fill="white"/>
</clipPath>
</defs>
</svg>
