<svg width="40" height="40" viewBox="0 0 40 40" fill="none" xmlns="http://www.w3.org/2000/svg">
<path d="M19.985 1.66676C17.5962 1.57973 15.2146 1.97774 12.9839 2.83673C10.7532 3.69572 8.71979 4.99788 7.00635 6.66459C5.29291 8.3313 3.93503 10.328 3.0147 12.534C2.09437 14.7401 1.63068 17.1098 1.65164 19.5001C1.62009 21.9633 2.11087 24.4052 3.09163 26.6649C4.0724 28.9246 5.52088 30.9508 7.34164 32.6101L7.4283 35.4268C7.45255 36.2058 7.77907 36.9449 8.33871 37.4874C8.89836 38.0299 9.64719 38.3334 10.4266 38.3334C10.8431 38.3329 11.255 38.2467 11.6366 38.0801L14.8383 36.6668C16.5172 37.1135 18.2476 37.3377 19.985 37.3334C22.3738 37.4204 24.7555 37.0224 26.9863 36.1635C29.217 35.3045 31.2506 34.0024 32.9642 32.3357C34.6777 30.669 36.0358 28.6723 36.9563 26.4663C37.8768 24.2602 38.3407 21.8904 38.32 19.5001C38.3407 17.1099 37.8768 14.7403 36.9564 12.5343C36.036 10.3284 34.6781 8.33178 32.9647 6.66512C31.2514 4.99847 29.218 3.69629 26.9874 2.83722C24.7569 1.97814 22.3753 1.57997 19.9866 1.66676H19.985ZM19.985 34.0001C18.5015 34.0047 17.0242 33.8085 15.5933 33.4168C14.9309 33.2383 14.2273 33.2924 13.6 33.5701L10.7433 34.8301L10.6683 32.3418C10.652 31.9386 10.5549 31.5427 10.3828 31.1777C10.2108 30.8127 9.96724 30.486 9.66664 30.2168C8.1671 28.8676 6.97342 27.2134 6.16567 25.3651C5.35792 23.5167 4.95479 21.517 4.9833 19.5001C4.97279 17.5504 5.3574 15.6189 6.11391 13.8219C6.87041 12.025 7.98314 10.4 9.38494 9.04489C10.7867 7.68981 12.4486 6.63279 14.2701 5.93762C16.0916 5.24244 18.0351 4.92351 19.9833 5.00009C21.9288 4.93412 23.8677 5.26035 25.6846 5.95934C27.5014 6.65834 29.159 7.7158 30.5586 9.06877C31.9582 10.4217 33.0712 12.0425 33.8314 13.8346C34.5916 15.6267 34.9833 17.5534 34.9833 19.5001C34.9833 21.4467 34.5916 23.3735 33.8314 25.1656C33.0712 26.9577 31.9582 28.5784 30.5586 29.9314C29.159 31.2844 27.5014 32.3418 25.6846 33.0408C23.8677 33.7398 21.9288 34.0661 19.9833 34.0001H19.985ZM26.21 14.3084L22.355 18.9001L16.7766 15.4734C16.4362 15.2639 16.0318 15.184 15.6373 15.2482C15.2428 15.3125 14.8846 15.5167 14.6283 15.8234L9.5433 21.8834C9.39103 22.0492 9.27392 22.2441 9.19903 22.4564C9.12414 22.6686 9.09302 22.8939 9.10755 23.1185C9.12209 23.3431 9.18198 23.5625 9.2836 23.7633C9.38523 23.9642 9.52649 24.1424 9.69885 24.2871C9.87122 24.4319 10.0711 24.5403 10.2865 24.6057C10.5019 24.6711 10.7283 24.6921 10.9521 24.6677C11.1758 24.6432 11.3923 24.5736 11.5884 24.4632C11.7846 24.3527 11.9563 24.2037 12.0933 24.0251L16.2583 19.0668L21.8366 22.4934C22.177 22.7029 22.5815 22.7829 22.976 22.7186C23.3705 22.6543 23.7287 22.4502 23.985 22.1434L28.7616 16.4518C28.9085 16.2851 29.0206 16.0907 29.0913 15.88C29.162 15.6694 29.1898 15.4467 29.1732 15.2251C29.1565 15.0036 29.0958 14.7876 28.9945 14.5898C28.8931 14.3921 28.7533 14.2166 28.5832 14.0737C28.413 13.9308 28.216 13.8233 28.0038 13.7577C27.7915 13.692 27.5682 13.6694 27.3471 13.6913C27.126 13.7132 26.9115 13.779 26.7162 13.885C26.5209 13.991 26.3488 14.135 26.21 14.3084Z" fill="#F07CDE"/>
</svg>
