<svg width="40" height="40" viewBox="0 0 40 40" fill="none" xmlns="http://www.w3.org/2000/svg">
<path d="M36.0667 21.6666C35.8261 21.4677 35.5345 21.3404 35.2251 21.2992C34.9157 21.2579 34.601 21.3044 34.3167 21.4333C32.5543 22.2397 30.6381 22.6548 28.7 22.6499C25.1148 22.6456 21.6766 21.224 19.1352 18.6951C16.5939 16.1662 15.1553 12.7351 15.1333 9.14993C15.1409 8.02631 15.2808 6.9075 15.55 5.81659C15.6071 5.52582 15.5857 5.22508 15.4879 4.94535C15.3902 4.66562 15.2196 4.41701 14.9937 4.22515C14.7679 4.03328 14.495 3.90509 14.2032 3.85378C13.9113 3.80248 13.6111 3.82991 13.3333 3.93326C10.7206 5.10811 8.4493 6.92786 6.73294 9.22156C5.01659 11.5153 3.91148 14.2076 3.52143 17.0457C3.13138 19.8838 3.46919 22.7745 4.50313 25.4462C5.53707 28.1179 7.2332 30.4829 9.43218 32.319C11.6312 34.1552 14.2608 35.4022 17.0741 35.9429C19.8874 36.4837 22.7919 36.3004 25.5149 35.4103C28.2379 34.5202 30.69 32.9525 32.6407 30.8545C34.5914 28.7565 35.9768 26.1971 36.6667 23.4166C36.7507 23.0982 36.7386 22.7621 36.6318 22.4507C36.525 22.1393 36.3284 21.8664 36.0667 21.6666ZM20.2333 32.8166C17.4363 32.7969 14.7137 31.913 12.4383 30.2861C10.163 28.6593 8.44612 26.3688 7.52282 23.7285C6.59951 21.0881 6.5149 18.2269 7.28058 15.5366C8.04625 12.8463 9.62477 10.4584 11.8 8.69993V9.14993C11.8044 13.6307 13.5864 17.9267 16.7548 21.0952C19.9232 24.2636 24.2192 26.0455 28.7 26.0499C29.8765 26.0542 31.05 25.9313 32.2 25.6833C31.0499 27.8591 29.3275 29.6797 27.2186 30.9485C25.1097 32.2173 22.6945 32.8863 20.2333 32.8833V32.8166Z" fill="#678684"/>
</svg>
