<svg width="103" height="128" viewBox="0 0 103 128" fill="none" xmlns="http://www.w3.org/2000/svg">
<path fill-rule="evenodd" clip-rule="evenodd" d="M91.7242 58.9907C89.188 62.3891 86.6564 65.7511 84.3904 69.357C82.1107 72.9859 79.9372 76.6865 77.706 80.3479C75.5545 83.8811 73.1521 87.31 71.4219 91.0987C70.4236 93.2829 70.3274 96.1589 67.586 96.0565C63.9636 95.9226 60.5325 94.8453 57.3414 93.0801C50.9446 89.5431 45.6213 84.5738 41.627 78.2718C37.4824 71.7335 34.2648 64.336 31.9347 56.8974C30.646 52.7844 29.6128 48.5901 28.6795 44.3757C28.2051 42.2384 27.6976 40.1441 27.694 37.9369C27.6912 36.9658 27.7489 35.9966 27.7975 35.0275C27.8423 34.1109 28.3324 32.5112 27.3203 32.4481C27.6225 29.8133 27.912 27.1784 28.2225 24.5455C28.4469 22.6425 28.4322 20.509 30.0332 19.25C31.5647 18.0435 33.968 18.0024 35.7724 17.5776C37.955 17.0629 40.1194 16.4611 42.2599 15.777C46.6508 14.3745 50.8531 12.5165 55.091 10.6863C57.2059 9.77353 59.3235 8.84358 61.3202 7.66584C62.9698 6.69093 64.1531 5.2769 65.2715 7.49843C72.8874 22.6206 78.4507 39.5691 90.9191 51.3024C91.9276 52.2506 93.578 53.391 93.7264 54.9447C93.8693 56.4592 92.5293 57.9116 91.7242 58.9907ZM101.75 48.3021C99.9922 47.0459 97.8114 46.8374 96.0281 45.6778C93.9838 44.3479 92.631 41.3505 91.2351 39.3538C87.903 34.5893 84.5645 29.796 81.5557 24.799C78.8244 20.2622 76.3523 15.5608 73.7282 10.957C72.3836 8.59865 70.996 6.30058 69.4124 4.10775C68.7383 3.17589 67.0282 -0.120043 65.5866 0.00337583C64.8428 0.0665195 64.8731 0.819456 64.34 1.06247C64.0652 1.18684 63.8463 1.05005 63.5779 1.08832C62.6135 1.22322 61.5648 0.714223 60.571 0.81468C58.1154 1.06343 55.4556 2.1388 53.0925 2.88122C48.1584 4.43209 43.4524 6.6144 38.6008 8.40636C33.7913 10.183 28.4203 11.3694 24.0248 14.1343C22.2891 15.226 20.329 16.9739 22.0336 19.1112C22.6802 19.9216 23.5668 19.9006 24.2391 20.5291C24.807 21.0592 24.5542 21.3519 24.4232 22.235C24.3481 22.7401 24.2712 23.2443 24.1961 23.7495C23.4093 29.0574 22.7654 34.374 23.4752 39.7336C24.1933 45.1478 25.2823 50.5438 26.7387 55.7924C31.3366 72.3697 39.5616 92.045 55.7239 99.3917C59.5021 101.108 63.2601 101.515 67.2462 102.289C68.4992 102.533 69.5607 103.124 70.6745 103.724C71.2076 104.011 71.867 104.474 72.5082 104.392C73.9709 104.204 75.1744 101.836 75.8568 100.716C78.437 96.4861 81.3652 92.5157 84.0442 88.3558C85.43 86.2022 86.7425 83.995 87.8783 81.6864C88.5359 80.3508 89.0067 78.1369 90.8147 78.1866C91.302 78.864 91.7902 79.5424 92.2774 80.2207C92.4734 80.4924 92.7675 80.7947 92.9103 81.099C93.2694 81.8643 93.241 81.297 93.0917 82.2021C92.9003 83.3597 91.8708 84.6685 91.2214 85.5812C87.4185 90.937 83.448 96.1627 79.4609 101.369C75.5435 106.487 71.5428 111.567 66.9531 116.051C66.0244 116.958 65.0068 118.065 63.6494 118.126C62.3946 118.183 61.0207 117.498 59.776 117.271C57.0703 116.779 54.2914 116.666 51.6526 115.814C50.2806 115.371 49.1339 114.544 47.7133 114.444C46.518 114.358 45.7037 114.151 44.6559 113.491C42.2855 112 39.6504 111.181 37.2534 109.771C32.3102 106.867 27.2021 102.552 23.5787 97.9958C21.7011 95.6346 20.1605 93.0055 18.3177 90.6156C16.5271 88.2907 14.7593 85.9821 13.1931 83.4812C10.1046 78.5512 7.64719 73.2088 5.77871 67.6521C4.80783 64.7656 4.32423 62.8809 6.7386 60.7693C9.01558 58.7784 11.1478 56.6975 13.0447 54.3037C13.9671 53.1365 18.1766 48.8561 15.0249 48.1443C13.3177 47.7578 10.5919 50.759 9.30867 51.8468C7.21945 53.6187 5.17145 55.336 2.75434 56.6047C0.0175631 58.0407 -0.0328138 59.8633 0.00657076 62.8464C0.0890038 68.9953 2.2863 74.9864 4.5642 80.5996C6.90621 86.3687 9.85639 91.8459 13.3854 96.9147C20.1367 106.612 27.6885 116.449 38.184 121.873C43.3727 124.556 48.9782 125.971 54.7118 126.639C58.098 127.035 61.5107 127.172 64.9152 127.085C66.3523 127.048 68.2299 127.251 69.6084 126.795C70.7258 126.426 70.909 125.562 71.3129 124.506C72.2719 122.003 74.7778 120.645 76.4723 118.639C78.2822 116.496 80.1799 114.478 82.0411 112.387C86.073 107.857 88.742 102.526 91.9816 97.4103C93.7741 94.5803 95.7131 91.8115 97.2765 88.8322C98.5423 86.4184 100.115 83.2459 100.556 80.523C100.906 78.3512 99.2293 75.194 96.9221 75.0744C95.7186 75.0113 94.755 75.9976 93.5698 76.1249C93.2144 76.1641 91.9999 75.9096 91.5749 76.0914C93.513 71.1862 96.3863 66.5681 98.5643 61.794C99.7926 59.1018 100.957 56.3779 102.037 53.6178C102.86 51.5168 103.838 49.7946 101.75 48.3021Z" fill="#B1A0A0"/>
</svg>
