<svg width="40" height="40" viewBox="0 0 40 40" fill="none" xmlns="http://www.w3.org/2000/svg">
<path d="M9.40001 28.3333L8.21668 29.5166C7.90626 29.8289 7.73202 30.2513 7.73202 30.6916C7.73202 31.1319 7.90626 31.5543 8.21668 31.8666C8.52895 32.177 8.95137 32.3512 9.39168 32.3512C9.83199 32.3512 10.2544 32.177 10.5667 31.8666L11.75 30.6833C12.0231 30.3644 12.1657 29.9543 12.1495 29.5348C12.1333 29.1154 11.9594 28.7175 11.6626 28.4206C11.3658 28.1238 10.9679 27.9499 10.5484 27.9337C10.129 27.9175 9.71885 28.0602 9.40001 28.3333ZM8.33334 19.9999C8.33334 19.5579 8.15775 19.134 7.84519 18.8214C7.53263 18.5088 7.1087 18.3333 6.66668 18.3333H5.00001C4.55798 18.3333 4.13406 18.5088 3.8215 18.8214C3.50894 19.134 3.33334 19.5579 3.33334 19.9999C3.33334 20.4419 3.50894 20.8659 3.8215 21.1784C4.13406 21.491 4.55798 21.6666 5.00001 21.6666H6.66668C7.1087 21.6666 7.53263 21.491 7.84519 21.1784C8.15775 20.8659 8.33334 20.4419 8.33334 19.9999ZM20 8.33325C20.442 8.33325 20.866 8.15766 21.1785 7.8451C21.4911 7.53254 21.6667 7.10861 21.6667 6.66659V4.99992C21.6667 4.55789 21.4911 4.13397 21.1785 3.82141C20.866 3.50885 20.442 3.33325 20 3.33325C19.558 3.33325 19.1341 3.50885 18.8215 3.82141C18.5089 4.13397 18.3333 4.55789 18.3333 4.99992V6.66659C18.3333 7.10861 18.5089 7.53254 18.8215 7.8451C19.1341 8.15766 19.558 8.33325 20 8.33325ZM9.40001 11.7499C9.71044 12.0578 10.1294 12.2314 10.5667 12.2333C10.786 12.2345 11.0035 12.1925 11.2065 12.1095C11.4096 12.0266 11.5943 11.9044 11.75 11.7499C12.0604 11.4376 12.2347 11.0152 12.2347 10.5749C12.2347 10.1346 12.0604 9.71219 11.75 9.39992L10.5667 8.21659C10.2478 7.94354 9.83772 7.80086 9.41825 7.81707C8.99879 7.83327 8.6009 8.00716 8.30407 8.30398C8.00725 8.6008 7.83336 8.9987 7.81716 9.41816C7.80096 9.83762 7.94363 10.2478 8.21668 10.5666L9.40001 11.7499ZM29.4 12.2333C29.8372 12.2314 30.2562 12.0578 30.5667 11.7499L31.75 10.5666C31.9245 10.4172 32.0662 10.2333 32.1662 10.0265C32.2663 9.81976 32.3225 9.59454 32.3313 9.36501C32.3402 9.13548 32.3015 8.90659 32.2177 8.69271C32.1339 8.47884 32.0069 8.28459 31.8444 8.12217C31.682 7.95974 31.4878 7.83265 31.2739 7.74886C31.06 7.66507 30.8311 7.62639 30.6016 7.63525C30.3721 7.64412 30.1468 7.70034 29.9401 7.80038C29.7333 7.90041 29.5494 8.04212 29.4 8.21659L28.3333 9.39992C28.0229 9.71219 27.8487 10.1346 27.8487 10.5749C27.8487 11.0152 28.0229 11.4376 28.3333 11.7499C28.6272 12.0422 29.0193 12.2145 29.4333 12.2333H29.4ZM35 18.3333H33.3333C32.8913 18.3333 32.4674 18.5088 32.1548 18.8214C31.8423 19.134 31.6667 19.5579 31.6667 19.9999C31.6667 20.4419 31.8423 20.8659 32.1548 21.1784C32.4674 21.491 32.8913 21.6666 33.3333 21.6666H35C35.442 21.6666 35.866 21.491 36.1785 21.1784C36.4911 20.8659 36.6667 20.4419 36.6667 19.9999C36.6667 19.5579 36.4911 19.134 36.1785 18.8214C35.866 18.5088 35.442 18.3333 35 18.3333ZM20 31.6666C19.558 31.6666 19.1341 31.8422 18.8215 32.1547C18.5089 32.4673 18.3333 32.8912 18.3333 33.3333V34.9999C18.3333 35.4419 18.5089 35.8659 18.8215 36.1784C19.1341 36.491 19.558 36.6666 20 36.6666C20.442 36.6666 20.866 36.491 21.1785 36.1784C21.4911 35.8659 21.6667 35.4419 21.6667 34.9999V33.3333C21.6667 32.8912 21.4911 32.4673 21.1785 32.1547C20.866 31.8422 20.442 31.6666 20 31.6666ZM30.6 28.3333C30.2834 28.1571 29.918 28.089 29.5591 28.1391C29.2003 28.1893 28.8675 28.355 28.6113 28.6113C28.3551 28.8675 28.1894 29.2002 28.1392 29.559C28.0891 29.9179 28.1572 30.2833 28.3333 30.5999L29.5167 31.7833C29.8289 32.0937 30.2514 32.2679 30.6917 32.2679C31.132 32.2679 31.5544 32.0937 31.8667 31.7833C32.1771 31.471 32.3513 31.0486 32.3513 30.6083C32.3513 30.1679 32.1771 29.7455 31.8667 29.4333L30.6 28.3333ZM20 10.8333C18.187 10.8333 16.4147 11.3709 14.9073 12.3781C13.3998 13.3854 12.2249 14.817 11.5311 16.492C10.8373 18.167 10.6558 20.0101 11.0095 21.7882C11.3632 23.5664 12.2362 25.1998 13.5182 26.4817C14.8002 27.7637 16.4335 28.6368 18.2117 28.9905C19.9898 29.3442 21.833 29.1626 23.5079 28.4688C25.1829 27.775 26.6146 26.6001 27.6218 25.0926C28.6291 23.5852 29.1667 21.8129 29.1667 19.9999C29.1623 17.5701 28.1951 15.2411 26.477 13.523C24.7588 11.8048 22.4298 10.8377 20 10.8333ZM20 25.8333C18.8463 25.8333 17.7185 25.4911 16.7592 24.8502C15.7999 24.2092 15.0522 23.2981 14.6107 22.2322C14.1692 21.1663 14.0537 19.9934 14.2788 18.8619C14.5038 17.7303 15.0594 16.6909 15.8752 15.8751C16.691 15.0593 17.7304 14.5038 18.862 14.2787C19.9935 14.0536 21.1664 14.1691 22.2323 14.6106C23.2982 15.0521 24.2093 15.7998 24.8503 16.7591C25.4912 17.7184 25.8333 18.8462 25.8333 19.9999C25.8333 21.547 25.2188 23.0307 24.1248 24.1247C23.0308 25.2187 21.5471 25.8333 20 25.8333Z" fill="#ECB45F"/>
</svg>
