<svg width="50" height="40" viewBox="0 0 50 40" fill="none" xmlns="http://www.w3.org/2000/svg">
<path d="M41.082 12.0174C39.5524 8.00384 36.9133 4.67448 33.5694 2.5398C30.2254 0.405117 26.3613 -0.417054 22.5693 0.199342C18.7773 0.815739 15.2669 2.83668 12.5762 5.9523C9.88556 9.06793 8.16317 13.1063 7.67313 17.4481C5.28896 18.1007 3.19749 19.7314 1.79591 22.0305C0.394327 24.3296 -0.21976 27.1369 0.0702659 29.9194C0.360292 32.7019 1.53423 35.2658 3.36915 37.1241C5.20407 38.9825 7.57218 40.0059 10.0238 40H37.5311C40.5303 39.9905 43.4266 38.7492 45.6917 36.5023C47.9569 34.2554 49.44 31.1527 49.8705 27.7601C50.301 24.3675 49.6503 20.911 48.037 18.0211C46.4237 15.1312 43.9553 13.0004 41.082 12.0174ZM37.5311 34.2834H10.0238C8.69732 34.2834 7.42522 33.6811 6.48728 32.6091C5.54935 31.537 5.02243 30.083 5.02243 28.5669C5.02243 27.0507 5.54935 25.5967 6.48728 24.5246C7.42522 23.4526 8.69732 22.8503 10.0238 22.8503C10.687 22.8503 11.323 22.5492 11.792 22.0131C12.261 21.4771 12.5244 20.7501 12.5244 19.992C12.5308 16.6115 13.5854 13.3429 15.5009 10.7671C17.4164 8.19135 20.0687 6.47506 22.9866 5.92319C25.9045 5.37132 28.8991 6.01961 31.4384 7.75288C33.9777 9.48614 35.8972 12.1922 36.8559 15.3902C37.0026 15.876 37.2612 16.3077 37.6045 16.6396C37.9477 16.9716 38.363 17.1917 38.8064 17.2766C40.6394 17.6632 42.2808 18.8159 43.411 20.5101C44.5411 22.2043 45.0789 24.3187 44.9197 26.4414C44.7606 28.5641 43.9157 30.5431 42.5499 31.9927C41.184 33.4424 39.3949 34.259 37.5311 34.2834Z" fill="#79C0C0"/>
</svg>
