<svg width="40" height="40" viewBox="0 0 40 40" fill="none" xmlns="http://www.w3.org/2000/svg">
<path d="M27.6666 23.3334C27.3333 23.1667 25.1666 22.1667 24.8333 22.0001C24.5 21.8334 24.1666 21.8334 23.8333 22.1667C23.5 22.5001 22.8333 23.5001 22.5 23.8334C22.3333 24.1667 22 24.1667 21.6666 24.0001C20.5 23.5001 19.3333 22.8334 18.3333 22.0001C17.5 21.1667 16.6666 20.1667 16 19.1667C15.8333 18.8334 16 18.5001 16.1666 18.3334C16.3333 18.1667 16.5 17.8334 16.8333 17.6667C17 17.5001 17.1666 17.1667 17.1666 17.0001C17.3333 16.8334 17.3333 16.5001 17.1666 16.3334C17 16.1667 16.1666 14.1667 15.8333 13.3334C15.6666 12.1667 15.3333 12.1667 15 12.1667H14.1666C13.8333 12.1667 13.3333 12.5001 13.1666 12.6667C12.1666 13.6667 11.6666 14.8334 11.6666 16.1667C11.8333 17.6667 12.3333 19.1667 13.3333 20.5001C15.1666 23.1667 17.5 25.3334 20.3333 26.6667C21.1666 27.0001 21.8333 27.3334 22.6666 27.5001C23.5 27.8334 24.3333 27.8334 25.3333 27.6667C26.5 27.5001 27.5 26.6667 28.1666 25.6667C28.5 25.0001 28.5 24.3334 28.3333 23.6667L27.6666 23.3334ZM31.8333 8.16675C25.3333 1.66675 14.8333 1.66675 8.33331 8.16675C2.99998 13.5001 1.99998 21.6667 5.66665 28.1667L3.33331 36.6667L12.1666 34.3334C14.6666 35.6667 17.3333 36.3334 20 36.3334C29.1666 36.3334 36.5 29.0001 36.5 19.8334C36.6666 15.5001 34.8333 11.3334 31.8333 8.16675ZM27.3333 31.5001C25.1666 32.8334 22.6666 33.6667 20 33.6667C17.5 33.6667 15.1666 33.0001 13 31.8334L12.5 31.5001L7.33331 32.8334L8.66665 27.8334L8.33331 27.3334C4.33331 20.6667 6.33331 12.3334 12.8333 8.16675C19.3333 4.00008 27.6666 6.16675 31.6666 12.5001C35.6666 19.0001 33.8333 27.5001 27.3333 31.5001Z" fill="#F07CDE"/>
</svg>
